<?xml version="1.0" standalone="no"?>
<!DOCTYPE svg PUBLIC "-//W3C//DTD SVG 1.1//EN" "http://www.w3.org/Graphics/SVG/1.1/DTD/svg11.dtd" >
<svg xmlns="http://www.w3.org/2000/svg">
<metadata></metadata>
<defs>
<font id="wellfleetregular" horiz-adv-x="1366" >
<font-face units-per-em="2048" ascent="1638" descent="-410" />
<missing-glyph horiz-adv-x="590" />
<glyph horiz-adv-x="0" />
<glyph horiz-adv-x="0" />
<glyph horiz-adv-x="0" />
<glyph horiz-adv-x="0" />
<glyph horiz-adv-x="0" />
<glyph horiz-adv-x="0" />
<glyph horiz-adv-x="0" />
<glyph horiz-adv-x="0" />
<glyph unicode="&#x9;" horiz-adv-x="0" />
<glyph unicode="&#xd;" horiz-adv-x="0" />
<glyph horiz-adv-x="0" />
<glyph horiz-adv-x="0" />
<glyph horiz-adv-x="0" />
<glyph horiz-adv-x="0" />
<glyph horiz-adv-x="0" />
<glyph horiz-adv-x="0" />
<glyph horiz-adv-x="0" />
<glyph horiz-adv-x="0" />
<glyph horiz-adv-x="0" />
<glyph horiz-adv-x="0" />
<glyph unicode=" "  horiz-adv-x="590" />
<glyph unicode="&#x09;" horiz-adv-x="590" />
<glyph unicode="&#xa0;" horiz-adv-x="590" />
<glyph unicode="!" horiz-adv-x="512" d="M117 1539q2 20 24 24l218 -8q21 -2 21 -26l-43 -1079q-1 -20 -18 -20q-15 0 -33 2l-103 11q-24 4 -26 29zM408.5 135q5.5 -30 5.5 -56t-17.5 -47.5t-46.5 -35.5q-60 -29 -116 -29t-77 17.5t-34 43.5q-25 50 -25 98.5t22 70.5t54 35q55 21 109.5 21t75 -17.5t32.5 -44 t17.5 -56.5z" />
<glyph unicode="&#x22;" horiz-adv-x="1024" d="M172 1729q2 16 19 16l201 -8q12 -1 15.5 -6t4.5 -18l-46 -513q0 -14 -24 -14l-111 10q-19 2 -19 16zM612 1729q2 16 19 16l201 -8q12 -1 15.5 -6t4.5 -18l-46 -513q0 -14 -24 -14l-111 10q-19 2 -19 16z" />
<glyph unicode="#" horiz-adv-x="1194" d="M1092 1038q15 -2 15 -20l-9 -156q-2 -14 -14 -14l-198 10l-25 -155l-13 -94l194 8q15 0 15 -17l-16 -154q-2 -19 -18 -19l-198 6l-42 -326q-3 -17 -25 -17h-148q-19 0 -19 20l54 328l-117 4l-67 -1l-45 -339q-3 -17 -25 -17l-141 5q-19 0 -19 20l53 329l-180 -2 q-17 0 -17 19l15 141q3 23 25 24l185 -10l17 103l19 150l-180 -6q-15 0 -15 19l9 141q1 24 19 24l189 -6l40 308q2 20 23 20l148 -8q12 -1 15.5 -6t4.5 -18l-50 -301l50 -1l131 2l38 297q2 20 23 20l148 2q12 -1 15.5 -6t4.5 -18l-47 -292zM483 603l78 -4l112 4l17 103 l20 160l-126 7l-60 -2l-26 -159z" />
<glyph unicode="$" horiz-adv-x="1364" d="M647 -197q-24 0 -24 14l2 189q-99 7 -196 31l11 -81q0 -18 -23 -18l-172 -5q-38 2 -42 39l-28 377q0 20 24 22l196 18q17 0 21 -23l-1 -161q114 -19 212 -23l6 495q-244 89 -339 181q-103 102 -103 276q0 166 114 272q113 105 315 121l-3 153q0 22 20 24l131 8 q17 0 19 -16l-3 -171q99 -9 196 -38q128 39 160 39t34 -27l-20 -395q-2 -23 -16 -23l-168 6q-14 1 -17 7t-4 19l-8 209q-97 20 -160 25l-8 -464q261 -103 359 -213q87 -97 87 -256q0 -267 -235 -366q-83 -34 -200 -43l3 -176q0 -14 -19 -16zM945 508q-56 66 -171 116l7 -437 q104 15 150.5 65.5t46.5 133t-33 122.5zM624 1343q-188 -28 -188 -178q0 -82 43 -129q41 -46 153 -95z" />
<glyph unicode="%" horiz-adv-x="1376" d="M1247 1407q8 -6 8 -13.5t-5 -15.5l-473 -640l-488 -700q-6 -8 -14 -8t-16 5l-90 64q-8 5 -8 12.5t7 18.5l498 691l460 652q6 9 12.5 9t14.5 -5zM631.5 1330.5q17.5 -53.5 17.5 -119t-19.5 -121t-57.5 -94.5q-80 -84 -222 -84q-136 0 -212 87q-71 81 -71 207 q0 203 161 273q56 24 131.5 24t129.5 -21.5t89.5 -59.5t53 -91.5zM419.5 1348.5q-23.5 12.5 -59.5 12.5t-62 -14t-41 -37q-27 -40 -27 -86.5t7 -73t23 -48.5q34 -49 97 -49q95 0 125 100q8 29 8 59.5t-7.5 57t-23.5 46.5t-39.5 32.5zM1291.5 413.5q17.5 -53.5 17.5 -119 t-19.5 -121t-57.5 -95.5q-80 -83 -222 -83q-136 0 -212 87q-71 81 -71 207q0 203 161 273q56 24 131.5 24t129.5 -21.5t89.5 -59.5t53 -91.5zM1079.5 431.5q-23.5 12.5 -59.5 12.5t-62 -14t-41 -36q-27 -41 -27 -87.5t7 -73t23 -48.5q34 -49 97 -49q95 0 125 100 q8 29 8 59.5t-7.5 57t-23.5 46.5t-39.5 32.5z" />
<glyph unicode="&#x26;" horiz-adv-x="1355" d="M959 183q-198 -207 -465 -207q-174 0 -289 88q-127 98 -127 272q0 211 194 354q61 46 138 90q-94 111 -126 174q-54 108 -54 206t32 168t89 118q115 95 303 95q178 0 288 -85q121 -92 121 -263q0 -137 -83 -233q-77 -89 -270 -188l224 -244l259 -271l68 100q7 9 14.5 9 t15.5 -6l143 -131q7 -7 7 -13t-5 -11l-314 -332q-6 -6 -11.5 -6t-13.5 8l-121 107q-12 10 -12 16t5 11l85 84zM509 664q-194 -133 -194 -286q0 -98 67 -152q61 -49 152 -49q175 0 303 128l-172 183zM476 1250q-17 -35 -17 -76t5.5 -69t21.5 -59q31 -58 126 -165 q190 104 226 211q13 36 13 76.5t-12 75t-35 59.5q-50 53 -140 53q-139 0 -188 -106z" />
<glyph unicode="'" horiz-adv-x="512" d="M136 1729q2 16 19 16l201 -8q12 -1 15.5 -6t4.5 -18l-46 -513q0 -14 -24 -14l-111 10q-19 2 -19 16z" />
<glyph unicode="(" horiz-adv-x="683" d="M433.5 49q31.5 -47 74 -47t66.5 4q17 0 18 -24l-9 -151q-2 -17 -23 -19q-52 -5 -81 -5q-186 0 -261 233q-65 203 -65 653q0 471 77 690q88 246 299 246q71 0 75.5 -5.5t5.5 -16.5l10 -156q0 -19 -14 -19q-12 2 -40 2q-69 0 -110.5 -41.5t-63.5 -128.5q-36 -142 -36 -546 q0 -377 23 -499.5t54.5 -169.5z" />
<glyph unicode=")" horiz-adv-x="683" d="M249 1387q-31 47 -73.5 47t-66.5 -4q-17 0 -18 24l9 151q2 17 23 19q52 5 81 5q186 0 260 -233q66 -203 66 -653q0 -471 -78 -690q-87 -246 -298 -246q-71 0 -75.5 5.5t-5.5 16.5l-10 156q0 19 14 19q12 -2 40 -2q69 0 110.5 41.5t63.5 128.5q36 142 36 546 q0 379 -23.5 500.5t-54.5 168.5z" />
<glyph unicode="*" horiz-adv-x="1021" d="M970 1196q0 -26 -21 -26l-339 24l147 -283q5 -12 5 -20.5t-14 -14.5l-145 -67q-4 -2 -11 -2q-15 0 -19 17l-86 318l-231 -235q-9 -10 -17.5 -10t-15.5 10l-97 124q-7 10 -7 19t9 14l277 179l-299 153q-13 6 -13 16t6 18l92 128q8 11 17.5 11t17.5 -7l247 -206l52 334 q3 18 30 18l138 -54q16 -6 16 -20q0 -3 -2 -11l-108 -296l305 55q17 0 22.5 -3.5t8.5 -17.5z" />
<glyph unicode="+" horiz-adv-x="1194" d="M165 663q2 19 16 19l322 4l-8 338q0 20 19 21l161 -8q20 -2 20 -24l-10 -325l326 4q18 -2 18 -19l-3 -161q0 -12 -5.5 -15.5t-18.5 -4.5l-319 10l6 -364q0 -14 -24 -16l-151 7q-19 2 -19 16l8 356l-314 -13q-12 0 -14 24z" />
<glyph unicode="," horiz-adv-x="502" d="M127 -281q57 127 57 185.5t-13 86t-30 47.5q-37 44 -37 70.5t18 50.5t44 45q62 47 107 47t70 -19.5t39 -49.5q26 -54 26 -119t-13 -116t-35 -97q-40 -88 -106 -163z" />
<glyph unicode="-" horiz-adv-x="1194" d="M1000 772q16 -2 16 -19l-18 -151q-2 -12 -6.5 -15.5t-17.5 -4.5l-783 -4q-14 0 -14 24l10 141q2 19 16 19z" />
<glyph unicode="." horiz-adv-x="512" d="M415.5 135q5.5 -30 5.5 -56t-17.5 -47.5t-46.5 -35.5q-60 -29 -116 -29t-77 17.5t-34 43.5q-25 50 -25 98.5t22 70.5t54 35q55 21 109.5 21t75 -17.5t32.5 -44t17.5 -56.5z" />
<glyph unicode="/" horiz-adv-x="682" d="M658 1704q15 -5 15 -17q0 -3 -2 -11l-501 -2117q-3 -14 -18 -14q-6 0 -10 1l-126 31q-16 4 -16 21q0 5 1 7l496 2115q3 17 20 17q4 0 7 -1z" />
<glyph unicode="0" horiz-adv-x="1194" d="M168 391q-26 134 -26 277.5t6 249.5t23.5 199.5t49.5 171t85 133.5q110 118 321 118q424 0 424 -737q0 -423 -103 -615q-111 -208 -377 -208q-321 0 -403 411zM601 202q75 0 119.5 44.5t67.5 127.5q37 132 37 460q0 261 -47 367q-49 113 -179 113q-72 0 -118 -27.5 t-71 -97.5q-45 -122 -45 -492q0 -252 44 -361q54 -134 192 -134z" />
<glyph unicode="1" horiz-adv-x="1194" d="M199 201q0 19 16 19l317 -22v1038l-311 -40q-11 0 -14.5 5t-5.5 17l-15 125q0 20 23 29l364 149q19 8 36 10l149 -14q18 -2 18 -23l-17 -214l-12 -1081l275 21q14 0 16 -19l10 -181q0 -24 -14 -24l-803 14q-22 0 -24 20z" />
<glyph unicode="2" horiz-adv-x="1194" d="M816 1166q0 167 -214 167q-113 0 -221 -56l12 -164q0 -13 -3 -19t-18 -7l-188 14q-14 2 -16 23l-20 370q1 24 30 32q10 3 32 7l44 9q55 10 71 10q36 0 40 -32l4 -66q154 80 270.5 80t190.5 -22t125 -66q105 -92 105 -266q0 -134 -38 -220.5t-85 -155.5t-119.5 -156 t-173.5 -196l-234 -252l453 29l-2 105q0 18 12 28.5t30 10.5l150 -13q16 -2 23.5 -7.5t8.5 -22.5l-39 -382q-4 -23 -21 -23l-168 4q-22 0 -22 26l11 65l-651 -8q-14 0 -18 24l-24 173q0 16 16 30l247 249q359 379 392 580q8 49 8 98z" />
<glyph unicode="3" horiz-adv-x="1194" d="M760 808q343 -59 343 -369q0 -197 -143 -321q-137 -120 -341 -120q-137 0 -243 30l7 -60q0 -16 -23 -18l-152 -15q-28 0 -34.5 10t-7.5 29l-8 347q0 18 24 22l136 18q17 0 21 -23l16 -138q115 -24 204 -24t139.5 16.5t88.5 49.5q82 71 82 197q0 122 -72 185 q-57 51 -136 51q-64 0 -138 -17q-109 -24 -122 -24q-29 0 -31 23l-14 145q2 30 30 32q203 11 311 108q94 83 94 205q0 138 -109 175q-34 12 -73 12q-118 0 -231 -70l9 -121q-1 -13 -3.5 -18.5t-17.5 -7.5l-178 -16q-14 0 -16 23l20 400q2 30 30 32l139 -4q35 -2 38 -32 l-10 -71q153 88 322 88q145 0 231 -99q82 -96 82 -248q0 -184 -148 -303q-49 -40 -116 -79z" />
<glyph unicode="4" horiz-adv-x="1194" d="M1115 484q-2 -20 -24 -20l-196 -2v-273l140 -3q23 0 24 -20l8 -151q0 -19 -16 -19h-583q-19 0 -20 19l-10 161q0 24 14 24l221 -6l6 266l-498 -4q-40 0 -52 28l-45 102q-5 13 -5 22t17 52l183 420q201 441 211 460t16 23.5t20 4.5l215 -50q15 -3 16 -14t-21.5 -58 t-60.5 -120l-292 -544l-95 -169l395 14l8 334q0 23 25 23l202 3q20 -4 20 -22l-39 -331l192 7q16 0 16 -19z" />
<glyph unicode="5" horiz-adv-x="1194" d="M189 -65q-40 0 -42 39l12 337q0 20 24 22l126 8q21 0 21 -23l1 -107q121 -25 254.5 -25t204 69.5t70.5 210.5q0 126 -62 194q-59 65 -144 65q-128 0 -203 -13q-108 -20 -122 -20q-19 0 -34 23l-93 133l99 635q5 31 28 31l505 -27v45q0 23 22 26l128 14q19 0 21 -23 l14 -350q-1 -16 -23 -18l-142 -15q-42 0 -42 39l10 95h-350l-57 -430q159 48 264.5 48t180 -31t123.5 -89q97 -116 97 -328q0 -234 -127 -354q-116 -109 -326 -109q-136 0 -193.5 13t-88.5 22l9 -74q0 -16 -23 -18z" />
<glyph unicode="6" horiz-adv-x="1194" d="M619 1548q75 0 154 -27l131 49q38 0 42 -39l38 -337q0 -23 -22 -26l-178 -34q-19 0 -21 23l-9 217q-30 8 -95.5 8t-126 -31.5t-94.5 -95.5q-61 -112 -67 -383q137 48 285 48q332 0 404 -281q17 -66 17 -175t-35.5 -206.5t-99.5 -161.5q-125 -128 -340 -128 q-253 0 -368 192q-110 186 -110 578q0 810 495 810zM718 726q-41 9 -125.5 9t-222.5 -31q2 -297 52 -412q51 -121 180 -121q258 0 258 294q0 233 -142 261z" />
<glyph unicode="7" horiz-adv-x="1194" d="M153 1049q-17 2 -21 24l9 469q0 18 23 18l164 -20q20 -4 20 -23v-29l731 27q29 -1 31 -35l-4 -130l-510 -1339q-9 -20 -26 -22l-232 20q-16 1 -17 19q0 13 49 126l532 1167h-553l1 -240q0 -19 -24 -20z" />
<glyph unicode="8" horiz-adv-x="1194" d="M991.5 1358q36.5 -71 36.5 -156t-15.5 -139.5t-44.5 -102.5q-46 -77 -156 -178q141 -89 198 -172q60 -88 60 -205t-32.5 -194t-92.5 -129q-119 -102 -337 -102q-203 0 -330 94q-144 107 -144 306q0 201 141 349q41 43 86 84q-186 141 -186 341q0 190 125 302 q116 104 294 104q183 0 300 -86q61 -45 97.5 -116zM487 728q-134 -148 -134 -298q0 -120 76 -186q73 -64 193 -64q155 0 204 118q16 38 16 89.5t-17 88.5t-58 73t-109 77zM402 1251q-20 -37 -20 -79.5t13 -75.5t47 -69q70 -72 248 -172q70 71 97 118q49 88 49 181 q0 89 -64 146q-61 56 -153 56q-160 0 -217 -105z" />
<glyph unicode="9" horiz-adv-x="1194" d="M209 -51q-38 0 -42 39l32 337q3 24 22 26l138 10q17 0 21 -23l21 -198q69 -12 148.5 -12t135.5 32t87 98q54 110 60 401q-133 -50 -285 -50q-336 0 -408 279q-17 65 -17 177t39 211t105 162q129 123 338 123q241 0 353.5 -183.5t112.5 -555.5q0 -642 -240 -804 q-84 -56 -216 -56t-221 23zM488 800q41 -10 119.5 -10t226.5 37v28q0 271 -54 383q-57 119 -203 119q-229 0 -229 -284q0 -237 140 -273z" />
<glyph unicode=":" horiz-adv-x="512" d="M415.5 135q5.5 -30 5.5 -56t-17.5 -47.5t-46.5 -35.5q-60 -29 -116 -29t-77 17.5t-34 43.5q-25 50 -25 98.5t22 70.5t54 35q55 21 109.5 21t75 -17.5t32.5 -44t17.5 -56.5zM415.5 902q5.5 -30 5.5 -56t-17.5 -47.5t-46.5 -35.5q-60 -29 -116 -29t-77 17.5t-34 43.5 q-25 50 -25 98.5t22 70.5t54 34q55 22 109.5 22t75 -17.5t32.5 -44t17.5 -56.5z" />
<glyph unicode=";" horiz-adv-x="512" d="M149 -281q57 127 57 185.5t-13 86t-30 47.5q-37 44 -37 70.5t18 50.5t44 45q62 47 107 47t70 -19.5t39 -49.5q26 -54 26 -119t-13 -116t-35 -97q-40 -88 -106 -163zM415.5 902q5.5 -30 5.5 -56t-17.5 -47.5t-46.5 -35.5q-60 -29 -116 -29t-77 17.5t-34 43.5 q-25 50 -25 98.5t22 70.5t54 34q55 22 109.5 22t75 -17.5t32.5 -44t17.5 -56.5z" />
<glyph unicode="&#x3c;" horiz-adv-x="1194" d="M249 490q-23 14 -25 35l-8 96q2 22 17 31l613 372q8 6 15 6q15 0 21 -8l88 -137q6 -9 6 -15t-6 -10l-537 -283l538 -273q6 -4 6 -11t-6 -17l-84 -142q-4 -7 -10.5 -7t-14.5 5z" />
<glyph unicode="=" horiz-adv-x="1194" d="M995 852q14 0 16 -19v-141q0 -24 -17 -24l-398 12l-382 -8q-13 1 -18 4.5t-6 15.5l-8 151q0 19 18 19zM198 278q-14 0 -16 19v141q0 24 19 24l412 -12l366 8q13 -1 18 -4.5t6 -15.5l8 -151q0 -17 -16 -19z" />
<glyph unicode="&#x3e;" horiz-adv-x="1194" d="M945 666q23 -14 25 -35l8 -96q-2 -22 -17 -31l-613 -372q-8 -6 -15 -6q-15 0 -21 8l-88 137q-6 9 -6 15t6 10l537 283l-538 273q-6 4 -6 10.5t6 17.5l84 142q4 7 10.5 7t14.5 -5z" />
<glyph unicode="?" horiz-adv-x="1023" d="M86 1091q-14 0 -16 23l20 390q3 32 30 32l149 -4q35 -2 38 -32l-2 -60q160 84 319 84q256 0 326 -183q23 -62 23 -136.5t-18 -136t-47.5 -120t-67.5 -114.5l-188 -262q-52 -76 -69.5 -120.5t-22 -50t-15.5 -5.5l-156 23q-13 1 -13 15t10 54q24 92 142 263l76 113 q135 202 135 314q0 101 -100 134q-31 11 -71 11t-75.5 -5t-67.5 -14q-51 -14 -126 -53l-4 -128q-1 -13 -3.5 -19t-17.5 -7zM640.5 135q5.5 -30 5.5 -56t-17.5 -47.5t-46.5 -35.5q-60 -29 -116 -29t-77 17.5t-34 43.5q-25 50 -25 98.5t22 70.5t54 35q55 21 109.5 21t75 -17.5 t32.5 -44t17.5 -56.5z" />
<glyph unicode="@" horiz-adv-x="2042" d="M1250 140q-116 -166 -313 -166q-253 0 -323 277q-23 89 -23 229.5t27.5 271t81.5 220.5q110 182 317 182q138 0 229 -82q-2 62 -7 102q0 21 24 21l170 -31q18 -3 18 -23q-19 -185 -29 -302l-18 -189q-21 -238 -21 -348q0 -55 32.5 -85t80 -30t89.5 43t73 124 q68 174 68 462q0 581 -626 581q-394 0 -585 -235.5t-191 -714.5q0 -377 166 -545q160 -162 528 -162t758 178q13 0 17 -3.5t6 -14.5l31 -180q0 -19 -20 -28q-316 -120 -606 -149q-111 -11 -266 -11t-307.5 51t-262.5 161q-230 230 -230 694q0 544 250 847q255 310 726 310 q571 0 734 -424q55 -143 55 -340.5t-28 -354t-81 -263.5q-110 -218 -312 -218q-155 0 -232 145zM873.5 210q31.5 -22 85.5 -22t94.5 25t69 66t46 93.5t27.5 107.5q18 93 18 187t-12 144t-36 81q-44 57 -123 57t-122.5 -32t-70.5 -93q-53 -116 -53 -353q0 -138 22.5 -188.5 t54 -72.5z" />
<glyph unicode="A" d="M56 2q-22 2 -22 32v167q0 16 6.5 22t23.5 7l92 -4l396 1284q6 19 24 21l227 8q18 -1 25 -23l432 -1283l91 3q28 -2 28 -32v-158q0 -17 -7 -22t-24 -5h-463q-18 0 -21 8t-3 22l20 146q2 17 8 22.5t22 5.5l114 3l-86 266l-495 10l-81 -290l121 12q12 0 16.5 -5t6.5 -18 l15 -152q-2 -17 -8.5 -23t-21.5 -7zM491 672h389l-210 643z" />
<glyph unicode="B" d="M953 795q315 -65 315 -362q0 -353 -336 -425q-110 -23 -214 -23t-181 3.5t-151 9.5q-249 20 -262 40q-5 8 -6 20l9 147q2 28 32 28t119 -12v1099q-80 -5 -114.5 -5t-36.5 28l-9 140q2 27 24 31q231 41 503 41q533 0 533 -419q0 -206 -130 -294q-42 -29 -95 -47zM502 195 q90 -5 168 -5t148.5 8.5t121.5 33.5q108 54 108 199q0 202 -214 229q-63 8 -151.5 8t-180.5 -9v-464zM771 1342q-55 9 -118 9t-151 -9v-487q29 -2 58 -2h59q164 0 243 51q93 59 93 207q0 201 -184 231z" />
<glyph unicode="C" d="M1173 1530q40 0 42 -39l-12 -436q0 -26 -22 -26l-168 -4q-19 0 -21 23l-21 257q-122 30 -225 30t-174 -30.5t-117 -98.5q-89 -132 -89 -441q0 -467 226 -559q74 -30 180 -30t224 38l-5 134q2 18 24 22l166 28q17 0 21 -23l40 -390q0 -16 -23 -18l-172 -15q-40 0 -42 39 l-2 42q-139 -74 -293.5 -74t-260 53t-176.5 156q-143 209 -143 608q0 396 160 588q146 176 417 176q170 0 286 -38z" />
<glyph unicode="D" d="M246 1313q-61 -4 -141 -12q-11 0 -14 5t-4 17l-14 186q1 12 6.5 15.5t17.5 5.5q99 2 172.5 4t128 3t93 1.5t67 1t50.5 0.5h42q298 0 442 -156q167 -180 167 -598q0 -395 -169 -606q-161 -199 -445 -199q-298 0 -544 25q-17 1 -18 24l12 177q2 16 16 19l109 -8zM453 205 q84 -6 122 -6h64q203 0 298.5 141t95.5 421q0 464 -223 548q-72 27 -130 27q-100 0 -215 -7z" />
<glyph unicode="E" d="M1272 -41q-4 -23 -21 -23l-188 4q-22 0 -22 26l-2 61l-893 -25q-23 0 -24 24l6 184q0 15 16 19l125 -17l-8 1089l-126 -11q-18 0 -18 22l11 182q2 19 24 21l999 38q30 -2 30 -27l-20 -365q0 -23 -16 -23l-168 6q-14 1 -17 7t-4 19l-6 172l-473 -25l7 -466l491 31 q25 0 27 -23l7 -168q-2 -23 -21 -23l-502 -7l7 -457l540 18l-4 131q2 37 42 39l162 -5q23 -2 23 -18z" />
<glyph unicode="F" horiz-adv-x="1195" d="M123 1311q-14 3 -16 19l14 184q1 24 18 24l732 -17l-1 53q0 23 22 26l158 14q17 0 21 -23l54 -420q0 -16 -23 -18l-182 -15q-40 0 -42 39l-3 138l-393 11l-7 -476l516 2q18 0 18 -19l-7 -162q-2 -23 -27 -23l-503 13l-6 -448l258 15q21 0 23 -22l11 -176q-1 -13 -4 -18 t-14 -5l-599 -12q-12 2 -17.5 5.5t-6.5 15.5l-11 182q0 20 18 22l126 -6l8 1108z" />
<glyph unicode="G" d="M729 596q-23 4 -23 21l4 178q0 20 26 22l487 32q37 -2 39 -42l-5 -172q0 -11 -6 -17t-12 -6l-52 -2l18 -595q-2 -28 -26 -28q-56 0 -189 69q-135 -78 -291.5 -78t-266.5 46.5t-184 145.5q-152 200 -152 620q0 586 330 710q105 40 235 40q186 0 305 -97l20 121q3 25 22 26 l157 14q24 0 24 -23l11 -366q0 -19 -20 -22l-190 -26q-61 81 -108 110q-84 52 -173 52t-162.5 -25t-125.5 -87q-109 -130 -109 -431q0 -485 244 -567q77 -26 188 -26t233 44l-5 366z" />
<glyph unicode="H" horiz-adv-x="1538" d="M664 240q16 0 16 -19l-13 -188q-2 -20 -24 -20l-464 -7q-17 0 -18 24l2 177q0 15 16 19l107 -3v1081l-133 -1q-11 0 -14 5t-4 17l-9 176q1 12 6.5 15.5t17.5 5.5l499 -8q18 -2 18 -23l-4 -176q0 -22 -23 -22l-131 7l-1 -442l542 7v457l-137 4q-11 0 -14 5t-4 17l6 166 q2 21 24 21l467 2q11 -1 14 -5.5t4 -17.5l13 -179q0 -22 -23 -22l-127 3l-3 -1111l154 5q16 0 16 -19l-13 -178q-2 -20 -24 -20l-474 13q-17 0 -18 24l2 167q0 15 16 19l121 -9v456l-543 -4l-1 -430z" />
<glyph unicode="I" horiz-adv-x="682" d="M585 210q16 0 16 -19l-3 -178q0 -20 -24 -20l-464 13q-17 0 -18 24l-8 177q2 16 16 19l139 -10l-8 1089l-137 1q-18 0 -18 22l16 176q1 12 6.5 15.5t17.5 5.5l467 -18q11 -1 14 -5.5t4 -17.5l-7 -159q-2 -22 -23 -22h-117l-3 -1093h134z" />
<glyph unicode="J" horiz-adv-x="852" d="M679 1315q43 -485 43 -958q0 -246 -89 -347q-86 -99 -291 -99q-17 0 -33 2l-33 4l8 -54q0 -16 -23 -18l-153 -15q-38 0 -42 39l-28 437q2 23 22 26l139 14q17 0 21 -23l31 -228q27 -8 69.5 -8t80.5 18t61 57q44 76 44 254q0 248 -18 503l-28 391l-207 -12q-16 0 -16 19 l-7 188q1 12 6 15.5t18 4.5l562 17q16 0 18 -24l8 -187q-2 -16 -16 -19z" />
<glyph unicode="K" d="M854 1316q-18 0 -18 22l16 186q1 17 24 21l417 -8q18 -2 18 -23l3 -179q0 -22 -23 -22l-111 1l-410 -582l374 -510l172 -12q33 -2 33 -34l1 -147q0 -43 -37 -45l-262 -7q-22 2 -35 20l-414 633l-121 -4v-406h104q16 0 16 -19l7 -188q-2 -20 -24 -20l-464 3q-17 0 -18 24 l-8 197q2 16 16 19l147 -9v1093l-143 -14q-11 0 -14 5t-4 17l-14 196q2 21 24 21l477 2q11 -1 14 -5.5t4 -17.5l-17 -189q-3 -22 -23 -22l-80 5v-520l126 8l339 509z" />
<glyph unicode="L" horiz-adv-x="1195" d="M969 -43q-17 0 -21 23l-5 48l-843 -35q-17 0 -18 24l16 174q2 16 16 19l138 -6l9 1100l-136 -13q-11 0 -14 5t-4 17l-9 180q1 23 24 23l485 8q19 -2 22 -23l19 -176q0 -14 -6.5 -17.5t-16.5 -4.5l-146 5l-3 -1099l446 23l-18 175q0 19 23 21l162 15q40 0 42 -39l18 -397 q-2 -23 -22 -26z" />
<glyph unicode="M" horiz-adv-x="1872" d="M1369 3q-22 0 -24 20l7 168q2 19 16 19h69l-60 1127l-319 -1327q-4 -20 -24 -20l-212 -3q-18 0 -23 22l-331 1282l-29 -1075l92 4q13 0 16 -19l17 -178q-2 -20 -24 -20l-434 -7q-17 0 -18 24l12 187q2 16 16 19l132 -12l59 1081l-124 -12q-20 0 -21 22l-9 186q2 19 24 21 l410 22q29 0 37 -28l318 -1268l316 1259q6 28 37 28l393 -3q12 -2 17.5 -5.5t6.5 -15.5l11 -196q-2 -12 -4.5 -17t-13.5 -5l-123 1l68 -1071l133 3q14 -3 16 -19l-18 -167q-4 -24 -18 -24z" />
<glyph unicode="N" horiz-adv-x="1536" d="M1472 1325q0 -22 -23 -22l-127 3l-2 -1267q0 -27 -24 -29l-242 -13q-13 0 -23 22l-589 1305l24 -1094l157 10q14 0 16 -19l17 -198q-2 -20 -24 -20l-484 3q-14 0 -18 24l-18 167q2 19 16 19l157 4v1081l-183 -8q-11 1 -13.5 5.5t-4.5 16.5l11 176q2 19 24 21l440 22 q26 -2 37 -28l567 -1274l-26 1079l-155 5q-11 0 -14 5t-4 17l6 166q2 21 24 21l447 2q11 -1 14 -5.5t4 -17.5z" />
<glyph unicode="O" d="M1260 751q0 -761 -561 -761q-293 0 -443.5 192.5t-150.5 568.5q0 579 317 737q106 52 248.5 52t252 -44t184.5 -139q153 -194 153 -606zM1034 764q0 155 -24 265t-70.5 173t-113.5 86.5t-158 23.5t-157 -34t-107 -103q-75 -129 -75 -420q0 -297 94 -423q87 -115 283 -115 q179 0 256 127q72 122 72 420z" />
<glyph unicode="P" d="M737 218q16 0 16 -19l-13 -166q-2 -20 -24 -20l-574 -7q-18 0 -18 24l2 175q0 15 16 19l157 -16v1120l-156 -13q-10 0 -17.5 8t-7.5 20l11 140q2 27 28 31.5t68.5 10t92 10t104 8.5t108.5 7q117 5 228 5t218.5 -27t179.5 -84q143 -116 143 -366q0 -356 -333 -426 q-101 -22 -219 -22t-234 10v-435zM513 822q97 -9 190 -9t156.5 10.5t109.5 40.5q97 62 97 216q0 274 -302 274q-114 0 -251 -9v-523z" />
<glyph unicode="Q" d="M227.5 205.5q-117.5 196.5 -117.5 578t133 584t419 202.5q293 0 439 -188q156 -200 156 -599.5t-121.5 -600.5t-382.5 -220q30 -72 80.5 -98.5t105.5 -26.5q89 0 158.5 13.5t83.5 13.5t16 -17l11 -167q-2 -12 -6.5 -15.5t-39.5 -12.5q-122 -33 -224.5 -33t-160 24 t-95.5 69q-64 74 -104 258q-233 39 -350.5 235.5zM1018.5 494q16.5 110 16.5 272.5t-26 277.5t-74 182q-86 118 -271 118q-188 0 -264 -138q-72 -130 -72 -440q0 -474 214 -570q72 -32 165 -32t155.5 36.5t101 110t55 183.5z" />
<glyph unicode="R" d="M622 13q-2 -20 -24 -20l-504 3q-17 0 -18 24l22 197q2 16 16 19l127 -9v1080q-74 -6 -104 -6t-37.5 7.5t-9.5 20.5l-20 164q2 27 24 31q300 31 593 31q409 0 509 -261q35 -89 35 -198.5t-25.5 -183t-71.5 -126.5q-92 -106 -251 -137l262 -414l177 15q33 -2 33 -34l1 -157 q0 -53 -37 -55l-284 -7q-20 0 -31 20l-338 621q-114 2 -205 11l3 -429h135q16 0 16 -19zM725 1345q-80 0 -270 -19l4 -498q87 -5 181 -5t155.5 13.5t106.5 43.5q97 65 97 201.5t-68.5 200t-205.5 63.5z" />
<glyph unicode="S" horiz-adv-x="1196" d="M878 32q-84 -28 -212 -28t-304 32l7 -80q0 -18 -23 -18l-172 -5q-38 2 -42 39l-38 387q0 20 24 22l196 18q19 0 21 -23l13 -162q144 -15 287 -15t200 48.5t57 146.5q0 88 -67 144q-35 30 -91 59l-274 133q-145 69 -199 110.5t-83 81.5q-58 81 -58 190.5t34 187t96 133.5 q130 119 330 119q142 0 308 -45q128 39 160.5 39t34.5 -27l-20 -415q-2 -23 -16 -23l-168 6q-14 1 -17 7t-4 19l-8 220q-119 28 -198 28q-199 0 -271 -111q-26 -40 -26 -94.5t26 -90.5t75 -67.5t120 -63.5l164 -75q231 -107 308 -191q84 -91 84 -255q0 -295 -254 -381z" />
<glyph unicode="T" d="M113 1049q-17 2 -21 24l9 469q0 18 23 18l164 -20q20 0 20 -23v-26l767 8l184 20q22 0 22 -22l-30 -443q-2 -16 -19 -16l-171 8q-12 2 -15.5 6.5t-4.5 17.5l3 247l-258 -4l17 -1088l193 11q16 -4 16 -19l2 -177q-2 -24 -18 -24l-594 -13q-22 0 -24 20l7 198q0 19 16 19 l178 -11l-18 1078l-252 -14l1 -212q-1 -19 -24 -20z" />
<glyph unicode="U" horiz-adv-x="1538" d="M1415 200q16 0 16 -19l-13 -178q-2 -20 -24 -20l-343 -7q-23 0 -23 24l1 227q-86 -102 -194 -158.5t-213.5 -56.5t-178.5 34.5t-123 101.5q-101 135 -101 390q0 270 15 470l24 298l-164 -13q-11 0 -13.5 4.5t-4.5 17.5l11 186q2 19 24 21l432 15q18 -2 18 -23l-14 -176 q-3 -22 -23 -22h-48q-6 -95 -10 -170l-8 -134q-11 -197 -11 -390q0 -376 224 -376q141 0 283 88q43 26 76 56l6 890l-107 -4q-14 0 -14 22l6 186q2 21 24 21l448 12q18 -2 18 -23l3 -179q0 -22 -23 -22l-140 -5v-1104z" />
<glyph unicode="V" horiz-adv-x="1364" d="M1324 1529q22 0 22 -32l-10 -157q-1 -16 -7 -22t-23 -7l-83 4l-413 -1294q-6 -19 -24 -21l-187 -8q-18 1 -25 23l-445 1275l-65 -5q-28 0 -28 32l10 168q0 17 7 22t24 5l443 10q22 -3 24 -30l10 -166q-2 -17 -8 -22.5t-22 -5.5l-146 1l322 -1049l303 1070l-127 -3 q-12 0 -16.5 5t-6.5 18l5 162q2 28 30 30z" />
<glyph unicode="W" horiz-adv-x="1878" d="M83 1295q-28 0 -28 32l10 168q1 17 7.5 21.5t23.5 5.5l463 20q17 -1 20 -8.5t4 -21.5l10 -166q-2 -17 -8 -22.5t-22 -5.5l-161 2l226 -997l240 1168q3 20 24 21l151 11q21 -2 25 -23l263 -1181l199 1004l-154 4q-12 0 -16.5 5t-6.5 18l5 162q2 28 30 30l446 -13 q22 -2 22 -32l-10 -157q-1 -16 -7 -22t-23 -7l-96 4l-312 -1294q-4 -19 -24 -21l-157 -8q-21 2 -25 23l-247 1065l-233 -1059q-4 -19 -24 -21l-167 -8q-18 1 -25 23l-329 1289z" />
<glyph unicode="X" d="M103 5q-21 0 -21 21l10 187q2 20 23 20l110 -17l402 546l-362 553l-130 -12q-21 0 -21 24v179q0 20 23 20l491 11q14 0 16 -5.5t2 -16.5l5 -180q-2 -13 -6 -17t-16 -4l-91 5l187 -383l196 372l-69 4q-16 1 -17 17l-11 175q3 20 22 22h437q14 -2 16 -24l-10 -193 q-2 -21 -22 -21l-120 7l-342 -505l381 -570l134 2q15 0 15 -24l-19 -166q-2 -11 -6 -15t-17 -4l-446 -6q-19 2 -20 18l-12 169q2 21 23 21l80 1l-210 419l-246 -420l103 8q16 0 16 -24l-2 -175q-2 -13 -6.5 -16.5t-15.5 -4.5z" />
<glyph unicode="Y" d="M962 215q18 0 18 -22l-16 -176q-1 -12 -6.5 -15.5t-17.5 -5.5l-532 15q-11 0 -14 5t-4 18l7 169q2 22 23 22l157 -3l3 337l-428 748l-86 -6q-28 0 -28 32l-10 170q0 17 7 22t24 5h483q18 0 21 -8t3 -22l-10 -165q-1 -17 -7.5 -22t-22.5 -6l-110 4l298 -599l288 591 l-127 -3q-12 0 -16.5 5t-6.5 18l-15 167q2 30 30 30l456 7q22 -2 22 -32l-10 -162q-1 -16 -7 -22.5t-23 -6.5h-87l-415 -746l-7 -340z" />
<glyph unicode="Z" horiz-adv-x="1196" d="M938 -93q-22 2 -24 28l3 77l-718 11q-55 2 -60 53l-16 155l751 1111l-509 -17l-19 -222q-2 -22 -24 -22l-167 -3q-18 3 -20 22l13 399q1 14 5 19.5t17 7.5l187 -23l700 39q37 0 44 -47l26 -198l-745 -1090l542 -12l5 141q2 26 21 26l178 -4q16 0 16 -23l-12 -395 q0 -19 -20 -21z" />
<glyph unicode="[" horiz-adv-x="682" d="M192 -194q-19 2 -19 16l20 1789q0 16 19 16l374 9q14 0 16 -19l-10 -166q-1 -19 -19 -19l-188 11l8 -603l-27 -839l212 20q14 0 14 -24l-20 -151q-3 -17 -21 -19z" />
<glyph unicode="\" horiz-adv-x="682" d="M158 1736q3 1 7 1q17 0 20 -17l496 -2115q1 -2 1 -7q0 -17 -16 -21l-126 -31q-4 -1 -10 -1q-15 0 -18 14l-501 2117q-2 8 -2 11q0 12 15 17z" />
<glyph unicode="]" horiz-adv-x="682" d="M490 1636q19 -2 19 -16l-20 -1789q0 -16 -19 -16l-374 -9q-14 0 -16 19l10 166q1 19 19 19l188 -11l-8 603l27 839l-212 -20q-14 0 -14 24l20 151q3 17 21 19z" />
<glyph unicode="^" horiz-adv-x="1194" d="M510 1410q9 21 35 25l96 -12q25 -5 31 -17l457 -985q4 -8 4 -19.5t-8 -14.5l-166 -48q-10 -4 -17 -4t-11 10l-340 843l-331 -844q-4 -9 -13.5 -9t-19.5 4l-159 63q-7 3 -7 9t5 16z" />
<glyph unicode="_" horiz-adv-x="1659" d="M-24 -355q-16 0 -16 19l8 140q2 20 24 20h1683q14 0 14 -24l-10 -136q-2 -19 -16 -19h-1687z" />
<glyph unicode="`" horiz-adv-x="900" d="M253 1799q9 11 21.5 11t21.5 -11l383 -420q5 -7 5 -15.5t-8 -18.5l-67 -68q-6 -6 -13 -6t-11 4l-462 340q-8 7 -8 17t5 17z" />
<glyph unicode="a" horiz-adv-x="1196" d="M722 1151q296 0 296 -368q0 -87 -4 -225l-7 -196q-2 -59 -5 -112l-4 -95l60 5q33 2 75 6q21 0 21 -19l-18 -158q-3 -18 -22 -20l-289 -18q-14 0 -14 22l14 117q-167 -129 -363 -129q-153 0 -252 89q-105 94 -105 253q0 207 143 291q126 74 415 74q60 0 128 -3q1 26 1 48 v38q0 195 -171 195q-89 0 -220 -54l4 -38q2 -19 2 -30q0 -22 -22 -22l-169 -3q-18 3 -20 22l-17 286q0 24 22 27l167 22q21 0 21 -22v-83q179 100 333 100zM532 150q115 0 253 66q2 66 2.5 145.5t2.5 157.5q-263 0 -365 -45q-94 -42 -94 -140q0 -184 201 -184z" />
<glyph unicode="b" horiz-adv-x="1195" d="M379 1595q18 0 18 -23l-16 -483l59 21q122 41 229.5 41t189 -36t131.5 -109q90 -132 90 -432t-101 -441.5t-309 -141.5q-149 0 -279 47q-122 -57 -177 -57q-33 0 -33 38v1350l-146 8q-19 1 -20 19l-12 155q4 18 23 20zM745 916q-46 19 -141.5 19t-225.5 -40l12 -677 q121 -26 206 -26t132.5 17.5t77.5 60.5q58 83 58 298q0 211 -46 286q-27 43 -73 62z" />
<glyph unicode="c" horiz-adv-x="1024" d="M327 1126.5q65 26.5 159.5 26.5t210.5 -29l188 35q18 -3 20 -22l17 -356q-2 -24 -22 -27l-167 -22q-21 0 -21 22v169q-64 15 -137 15t-128.5 -24t-86.5 -72q-54 -84 -54 -289q0 -308 126 -351q40 -14 92 -14q75 0 172 19l4 69q2 24 21 26l158 -6q14 -2 16 -23l18 -313 q0 -21 -20 -21h-192q-15 0 -17 19l3 57q-362 -71 -497 101q-96 124 -96 401q0 185 16 276t41 153t68 108t108 72.5z" />
<glyph unicode="d" horiz-adv-x="1194" d="M658 1415q-20 0 -20 24l10 160q2 20 23 20l343 -19q18 -2 18 -23v-1404l105 11q20 0 20 -19l-18 -155q-3 -17 -23 -20l-248 -40q-19 0 -19 22l8 99q-168 -69 -300.5 -69t-213.5 36t-131 108q-90 133 -90 440q0 444 229 536q77 31 209 31t279 -56l-13 315zM845 894 q-143 35 -233.5 35t-138 -14t-77.5 -53q-58 -75 -58 -287q0 -211 46 -286q50 -81 191 -81q116 0 249 39z" />
<glyph unicode="e" horiz-adv-x="1196" d="M847 6q-128 -32 -325 -32q-201 0 -292 124q-95 129 -95 409q0 294 81 439q92 160 294 195q70 12 156 12q185 0 269 -91t84 -278q0 -122 -43 -188q-14 -21 -38 -47.5t-88.5 -47t-147.5 -31.5q-129 -16 -355 -16q13 -169 83 -230q53 -48 184 -48q123 0 245 21l3 52 q1 12 5.5 16t16.5 7l144 32q22 0 25 -19q3 -17 6 -66.5t6 -85.5t5 -69l4 -56q1 -25 1 -42q0 -30 -44 -35l-166 -20q-22 0 -22 22zM785.5 714.5q5.5 30.5 5.5 72t-7.5 73.5t-25.5 55q-39 48 -127 48q-170 0 -227 -86q-54 -80 -60 -276q349 5 410 60q26 23 31.5 53.5z" />
<glyph unicode="f" horiz-adv-x="854" d="M449 1614q67 20 131.5 20t102.5 -2l1 27q0 17 19 17h157q18 0 21 -23l-16 -295q-2 -20 -15 -20l-148 -4q-25 1 -26 23l3 106q-38 4 -77 4t-69 -11t-50 -36q-40 -48 -40 -143t2 -179l295 4q14 -1 17.5 -6.5t4.5 -17.5l-10 -153q-2 -19 -22 -21l-272 7v-705l184 4 q16 0 16 -19l-18 -171q-2 -12 -6.5 -15.5t-17.5 -4.5l-483 6q-14 0 -14 24l10 151q2 19 16 19l100 2l9 707l-176 -11q-17 1 -20 17l-21 155q0 22 22 22l189 3q-9 87 -9 191.5t25 165.5t71.5 101.5t113.5 60.5z" />
<glyph unicode="g" horiz-adv-x="1196" d="M1096 1141q27 0 29 -36l-13 -157q-2 -21 -23 -21l-180 35q107 -114 107 -206t-24.5 -166.5t-79.5 -125.5q-111 -104 -349 -104q-94 0 -170 20q-24 -55 -24 -90t5 -50t20 -24q27 -17 82.5 -17t104.5 3q127 6 203.5 6t138 -25t99.5 -67q74 -82 74 -217q0 -165 -131 -269 q-144 -115 -404 -115q-217 0 -318 55q-113 62 -113 191t115 279q-80 45 -80 145.5t116 240.5q-162 94 -162 323q0 201 133 307q119 95 327 95q108 0 198 -3q210 -7 319 -7zM802 677q11 40 11 86t-13.5 85.5t-41.5 67.5q-60 60 -173 60q-180 0 -235 -122q-19 -44 -19 -107 q0 -205 254 -205q178 0 217 135zM713 10l-274 -8q-40 0 -71 3q-33 -81 -33 -159t61 -108.5t165 -30.5t161 12.5t96 34.5q78 46 78 120q0 63 -26 88q-49 48 -157 48z" />
<glyph unicode="h" horiz-adv-x="1370" d="M917 704q0 222 -159 222q-90 0 -207 -47q-35 -14 -64 -30l-4 -659l121 -12q16 -2 16 -18l-18 -129q-3 -21 -23 -21l-422 -7q-15 0 -15 24l19 176q2 11 6 15t17 4l76 -8v832l20 367l-143 -11q-22 0 -22 24v153q0 18 24 20l339 14q21 0 23 -24l-24 -554q180 117 360 117 q243 0 285 -262q13 -82 13 -239.5t-21 -446.5l120 6q21 -2 21 -21v-147q0 -20 -23 -20l-430 -10q-16 0 -16 24l22 135q2 13 6.5 16.5t15.5 4.5l84 3q1 60 2 133v145q1 71 1 133v98z" />
<glyph unicode="i" horiz-adv-x="683" d="M150 -14q-14 0 -14 24v151q0 19 16 19h120l8 699l-162 17q-18 2 -18 22l22 165q4 18 24 21l321 33q11 0 14 -5.5t4 -17.5l13 -182l-3 -752h114q16 0 16 -19l-18 -131q-2 -12 -6.5 -15.5t-17.5 -4.5zM410 1342q-32 -5 -76.5 -5t-68 5t-37.5 18q-23 24 -23 85t6.5 87.5 t24.5 41.5q31 26 101.5 26t94.5 -3.5t38 -16.5q24 -21 24 -84t-7 -91t-26 -43t-51 -20z" />
<glyph unicode="j" horiz-adv-x="682" d="M84 -241q218 0 218 166v149l-2 166q0 85 -1 174q-4 356 -6 480l-174 -8q-16 2 -18 22l-15 181q1 25 25 26l364 22q17 -2 21 -23l-7 -189q3 -50 5 -115q22 -550 22 -723.5t-15 -263t-59 -149.5q-87 -122 -328 -122q-19 0 -23 23l-30 164q0 20 23 20zM504 1511 q0 -177 -112 -177q-187 0 -187 96q0 173 112 173q187 0 187 -92z" />
<glyph unicode="k" horiz-adv-x="1195" d="M73 161q2 19 16 19h129v1197l-143 19q-11 2 -14.5 6t-3.5 16l-4 136q0 18 24 21l307 32q19 0 22 -24l19 -178l-13 -756l128 5l241 297l-122 -14q-16 0 -16 19l8 161q2 20 24 20l453 4q14 0 14 -24l-10 -151q-2 -19 -16 -19l-101 9l-313 -373l288 -386l165 -6q19 0 21 -24 l10 -137q0 -12 -5.5 -15.5t-17.5 -4.5l-305 -12q-13 0 -27 22l-303 463l-119 -9l-5 -285l102 11q16 0 16 -19l-8 -151q-1 -12 -6 -15.5t-18 -4.5l-393 -14q-15 0 -17 25z" />
<glyph unicode="l" horiz-adv-x="683" d="M126 1356q-18 0 -18 22l6 196q0 12 6 15.5t18 5.5l325 -8q11 0 14 -5.5t4 -17.5l-7 -159l15 -1196l136 11q14 0 16 -19l12 -181q-2 -12 -6.5 -15.5t-17.5 -4.5l-543 6q-14 0 -14 24v171q0 19 16 19l189 -12v1160z" />
<glyph unicode="m" horiz-adv-x="1875" d="M1030 1000q166 151 326 151q235 0 281 -225q15 -74 15 -143.5t-1.5 -138.5t-4.5 -148l-6 -159q-3 -80 -6 -145l145 9q21 0 21 -24l-20 -167q0 -12 -5.5 -15.5t-17.5 -4.5l-299 8q-23 0 -23 22q3 110 3 200l2 158v126v175q0 130 -20.5 169t-49.5 53.5t-84 14.5 q-96 0 -215 -64q7 -49 7 -107.5t-1 -128t-2.5 -146.5l-3 -154t-3.5 -138l131 3q21 0 21 -24l-10 -137q-1 -12 -6 -15.5t-17 -4.5l-371 8q-21 0 -21 22l-5 140q2 21 22 21l62 -5q2 138 2 248v245q0 128 -22.5 169t-52.5 56.5t-79 15.5q-120 0 -255 -101v-622l105 5 q17 0 17 -17l11 -155q-4 -22 -22 -22l-410 10q-23 0 -23 24l-10 153q4 21 22 21h97v658h-153q-20 0 -20 24l-2 191q4 18 24 21l252 -9q18 -2 23 -23l29 -133q191 196 373.5 196t249.5 -141z" />
<glyph unicode="n" horiz-adv-x="1370" d="M792 903q-127 0 -290 -104l12 -599l109 12q17 0 17 -17l-19 -155q-4 -22 -22 -22h-417q-16 0 -16 24l20 153q4 21 22 21h85v661l-153 4q-20 0 -20 24l18 173q2 17 24 21l277 41q18 0 18 -23v-173q206 206 405 206q228 0 272 -217q14 -72 14 -134.5t-1 -105t-3 -93.5 l-2 -104l-4 -110l-4 -106q-2 -51 -4 -94l115 5q21 0 21 -24v-147q0 -12 -5.5 -15.5t-17.5 -4.5l-290 -22q-22 0 -22 22q3 109 3 205l2 167v133v183q0 124 -21 158.5t-49 45.5t-74 11z" />
<glyph unicode="o" horiz-adv-x="1194" d="M123 562q0 171 28.5 284.5t84.5 181.5q104 123 339 123q164 0 239.5 -33t119 -75t74.5 -108q62 -135 62 -339.5t-28.5 -315.5t-85.5 -178q-106 -122 -343 -122q-248 0 -361 120q-129 136 -129 462zM849 363q15 72 15 176t-11 168t-30.5 106.5t-46.5 67t-59 36.5 q-48 18 -127 18t-126 -12t-78 -51q-59 -76 -59 -306q0 -327 176 -369q54 -13 117 -13t108.5 13.5t75.5 53.5t45 112z" />
<glyph unicode="p" horiz-adv-x="1194" d="M120 -458q-22 0 -22 24l12 165q1 13 6 16.5t16 4.5l69 -9v1178l-164 -14q-20 0 -20 19l-2 205q3 17 23 20l278 -10q18 0 19 -22l6 -65q177 96 312.5 96t217 -36t131.5 -109q90 -133 90 -440q0 -433 -229 -531q-77 -33 -204.5 -33t-264.5 50l14 -318l188 7q21 -2 21 -21 l-10 -147q-2 -20 -23 -20zM387 242q125 -30 215.5 -30t138 14t77.5 53q58 75 58 287q0 210 -46 286q-50 82 -191 82q-96 0 -230 -43z" />
<glyph unicode="q" horiz-adv-x="1194" d="M641 -451q-18 0 -22 22l11 155q2 15 17 17l158 -6l3 322q-138 -57 -255 -57t-198 31t-133 94q-99 122 -99 382q0 326 97 479q101 162 325 162q110 0 250 -62l201 42q20 0 20 -24l9 -1383l87 4q22 -2 22 -21l-10 -133q-2 -24 -16 -24h-467zM465.5 220q45.5 -17 134.5 -17 t209 34l-4 663q-103 29 -191 29t-138 -21t-80 -69q-56 -90 -56 -317q0 -175 52 -246q28 -39 73.5 -56z" />
<glyph unicode="r" horiz-adv-x="1024" d="M136 -12q-16 0 -16 24v173q0 21 22 21h117v677l-143 -12q-16 1 -20 24l-22 213q3 19 24 21l307 21q18 0 18 -23l-15 -165q113 125 332 166q66 13 127 13t63 -32l12 -366q0 -18 -15 -20l-188 -14q-12 0 -19 4t-7 21v177q-130 -11 -229 -52l-11 -660l174 13q16 0 17 -17 l11 -165q-3 -20 -22 -22z" />
<glyph unicode="s" horiz-adv-x="1024" d="M873 853q-270 92 -381 92q-120 0 -162 -59q-17 -23 -17 -57t8 -59t29 -44q42 -40 162 -59t209.5 -41.5t144 -58t78 -89.5t23.5 -138.5t-25 -149.5t-71 -110q-93 -89 -258 -89q-113 0 -260 28l17 -83q0 -16 -23 -18l-172 -15q-38 0 -42 39l-28 297q0 18 24 22l156 28 q17 0 21 -23l12 -66q145 -23 239 -23t140 39.5t46 104.5q0 61 -49 87q-43 24 -168.5 43.5t-206.5 43t-133 62.5q-99 74 -99 251q0 154 93 246q99 97 277 97q105 0 242 -70l-19 79q0 24 21 26l198 16q16 0 16 -23l-22 -305q-1 -21 -20 -21z" />
<glyph unicode="t" horiz-adv-x="851" d="M608 6q-48 -3 -141.5 -3t-152 19t-96.5 61q-75 83 -75 267q0 119 3.5 227.5t6 193t5.5 167.5l-133 10q-20 1 -20 27l-1 115q0 22 22 22l140 3q2 52 4 99l8 151q3 53 8 60.5t18 9.5l186 22q21 0 21 -22q0 -32 -11 -145l-15 -169l392 11q22 0 22 -24v-163q0 -20 -22 -21 l-405 17q-17 -234 -17 -408t7.5 -225t27.5 -79q34 -48 145 -48q32 0 58 2q-3 35 -3 52.5t19 20.5l167 20q21 0 21 -23l4 -254q0 -17 -15 -20l-148 -24q-23 2 -26 19z" />
<glyph unicode="u" horiz-adv-x="1195" d="M996 1100q16 0 16 -24l10 -844l134 5q20 -1 20 -24l-18 -183q-1 -21 -24 -21h-247q-31 0 -41 38l-24 101q-165 -142 -376 -142q-295 0 -295 377q0 131 15 292l20 226l-128 -4q-21 0 -21 24l20 177q2 12 6.5 15.5t16.5 4.5l318 -8q14 0 14 -22q-5 -48 -10 -108 q-42 -451 -42 -557t40 -153.5t144 -47.5t265 102v575l-125 7q-14 2 -17 17l19 165q4 22 22 22z" />
<glyph unicode="v" horiz-adv-x="1195" d="M25 1100q0 20 23 20h454q14 0 16 -5.5t2 -16.5l-15 -160q-2 -13 -6 -17t-16 -4l-105 -3l255 -716l222 731l-122 -13q-16 0 -17 17l-11 165q3 20 22 22l427 20q16 -1 16 -24v-183q-4 -21 -22 -21h-99l-310 -895q-6 -19 -27 -21l-179 -8q-19 2 -28 24l-367 897l-92 -2 q-21 0 -21 24v169z" />
<glyph unicode="w" horiz-adv-x="1702" d="M17 1108q0 20 23 20l444 -10q14 0 16 -5.5t2 -16.5l-5 -170q-1 -13 -5.5 -17t-16.5 -4l-110 9l191 -701l190 895q3 19 27 21l190 9q24 -2 28 -21l220 -904l158 714l-124 -13q-16 0 -17 17l-11 165q3 20 22 22l417 20q16 -1 16 -24v-183q0 -21 -22 -21h-99l-234 -895 q-5 -21 -27 -21l-189 -3q-23 0 -28 21l-211 844l-195 -833q-5 -19 -27 -21l-179 -8q-22 2 -28 21l-291 899l-94 -9q-21 0 -21 24z" />
<glyph unicode="x" horiz-adv-x="1196" d="M96 15q-21 0 -21 21v147q0 20 23 20l98 1l317 347l-328 384l-104 -2q-21 0 -21 24l10 159q0 20 23 20l461 -9q14 0 16 -5.5t2 -16.5l5 -140q-2 -13 -6 -17t-16 -4l-122 -3l181 -268l192 252l-78 -3q-16 0 -17 17l9 175q2 20 22 22l397 -10q16 0 16 -24l-10 -143 q-2 -19 -22 -21l-111 -5l-305 -354l327 -368l129 11q15 0 15 -24l-19 -176q-2 -11 -6 -14.5t-17 -4.5l-430 14q-16 0 -16 21l18 126q2 13 7 16.5t16 4.5l67 6l-194 262l-193 -246l71 1q16 0 16 -24l4 -160q-2 -13 -6.5 -16.5t-15.5 -4.5z" />
<glyph unicode="y" horiz-adv-x="1197" d="M16 1100q0 20 23 20l454 10q18 0 18 -22l5 -170q-2 -13 -6 -17t-16 -4l-131 -3l260 -735l236 740l-137 -13q-16 0 -17 17l9 185q1 22 22 22l437 10q16 -1 16 -24l-10 -173q-2 -21 -22 -21l-88 8l-482 -1360q-8 -24 -24 -24l-198 54q-22 3 -22 20q0 7 4 14l219 419l-86 -3 q-13 0 -22 18l-336 841l-95 -2q-21 0 -21 24z" />
<glyph unicode="z" horiz-adv-x="1196" d="M872 306q2 24 21 26l178 -14q16 -1 16 -23l-12 -335q-1 -21 -20 -21l-144 8q-22 2 -24 28l-2 41l-661 -13q-28 2 -42.5 13.5t-17.5 39.5l-16 145l662 749l-458 2l-21 -172q-3 -22 -24 -22l-147 17q-18 3 -20 22l13 339q1 14 5 19.5t17 7.5l177 -23l20 -26l605 28 q22 1 28.5 -13t9.5 -34l26 -178l-636 -728l471 24z" />
<glyph unicode="{" horiz-adv-x="683" d="M71 850q162 0 162 103q0 48 -2 86l-4 76q-6 114 -6 184.5t7.5 136t39.5 110.5q64 93 271 93q81 0 85.5 -5.5t5.5 -16.5l-10 -161q-2 -24 -14 -24q-119 0 -147 -17.5t-36 -45t-8 -73.5l7 -338q0 -89 -57 -162q-19 -25 -45 -41q93 -47 93 -199q0 -78 -7 -146 q-13 -140 -13 -226.5t6.5 -109.5t21.5 -37q41 -38 163 -21q9 0 11 -5.5t3 -18.5l-10 -161q-2 -17 -20 -19q-50 -5 -111.5 -5t-118.5 24.5t-88 64.5q-53 67 -53 200q0 100 13 221q21 197 21 240t-11.5 62t-31.5 29q-35 18 -108 18q-18 0 -19 24l-10 141q0 19 20 19z" />
<glyph unicode="|" horiz-adv-x="851" d="M498 1636q20 -2 20 -24l4 -2118q0 -17 -17 -19l-148 -10q-19 0 -19 18l-10 2131q0 20 19 20z" />
<glyph unicode="}" horiz-adv-x="683" d="M612 596q-162 0 -162 -103q0 -48 2 -86l4 -76q6 -114 6 -184.5t-7.5 -136t-38.5 -110.5q-65 -93 -272 -93q-81 0 -85.5 5.5t-5.5 16.5l10 161q2 24 14 24q119 0 147 17.5t36 44.5t8 74l-7 338q0 90 57 162q19 24 45 41q-93 47 -93 199q0 78 6 146q14 140 14 226.5 t-6.5 109.5t-21.5 37q-27 25 -81 25t-72.5 -2t-20.5 3.5t-3 18.5l10 161q2 17 20 19q50 5 111.5 5t118.5 -24.5t89 -64.5q52 -67 52 -200q0 -100 -13 -221q-21 -197 -21 -240t11.5 -62t31.5 -29q33 -18 108 -18q17 0 19 -24l10 -141q0 -19 -20 -19z" />
<glyph unicode="~" horiz-adv-x="1194" d="M105 852q0 15 47.5 57t84.5 65q85 51 154.5 51t112 -18.5t84.5 -41.5q110 -59 181 -59q80 0 169 41l44 21q42 23 51 23q11 0 21 -19l33 -68q2 -5 2 -12q0 -9 -16 -26.5t-49 -45.5t-74 -54q-97 -59 -169 -59t-121 22l-97 46q-98 49 -166 49t-123 -24t-72 -32 q-35 -17 -43 -17q-14 0 -22 20z" />
<glyph unicode="&#xa1;" horiz-adv-x="512" d="M395 -409q-2 -20 -24 -24l-218 8q-21 2 -21 26l43 1079q1 20 18 20q15 0 33 -2l103 -11q24 -4 26 -29zM103.5 995q-5.5 30 -5.5 56t17.5 47.5t46.5 35.5q60 29 116 29t77 -17.5t34 -43.5q25 -50 25 -98.5t-22 -70.5t-54 -35q-55 -21 -109.5 -21t-75 17.5t-32.5 44 t-17.5 56.5z" />
<glyph unicode="&#xa2;" horiz-adv-x="1194" d="M854 1183q0 23 25 23l146 3q18 -3 20 -22l17 -356q-2 -24 -22 -27l-147 -22q-21 0 -21 22v109q-83 15 -177 22l-7 -370l7 -371q106 12 182 25l3 57q2 24 21 26l138 -6q14 -2 16 -23l18 -313q0 -21 -20 -21h-172q-15 0 -17 19l3 70q-75 -13 -169 -24l5 -225q0 -14 -19 -16 l-123 -10q-22 0 -22 21v219q-309 3 -381 289q-24 98 -24 203.5t6.5 178t23 138t45 122t73.5 100.5q94 92 253 109l-2 207q0 22 20 24l131 8q17 0 19 -16l-4 -223q94 -7 160 -19l-3 42q-2 19 -2 27zM354 688q-8 -62 -8 -151t13.5 -157.5t38.5 -109.5q45 -72 142 -81l1 399 l-4 338q-156 -42 -183 -238z" />
<glyph unicode="&#xa3;" horiz-adv-x="1364" d="M1081 1510q40 0 40 -39v-386q0 -24 -22 -26l-188 -14q-17 0 -21 23l27 230q-116 27 -191.5 27t-113 -14t-60.5 -43q-41 -52 -41 -169q0 -115 8 -271l250 31q18 0 22 -24l20 -161q-2 -19 -16 -19h-267q12 -253 15 -475l475 31l-24 162q0 22 23 26l162 35q38 0 42 -39 l28 -427q0 -23 -22 -26l-188 -4q-17 0 -21 23l2 47l-878 -35q-17 0 -18 24l16 174q2 16 16 19l184 -15v42q0 170 -27 438h-152q-16 0 -18 19l-2 141q0 20 21 20l134 -9q-16 174 -16 278.5t20.5 184t63.5 135.5q92 119 276 119q119 0 224 -44q34 -14 72 -32q4 16 19 19z" />
<glyph unicode="&#xa4;" horiz-adv-x="1194" d="M851 272q-99 -58 -255.5 -58t-246.5 51l-155 -163q-4 -5 -11 -5t-14 7l-108 105q-8 8 -8 14.5t11 17.5l160 163q-46 98 -46 255.5t44 257.5l-176 168q-5 4 -5 11t7 14l105 108q8 8 14.5 8t17.5 -11l161 -158q99 59 241.5 59t219.5 -30l158 166q4 5 11 5t14 -7l108 -105 q8 -8 8 -14.5t-11 -17.5l-143 -146q64 -104 64 -279.5t-43 -274.5l175 -166q5 -4 5 -11t-7 -14l-105 -108q-8 -8 -14.5 -8t-17.5 11zM810.5 533.5q14.5 47.5 14.5 125.5t-16.5 130t-46.5 80q-49 46 -139 46t-134.5 -12.5t-71.5 -42.5q-49 -56 -49 -206q0 -197 132 -237 q42 -13 97.5 -13t98.5 12.5t71.5 41t43 76z" />
<glyph unicode="&#xa5;" horiz-adv-x="1364" d="M209 476q0 24 14 24l358 -9l1 142l-341 -4q-13 1 -18 4.5t-6 15.5l-8 128q0 17 16 19l302 -3l-322 516l-82 -6q-26 0 -28 32l-10 168q0 17 7 22t24 5l413 10q22 -3 24 -30l10 -166q-2 -17 -8 -22.5t-22 -5.5l-68 1l250 -506l236 513l-71 -9q-12 0 -16.5 5t-6.5 18 l-15 162q2 28 30 30l386 17q22 -2 22 -32l-10 -157q-1 -16 -7 -22.5t-23 -6.5h-76l-285 -536l275 3q16 0 16 -19v-118q0 -24 -14 -24l-351 -1l-2 -142l335 14q13 -1 18 -4.5t6 -15.5l8 -127q0 -19 -16 -19h-354l-2 -138l134 3q21 0 23 -22l7 -169q-1 -13 -4 -18t-14 -5 l-492 -15q-12 2 -17.5 5.5t-6.5 15.5l-16 176q0 22 18 22l149 3l1 142h-355q-16 0 -16 19v117z" />
<glyph unicode="&#xa6;" horiz-adv-x="851" d="M325 1618q2 16 19 16l151 2q20 -2 20 -24l4 -836q0 -20 -24 -21l-141 -10q-19 2 -19 16zM344 -535q-19 2 -19 16l10 843q0 19 19 20l151 12q20 -2 20 -24l-6 -836q0 -19 -19 -21z" />
<glyph unicode="&#xa7;" horiz-adv-x="1190" d="M380 983q-153 108 -153 263q0 184 104 290q99 100 267 100q212 0 363 -46q16 -4 16 -29l-16 -185q-1 -21 -20 -21q-15 0 -54 18.5t-66 29t-57 19.5q-67 20 -118 20t-84 -6.5t-58 -23.5q-52 -38 -52 -129q0 -79 67 -137q33 -28 81 -55l108 -60q188 -101 259 -177 q72 -76 72 -196t-58 -211t-164 -125q91 -47 122 -85q52 -67 52 -157q0 -195 -102.5 -290t-319.5 -95q-177 0 -328 29q-38 6 -42 39l25 165q4 22 24 22q10 0 44 -10l72 -18q146 -38 211.5 -38t98.5 12.5t54 35.5q40 42 40 119q0 59 -75 113q-36 25 -86 50l-110 55 q-195 93 -250 145.5t-75 98t-20 105.5t16 116.5t46 103.5q61 99 166 145zM375 649q0 -128 213 -219q40 -5 71 -5t64 19.5t55 51.5q46 65 46 157q0 49 -26 77q-54 57 -172 116q-15 7 -28 11q-24 7 -55.5 7t-64.5 -17.5t-56 -46.5q-47 -61 -47 -151z" />
<glyph unicode="&#xa8;" horiz-adv-x="900" d="M275 1342q-32 -5 -74.5 -5t-66 6t-37.5 21q-27 27 -27 84.5t6.5 84t24.5 41.5q31 26 100 26t92.5 -5t38.5 -19q27 -25 27 -84t-7 -87t-26 -43t-51 -20zM746 1342q-32 -5 -74.5 -5t-66 6t-37.5 21q-27 27 -27 84.5t6.5 84t24.5 41.5q31 26 100 26t92.5 -5t37.5 -19 q28 -25 28 -84t-7 -87t-26 -43t-51 -20z" />
<glyph unicode="&#xa9;" horiz-adv-x="1703" d="M863 -94q-204 0 -349.5 54.5t-241.5 159.5q-192 208 -192 608q0 719 524 857q114 30 288.5 30t318.5 -54.5t235 -159.5q177 -203 177 -614q0 -428 -171 -643q-189 -238 -589 -238zM1082.5 1451q-92.5 25 -222 25t-231 -30t-172 -82.5t-114.5 -123.5t-69 -153 q-42 -138 -42 -317.5t28.5 -307t98.5 -220.5q149 -198 480 -198q494 0 604 400q35 127 35 261.5t-11.5 231.5t-38.5 179.5t-72.5 149t-113 113.5t-160 72zM829 1286q85 0 190 -35l111 18q27 0 29 -27l1 -309q0 -17 -15 -17l-115 -3q-13 0 -14 16l-14 180q-74 18 -145.5 18 t-116.5 -17.5t-72 -59.5q-49 -75 -49 -283q0 -215 59 -304q55 -83 188 -83q58 0 149 32v125q0 11 16 15l114 20q12 0 15 -16l17 -307q0 -12 -16 -12l-114 38q-119 -53 -227 -53q-373 0 -373 552q0 512 382 512z" />
<glyph unicode="&#xaa;" horiz-adv-x="1021" d="M311 1503q123 59 232 59q142 0 178 -126q13 -46 13 -94.5t-1 -94.5t-3 -99l-4 -105q-2 -53 -4 -97l90 8q14 0 14 -13l-12 -147q-1 -11 -15 -13l-206 -13q-10 0 -10 15l6 80q-93 -98 -222 -98q-180 0 -233 122q-19 42 -19 107.5t24.5 113.5t72.5 76q84 50 281 50h38 q17 0 40 -2v39q0 139 -109 139q-81 0 -145 -18l13 -62q0 -15 -15 -15l-135 -2q-13 0 -13 15l-12 234q1 18 15 18l133 5q14 0 14 -15zM278 1002q0 -90 127 -90q91 0 161 29l3 172q-170 0 -215.5 -16t-60.5 -38t-15 -57z" />
<glyph unicode="&#xab;" horiz-adv-x="1533" d="M115 506l-17 17q-8 9 -8 18l10 76q3 17 17 31l547 507q5 5 15.5 5t18.5 -8l68 -67q6 -6 6 -13t-4 -11l-415 -484l422 -473q6 -8 6 -15t-8 -15l-72 -70q-8 -8 -14.5 -8t-11.5 5zM755 506l-17 17q-8 9 -8 18l10 76q3 17 17 31l547 507q5 5 15.5 5t18.5 -8l68 -67 q6 -6 6 -13t-4 -11l-415 -484l422 -473q6 -8 6 -15t-8 -15l-72 -70q-8 -8 -14.5 -8t-11.5 5z" />
<glyph unicode="&#xac;" horiz-adv-x="1194" d="M181 568q-14 2 -14 24l10 161q2 19 16 19l814 11q19 -1 19 -21v-360q0 -16 -19 -18l-161 -12q-12 2 -15.5 6.5t-4.5 17.5l7 203z" />
<glyph unicode="&#xad;" horiz-adv-x="1194" d="M1000 772q16 -2 16 -19l-18 -151q-2 -12 -6.5 -15.5t-17.5 -4.5l-783 -4q-14 0 -14 24l10 141q2 19 16 19z" />
<glyph unicode="&#xae;" horiz-adv-x="1703" d="M863 -94q-204 0 -349.5 54.5t-241.5 159.5q-192 208 -192 608q0 719 524 857q114 30 288.5 30t318.5 -54.5t235 -159.5q177 -203 177 -614q0 -428 -171 -643q-189 -238 -589 -238zM1082.5 1451q-92.5 25 -222 25t-231 -30t-172 -82.5t-114.5 -123.5t-69 -153 q-42 -138 -42 -317.5t28.5 -307t98.5 -220.5q149 -198 480 -198q494 0 604 400q35 127 35 261.5t-11.5 231.5t-38.5 179.5t-72.5 149t-113 113.5t-160 72zM625 1105q-72 -8 -90 -8q-30 0 -30 19l17 122q5 18 16 21q157 21 272 21t186 -16.5t120 -53.5q98 -77 98 -254 q0 -222 -166 -282l103 -245l86 10q22 -2 22 -23l1 -108q0 -33 -25 -37l-174 -15q-17 0 -22 14l-138 384q-91 0 -137 6l-10 -256l79 4q11 0 11 -13l5 -128q-1 -12 -17 -12h-304q-10 0 -12 17l5 124q0 11 13 13l67 -6zM941 1110q-35 7 -67 7q-51 0 -91 -2l-14 -333 q19 -2 39 -2h48q99 0 144.5 39t45.5 134q0 134 -105 157z" />
<glyph unicode="&#xaf;" horiz-adv-x="900" d="M776 1611q16 -2 16 -19l-18 -171q-2 -12 -6.5 -16t-17.5 -4l-629 6q-14 0 -14 24l10 151q2 19 16 19z" />
<glyph unicode="&#xb0;" horiz-adv-x="851" d="M698.5 1475.5q17.5 -53.5 17.5 -119t-19.5 -121t-57.5 -95.5q-80 -83 -222 -83q-136 0 -212 87q-71 81 -71 207q0 203 162 273q55 24 130.5 24t129.5 -21.5t89.5 -59.5t53 -91.5zM486.5 1493.5q-23.5 12.5 -59.5 12.5t-62 -14t-41 -36q-27 -41 -27 -87.5t7 -73t22 -48.5 q35 -49 98 -49q95 0 124 100q9 29 9 59.5t-7.5 57t-23.5 46.5t-39.5 32.5z" />
<glyph unicode="&#xb1;" horiz-adv-x="1194" d="M165 763q2 19 16 19l322 4l-8 338q0 20 19 21l161 -8q20 -2 20 -24l-10 -325l326 4q18 -2 18 -19l-3 -161q0 -12 -5.5 -15.5t-18.5 -4.5l-319 10l6 -364q0 -14 -24 -16l-151 7q-19 2 -19 16l8 356l-314 -13q-12 0 -14 24zM998 162q16 -2 16 -19l-18 -151 q-2 -12 -6.5 -15.5t-17.5 -4.5l-783 -4q-14 0 -14 24l10 141q2 19 16 19z" />
<glyph unicode="&#xb2;" horiz-adv-x="851" d="M242 1662q17 0 19 -16l-2 -54q102 51 196 51q80 0 134 -56q56 -58 56 -152q0 -78 -62 -165q-34 -47 -91 -110l-143 -149l176 11v31q0 19 20 19l94 4q16 0 16 -15l-9 -238q-1 -11 -11 -11l-112 1q-11 0 -11 13l4 32l-359 -4q-8 0 -9 12l-12 135q0 7 52 63l114 124 q115 127 133 168.5t18 69.5q0 79 -86 79q-55 0 -111 -26l-1 -53q0 -12 -11 -13l-122 17q-8 1 -8 11l10 202q0 14 15 16z" />
<glyph unicode="&#xb3;" horiz-adv-x="851" d="M266 1594q99 42 170 42t105 -13.5t55 -36.5q42 -44 42 -124.5t-39.5 -131t-117.5 -83.5q92 -17 144.5 -70.5t52.5 -119.5t-13 -107t-41 -70q-56 -61 -172 -61q-104 0 -198 28l11 -53q0 -9 -12 -9l-137 -7q-20 1 -21 19l-14 187q0 9 12 11l139 18q10 0 10 -12v-43 q69 -19 122 -19t84.5 22.5t31.5 65t-7 64t-19 37.5q-25 33 -50 33q-38 0 -72 -7q-57 -13 -70.5 -13t-13.5 11l-7 113q0 15 15 17q185 21 185 158q0 43 -22.5 58.5t-69.5 15.5t-96 -34l4 -42q-2 -13 -11 -14l-140 -8q-7 0 -8 12l10 202q0 16 15 16l130 -2q18 0 20 -16z" />
<glyph unicode="&#xb4;" horiz-adv-x="900" d="M769 1649q5 -7 5 -17t-8 -17l-462 -340q-6 -4 -12 -4t-12 6l-67 68q-8 10 -8 18.5t5 15.5l383 420q9 11 21.5 11t21.5 -11z" />
<glyph unicode="&#xb6;" horiz-adv-x="1529" d="M684 730q-50 -5 -107.5 -5t-136 29.5t-136.5 86.5q-125 123 -125 334q0 254 183 376q156 104 430 104q309 0 558 -51q22 -4 24 -31l-9 -140q-5 -28 -25 -28l-161 15l19 -1686q0 -23 -18 -24l-124 -16q-24 0 -24 20l-8 1716q-38 2 -80 3l-86 2l-9 -1711q0 -24 -18 -24 l-152 4q-24 0 -24 25z" />
<glyph unicode="&#xb7;" horiz-adv-x="512" d="M415.5 675q5.5 -30 5.5 -56t-17.5 -47.5t-46.5 -35.5q-60 -29 -116 -29t-77 17.5t-34 43.5q-25 50 -25 98.5t22 70.5t54 35q55 21 109.5 21t75 -17.5t32.5 -44t17.5 -56.5z" />
<glyph unicode="&#xb8;" horiz-adv-x="900" d="M420 -374q83 0 83 69q0 29 -18.5 50t-46.5 21t-40 -1.5t-24 -2.5q-28 -4 -33 -4t-16.5 12.5t-24.5 28.5q-32 39 -32 54l46 180h119l-22 -145q41 9 88 9t80 -16t55 -43q45 -55 45 -158q0 -202 -247 -202q-114 0 -191 33q-21 9 -21 18l21 107q3 17 19 17q7 0 35 -7 q80 -20 125 -20z" />
<glyph unicode="&#xb9;" horiz-adv-x="851" d="M191 1030q0 9 8 9l118 -9v412l-125 -18q-9 0 -10 11l-17 103q0 9 11 14l181 84q9 5 18 5l124 -17q9 -1 9 -11l-8 -137l-6 -445l117 8q8 0 8 -9l-5 -160q0 -12 -7 -12l-410 7q-11 0 -12 10z" />
<glyph unicode="&#xba;" horiz-adv-x="1021" d="M151 960.5q-24 78.5 -24 192.5t22.5 193.5t64.5 129.5q80 98 231 98q169 0 250 -82q98 -99 98 -338q0 -322 -184 -388q-60 -21 -138.5 -21t-142 20.5t-108.5 68.5t-69 126.5zM618 1297.5q-15 53.5 -40 80.5q-39 39 -131.5 39t-124.5 -53q-36 -56 -36 -172.5t13.5 -169 t38.5 -80.5q40 -48 139 -48q88 0 120 48q36 54 36 178t-15 177.5z" />
<glyph unicode="&#xbb;" horiz-adv-x="1533" d="M778 650l16 -17q9 -9 9 -18l-10 -76q-3 -17 -17 -31l-547 -507q-5 -5 -15.5 -5t-18.5 8l-68 67q-6 6 -6 13t4 11l415 484l-422 473q-6 7 -6 14.5t8 15.5l72 70q8 8 14.5 8t11.5 -5zM1418 650l16 -17q9 -9 9 -18l-10 -76q-3 -17 -17 -31l-547 -507q-5 -5 -15.5 -5t-18.5 8 l-68 67q-6 6 -6 13t4 11l415 484l-422 473q-6 7 -6 14.5t8 15.5l72 70q8 8 14.5 8t11.5 -5z" />
<glyph unicode="&#xbc;" horiz-adv-x="1533" d="M1371 12q0 -9 -8 -9h-351q-8 0 -8 9l-5 100q0 12 7 12l91 -2l4 81l-279 -2q-22 0 -26 14l-23 80q-1 5 -1 11.5t14 41.5l164 386q14 34 17.5 41t15.5 7l166 -35q9 -3 9 -9t-10 -30l-197 -401l155 6l8 168q0 11 13 12l170 -19q10 -1 10 -11l-20 -143l86 3q7 0 8 -10l13 -98 q0 -10 -11 -10l-98 -1v-86l70 -1q11 0 12 -10zM1268 1407q8 -6 8 -13.5t-5 -15.5l-473 -640l-488 -700q-6 -8 -14 -8t-16 5l-90 64q-8 5 -8 12.5t7 18.5l498 691l460 652q6 9 12.5 9t14.5 -5zM169 930q0 9 8 9l118 -9v412l-125 -18q-9 0 -10 11l-17 103q0 9 11 14l181 84 q9 5 18 5l124 -17q9 -1 9 -11l-8 -137l-6 -445l117 8q8 0 8 -9l-5 -160q0 -12 -7 -12l-410 7q-11 0 -12 10z" />
<glyph unicode="&#xbd;" horiz-adv-x="1533" d="M1254 1407q8 -6 8 -13.5t-5 -15.5l-473 -640l-488 -700q-6 -8 -14 -8t-16 5l-90 64q-8 5 -8 12.5t7 18.5l498 691l460 652q6 9 12.5 9t14.5 -5zM155 930q0 9 8 9l118 -9v412l-125 -18q-9 0 -10 11l-17 103q0 9 11 14l181 84q9 5 18 5l124 -17q9 -1 9 -11l-8 -137l-6 -445 l117 8q8 0 8 -9l-5 -160q0 -12 -7 -12l-410 7q-11 0 -12 10zM991 803q17 0 19 -16l-2 -54q102 51 196 51q80 0 134 -56q56 -58 56 -152q0 -78 -62 -164q-34 -48 -91 -110l-143 -150l176 11v31q0 19 20 19l94 4q16 0 16 -15l-9 -238q-1 -11 -11 -11l-112 1q-11 0 -11 13l4 32 l-359 -4q-8 0 -9 12l-12 135q0 7 53 64l112 122q116 128 134 169.5t18 69.5q0 79 -86 79q-55 0 -111 -26l-1 -53q0 -12 -11 -13l-122 17q-8 1 -8 11l10 202q0 14 15 16z" />
<glyph unicode="&#xbe;" horiz-adv-x="1533" d="M1408 12q0 -9 -8 -9h-351q-8 0 -8 9l-5 100q0 12 7 12l91 -2l4 81l-279 -2q-20 0 -26 14l-23 80q-1 5 -1 11.5t14 41.5l163 386q15 34 18.5 41t15.5 7l166 -35q9 -3 9 -9t-11 -30l-196 -401l155 6l8 168q0 11 13 12l170 -19q10 -1 10 -11l-20 -143l86 3q8 0 8 -10l13 -98 q0 -10 -11 -10l-98 -1v-86l70 -1q11 0 12 -10zM1305 1407q8 -6 8 -13.5t-5 -15.5l-473 -640l-488 -700q-6 -8 -14 -8t-16 5l-90 64q-8 5 -8 12.5t7 18.5l498 691l460 652q6 9 12.5 9t14.5 -5zM266 1534q99 42 170 42t105 -13.5t55 -36.5q42 -44 42 -124.5t-39.5 -131 t-117.5 -83.5q92 -17 144.5 -70.5t52.5 -119.5t-13 -107t-41 -70q-56 -61 -172 -61q-104 0 -198 28l11 -53q0 -9 -12 -9l-137 -7q-20 1 -21 19l-14 187q0 9 12 11l139 18q10 0 10 -12v-43q69 -19 122 -19t84.5 22.5t31.5 65t-7 64t-19 37.5q-25 33 -50 33q-38 0 -72 -7 q-57 -13 -70.5 -13t-13.5 11l-7 113q0 15 15 17q185 21 185 158q0 43 -22.5 58.5t-69.5 15.5t-96 -34l4 -42q-2 -13 -11 -14l-140 -8q-7 0 -8 12l10 202q0 16 15 16l130 -2q18 0 20 -16z" />
<glyph unicode="&#xbf;" horiz-adv-x="1023" d="M937 32q14 0 16 -23l-20 -390q-3 -32 -30 -32l-149 4q-35 2 -38 32l2 60q-160 -84 -319 -84q-256 0 -325 183q-24 62 -24 136.5t18 136t47.5 120t67.5 114.5l187 263q53 75 70.5 119.5t22 50t15.5 5.5l156 -23q13 -1 13 -15t-11 -55q-23 -91 -141 -262l-77 -112 q-134 -203 -134 -315q0 -100 100 -135q30 -10 70.5 -10t76 5t67.5 14q51 14 126 53l4 128q1 13 3.5 19t17.5 7zM382.5 988q-5.5 30 -5.5 56t17.5 47.5t46.5 35.5q60 29 116 29t77 -17.5t34 -43.5q25 -50 25 -98.5t-22 -70.5t-54 -34q-55 -22 -109.5 -22t-75 17.5t-32.5 44 t-17.5 56.5z" />
<glyph unicode="&#xc0;" d="M56 2q-22 2 -22 32v167q0 16 6.5 22t23.5 7l92 -4l396 1284q6 19 24 21l227 8q18 -1 25 -23l432 -1283l91 3q28 -2 28 -32v-158q0 -17 -7 -22t-24 -5h-463q-18 0 -21 8t-3 22l20 146q2 17 8 22.5t22 5.5l114 3l-86 266l-495 10l-81 -290l121 12q12 0 16.5 -5t6.5 -18 l15 -152q-2 -17 -8.5 -23t-21.5 -7zM491 672h389l-210 643zM399 2006q6 14 18 14t24 -6l492 -276q9 -5 9 -11t-4 -16l-39 -92q-4 -10 -11.5 -10t-14.5 3l-533 193q-15 6 -15 17.5t4 19.5z" />
<glyph unicode="&#xc1;" d="M56 2q-22 2 -22 32v167q0 16 6.5 22t23.5 7l92 -4l396 1284q6 19 24 21l227 8q18 -1 25 -23l432 -1283l91 3q28 -2 28 -32v-158q0 -17 -7 -22t-24 -5h-463q-18 0 -21 8t-3 22l20 146q2 17 8 22.5t22 5.5l114 3l-86 266l-495 10l-81 -290l121 12q12 0 16.5 -5t6.5 -18 l15 -152q-2 -17 -8.5 -23t-21.5 -7zM491 672h389l-210 643zM1029 1842q4 -8 4 -19.5t-15 -17.5l-494 -207q-8 -3 -15 -3t-11 10l-39 92q-4 10 -4 16t9 11l453 290q12 6 24 6t18 -14z" />
<glyph unicode="&#xc2;" d="M56 2q-22 2 -22 32v167q0 16 6.5 22t23.5 7l92 -4l396 1284q6 19 24 21l227 8q18 -1 25 -23l432 -1283l91 3q28 -2 28 -32v-158q0 -17 -7 -22t-24 -5h-463q-18 0 -21 8t-3 22l20 146q2 17 8 22.5t22 5.5l114 3l-86 266l-495 10l-81 -290l121 12q12 0 16.5 -5t6.5 -18 l15 -152q-2 -17 -8.5 -23t-21.5 -7zM491 672h389l-210 643zM590 1985q29 23 45 25l95 10q16 0 46 -26l302 -251q7 -7 7 -14.5t-6 -14.5l-61 -73q-5 -6 -10.5 -6t-13.5 4l-320 159l-297 -154q-4 -2 -10 -2t-12 8l-62 76q-6 8 -6 13t5 9z" />
<glyph unicode="&#xc3;" d="M56 2q-22 2 -22 32v167q0 16 6.5 22t23.5 7l92 -4l396 1284q6 19 24 21l227 8q18 -1 25 -23l432 -1283l91 3q28 -2 28 -32v-158q0 -17 -7 -22t-24 -5h-463q-18 0 -21 8t-3 22l20 146q2 17 8 22.5t22 5.5l114 3l-86 266l-495 10l-81 -290l121 12q12 0 16.5 -5t6.5 -18 l15 -152q-2 -17 -8.5 -23t-21.5 -7zM491 672h389l-210 643zM266 1842q0 17 50.5 59.5t84.5 63.5q76 47 128 47q42 0 109.5 -37.5t106.5 -56t66.5 -18.5t52 6t47.5 15.5t44 20.5l38 20q33 19 44 19t18 -19l33 -78q2 -5 2 -12q0 -13 -47.5 -57.5t-82.5 -68.5 q-80 -56 -128.5 -56t-88 17.5t-79.5 37.5q-106 53 -134 53t-47.5 -5t-40 -13t-40.5 -17l-38 -17q-32 -15 -43 -15q-16 0 -23 20z" />
<glyph unicode="&#xc4;" d="M56 2q-22 2 -22 32v167q0 16 6.5 22t23.5 7l92 -4l396 1284q6 19 24 21l227 8q18 -1 25 -23l432 -1283l91 3q28 -2 28 -32v-158q0 -17 -7 -22t-24 -5h-463q-18 0 -21 8t-3 22l20 146q2 17 8 22.5t22 5.5l114 3l-86 266l-495 10l-81 -290l121 12q12 0 16.5 -5t6.5 -18 l15 -152q-2 -17 -8.5 -23t-21.5 -7zM491 672h389l-210 643zM506 1730q-32 -5 -74.5 -5t-66 6t-37.5 21q-27 27 -27 84.5t6.5 84t24.5 41.5q31 26 100 26t92.5 -5t37.5 -19q28 -25 28 -84t-7 -87t-26 -43t-51 -20zM977 1730q-32 -5 -74.5 -5t-66 6t-37.5 21q-27 27 -27 84.5 t6.5 84t24.5 41.5q31 26 100 26t92.5 -5t38.5 -19q27 -25 27 -84t-7 -87t-26 -43t-51 -20z" />
<glyph unicode="&#xc5;" d="M966 1766q0 -188 -142 -240l436 -1293l91 3q28 -2 28 -32v-158q0 -17 -7 -22t-24 -5h-463q-18 0 -21 8t-3 22l20 146q2 17 8 22.5t22 5.5l114 3l-86 266l-495 10l-81 -290l121 12q12 0 16.5 -5t6.5 -18l15 -152q-2 -17 -8.5 -23t-21.5 -7l-436 -17q-22 2 -22 32v167 q0 16 6.5 22t23.5 7l92 -4l396 1284l6 12q-152 49 -152 224q0 264 284 264q213 0 260 -138q16 -46 16 -106zM491 672h389l-210 643zM569 1757q0 -111 117 -111q94 0 116 75q7 22 7 57.5t-26 65.5t-78 30t-76.5 -10.5t-37.5 -27.5q-22 -27 -22 -79z" />
<glyph unicode="&#xc6;" horiz-adv-x="1903" d="M1539 812q27 -2 27 -25l-13 -156q-2 -23 -18 -23l-396 -7l-1 -397l496 18l9 121q4 37 42 39l135 5q28 -1 30 -31l16 -397q-1 -23 -21 -23l-208 4q-22 0 -22 26l4 60l-830 -24q-22 0 -23 24l6 179q0 21 19 24l126 -17l16 384l-400 -11l-148 -371l99 10q12 0 16.5 -5 t6.5 -18l15 -152q-2 -17 -8.5 -23t-21.5 -7l-436 -17q-22 2 -22 32v167q0 16 6.5 22t23.5 7l101 -5l517 1265q9 19 27 21l1016 42q30 -2 30 -27l-10 -355q0 -24 -20 -27l-162 -30q-14 0 -18 6.5t-5 19.5l-13 209l-367 -6l-19 -560zM603 759l335 16l5 573l-102 6z" />
<glyph unicode="&#xc7;" d="M795 -374q83 0 83 69q0 29 -18.5 50t-46.5 21t-40 -1.5t-24 -2.5q-28 -4 -33 -4t-16.5 12.5t-24.5 28.5q-32 39 -32 54l27 107q-400 12 -506 471q-34 150 -34 351t42 346t118 236q146 176 417 176q170 0 286 -38l180 28q40 0 42 -39l-12 -436q0 -26 -22 -26l-168 -4 q-19 0 -21 23l-21 257q-122 30 -225 30t-174 -30.5t-117 -98.5q-89 -132 -89 -441q0 -467 226 -559q74 -30 180 -30t224 38l-5 134q2 18 24 22l166 28q17 0 21 -23l40 -390q0 -16 -23 -18l-172 -15q-40 0 -42 39l-2 42q-99 -52 -205 -66l-12 -79q41 9 88 9t80 -16t56 -43 q44 -55 44 -158q0 -202 -247 -202q-114 0 -191 33q-21 9 -21 18l21 107q3 17 19 17q7 0 35 -7q80 -20 125 -20z" />
<glyph unicode="&#xc8;" d="M1272 -41q-4 -23 -21 -23l-188 4q-22 0 -22 26l-2 61l-893 -25q-23 0 -24 24l6 184q0 15 16 19l125 -17l-8 1089l-126 -11q-18 0 -18 22l11 182q2 19 24 21l999 38q30 -2 30 -27l-20 -365q0 -23 -16 -23l-168 6q-14 1 -17 7t-4 19l-6 172l-473 -25l7 -466l491 31 q25 0 27 -23l7 -168q-2 -23 -21 -23l-502 -7l7 -457l540 18l-4 131q2 37 42 39l162 -5q23 -2 23 -18zM405 2006q6 14 18 14t24 -6l492 -276q9 -5 9 -11t-4 -16l-39 -92q-4 -10 -11.5 -10t-14.5 3l-533 193q-15 6 -15 17.5t4 19.5z" />
<glyph unicode="&#xc9;" d="M1272 -41q-4 -23 -21 -23l-188 4q-22 0 -22 26l-2 61l-893 -25q-23 0 -24 24l6 184q0 15 16 19l125 -17l-8 1089l-126 -11q-18 0 -18 22l11 182q2 19 24 21l999 38q30 -2 30 -27l-20 -365q0 -23 -16 -23l-168 6q-14 1 -17 7t-4 19l-6 172l-473 -25l7 -466l491 31 q25 0 27 -23l7 -168q-2 -23 -21 -23l-502 -7l7 -457l540 18l-4 131q2 37 42 39l162 -5q23 -2 23 -18zM1035 1842q4 -8 4 -19.5t-15 -17.5l-494 -207q-8 -3 -15 -3t-11 10l-39 92q-4 10 -4 16t9 11l453 290q12 6 24 6t18 -14z" />
<glyph unicode="&#xca;" d="M1272 -41q-4 -23 -21 -23l-188 4q-22 0 -22 26l-2 61l-893 -25q-23 0 -24 24l6 184q0 15 16 19l125 -17l-8 1089l-126 -11q-18 0 -18 22l11 182q2 19 24 21l999 38q30 -2 30 -27l-20 -365q0 -23 -16 -23l-168 6q-14 1 -17 7t-4 19l-6 172l-473 -25l7 -466l491 31 q25 0 27 -23l7 -168q-2 -23 -21 -23l-502 -7l7 -457l540 18l-4 131q2 37 42 39l162 -5q23 -2 23 -18zM596 1985q29 23 45 25l95 10q16 0 46 -26l302 -251q7 -7 7 -14.5t-6 -14.5l-61 -73q-5 -6 -10.5 -6t-13.5 4l-320 159l-297 -154q-4 -2 -10 -2t-12 8l-62 76q-6 8 -6 13 t5 9z" />
<glyph unicode="&#xcb;" d="M1272 -41q-4 -23 -21 -23l-188 4q-22 0 -22 26l-2 61l-893 -25q-23 0 -24 24l6 184q0 15 16 19l125 -17l-8 1089l-126 -11q-18 0 -18 22l11 182q2 19 24 21l999 38q30 -2 30 -27l-20 -365q0 -23 -16 -23l-168 6q-14 1 -17 7t-4 19l-6 172l-473 -25l7 -466l491 31 q25 0 27 -23l7 -168q-2 -23 -21 -23l-502 -7l7 -457l540 18l-4 131q2 37 42 39l162 -5q23 -2 23 -18zM512 1730q-32 -5 -74.5 -5t-66 6t-37.5 21q-27 27 -27 84.5t6.5 84t24.5 41.5q31 26 100 26t92.5 -5t37.5 -19q28 -25 28 -84t-7 -87t-26 -43t-51 -20zM983 1730 q-32 -5 -74.5 -5t-66 6t-37.5 21q-27 27 -27 84.5t6.5 84t24.5 41.5q31 26 100 26t92.5 -5t38.5 -19q27 -25 27 -84t-7 -87t-26 -43t-51 -20z" />
<glyph unicode="&#xcc;" horiz-adv-x="682" d="M585 210q16 0 16 -19l-3 -178q0 -20 -24 -20l-464 13q-17 0 -18 24l-8 177q2 16 16 19l139 -10l-8 1089l-137 1q-18 0 -18 22l16 176q1 12 6.5 15.5t17.5 5.5l467 -18q11 -1 14 -5.5t4 -17.5l-7 -159q-2 -22 -23 -22h-117l-3 -1093h134zM59 2006q6 14 18 14t24 -6 l492 -276q9 -5 9 -11t-4 -16l-39 -92q-4 -10 -11.5 -10t-14.5 3l-533 193q-15 6 -15 17.5t4 19.5z" />
<glyph unicode="&#xcd;" horiz-adv-x="682" d="M585 210q16 0 16 -19l-3 -178q0 -20 -24 -20l-464 13q-17 0 -18 24l-8 177q2 16 16 19l139 -10l-8 1089l-137 1q-18 0 -18 22l16 176q1 12 6.5 15.5t17.5 5.5l467 -18q11 -1 14 -5.5t4 -17.5l-7 -159q-2 -22 -23 -22h-117l-3 -1093h134zM689 1842q4 -8 4 -19.5t-15 -17.5 l-494 -207q-8 -3 -15 -3t-11 10l-39 92q-4 10 -4 16t9 11l453 290q12 6 24 6t18 -14z" />
<glyph unicode="&#xce;" horiz-adv-x="682" d="M585 210q16 0 16 -19l-3 -178q0 -20 -24 -20l-464 13q-17 0 -18 24l-8 177q2 16 16 19l139 -10l-8 1089l-137 1q-18 0 -18 22l16 176q1 12 6.5 15.5t17.5 5.5l467 -18q11 -1 14 -5.5t4 -17.5l-7 -159q-2 -22 -23 -22h-117l-3 -1093h134zM250 1985q29 23 45 25l95 10 q16 0 46 -26l302 -251q7 -7 7 -14.5t-6 -14.5l-61 -73q-5 -6 -10.5 -6t-13.5 4l-320 159l-297 -154q-4 -2 -10 -2t-12 8l-62 76q-6 8 -6 13t5 9z" />
<glyph unicode="&#xcf;" horiz-adv-x="682" d="M585 210q16 0 16 -19l-3 -178q0 -20 -24 -20l-464 13q-17 0 -18 24l-8 177q2 16 16 19l139 -10l-8 1089l-137 1q-18 0 -18 22l16 176q1 12 6.5 15.5t17.5 5.5l467 -18q11 -1 14 -5.5t4 -17.5l-7 -159q-2 -22 -23 -22h-117l-3 -1093h134zM166 1730q-32 -5 -74.5 -5t-66 6 t-37.5 21q-27 27 -27 84.5t6.5 84t24.5 41.5q31 26 100 26t92.5 -5t37.5 -19q28 -25 28 -84t-7 -87t-26 -43t-51 -20zM637 1730q-32 -5 -74.5 -5t-66 6t-37.5 21q-27 27 -27 84.5t6.5 84t24.5 41.5q31 26 100 26t92.5 -5t38.5 -19q27 -25 27 -84t-7 -87t-26 -43t-51 -20z " />
<glyph unicode="&#xd0;" d="M246 1313q-61 -4 -141 -12q-11 0 -14 5t-4 17l-14 186q1 12 6.5 15.5t17.5 5.5q99 2 172.5 4t128 3t93 1.5t67 1t50.5 0.5h42q298 0 442 -156q167 -180 167 -598q0 -395 -169 -606q-161 -199 -445 -199q-298 0 -544 25q-17 1 -18 24l12 177q2 16 16 19l109 -8l9 384 l-131 -6q-24 2 -24 19l-2 131q0 20 16 20l145 2zM453 205q84 -6 122 -6h64q203 0 298.5 141t95.5 421q0 464 -223 548q-72 27 -130 27q-100 0 -215 -7l-6 -557h10l306 22q16 0 16 -18l3 -134v-3q0 -18 -13 -19l-324 -6z" />
<glyph unicode="&#xd1;" horiz-adv-x="1536" d="M1472 1325q0 -22 -23 -22l-127 3l-2 -1267q0 -27 -24 -29l-242 -13q-13 0 -23 22l-589 1305l24 -1094l157 10q14 0 16 -19l17 -198q-2 -20 -24 -20l-484 3q-14 0 -18 24l-18 167q2 19 16 19l157 4v1081l-183 -8q-11 1 -13.5 5.5t-4.5 16.5l11 176q2 19 24 21l440 22 q26 -2 37 -28l567 -1274l-26 1079l-155 5q-11 0 -14 5t-4 17l6 166q2 21 24 21l447 2q11 -1 14 -5.5t4 -17.5zM353 1842q0 17 50.5 59.5t84.5 63.5q76 47 128 47q42 0 109.5 -37.5t106.5 -56t66.5 -18.5t52 6t47.5 15.5t44 20.5l38 20q33 19 44 19t18 -19l33 -78q2 -5 2 -12 q0 -13 -47.5 -57.5t-81.5 -68.5q-81 -56 -129.5 -56t-88 17.5t-79.5 37.5q-106 53 -134 53t-47.5 -5t-40 -13t-41.5 -17l-37 -17q-32 -15 -43 -15q-16 0 -23 20z" />
<glyph unicode="&#xd2;" d="M1260 751q0 -761 -561 -761q-293 0 -443.5 192.5t-150.5 568.5q0 579 317 737q106 52 248.5 52t252 -44t184.5 -139q153 -194 153 -606zM1034 764q0 155 -24 265t-70.5 173t-113.5 86.5t-158 23.5t-157 -34t-107 -103q-75 -129 -75 -420q0 -297 94 -423q87 -115 283 -115 q179 0 256 127q72 122 72 420zM403 2006q6 14 18 14t24 -6l492 -276q9 -5 9 -11t-4 -16l-39 -92q-4 -10 -11.5 -10t-14.5 3l-533 193q-15 6 -15 17.5t4 19.5z" />
<glyph unicode="&#xd3;" d="M1260 751q0 -761 -561 -761q-293 0 -443.5 192.5t-150.5 568.5q0 579 317 737q106 52 248.5 52t252 -44t184.5 -139q153 -194 153 -606zM1034 764q0 155 -24 265t-70.5 173t-113.5 86.5t-158 23.5t-157 -34t-107 -103q-75 -129 -75 -420q0 -297 94 -423q87 -115 283 -115 q179 0 256 127q72 122 72 420zM1033 1842q4 -8 4 -19.5t-15 -17.5l-494 -207q-8 -3 -15 -3t-11 10l-39 92q-4 10 -4 16t9 11l453 290q12 6 24 6t18 -14z" />
<glyph unicode="&#xd4;" d="M1260 751q0 -761 -561 -761q-293 0 -443.5 192.5t-150.5 568.5q0 579 317 737q106 52 248.5 52t252 -44t184.5 -139q153 -194 153 -606zM1034 764q0 155 -24 265t-70.5 173t-113.5 86.5t-158 23.5t-157 -34t-107 -103q-75 -129 -75 -420q0 -297 94 -423q87 -115 283 -115 q179 0 256 127q72 122 72 420zM594 1985q29 23 45 25l95 10q16 0 46 -26l302 -251q7 -7 7 -14.5t-6 -14.5l-61 -73q-5 -6 -10.5 -6t-13.5 4l-320 159l-297 -154q-4 -2 -10 -2t-12 8l-62 76q-6 8 -6 13t5 9z" />
<glyph unicode="&#xd5;" d="M1260 751q0 -761 -561 -761q-293 0 -443.5 192.5t-150.5 568.5q0 579 317 737q106 52 248.5 52t252 -44t184.5 -139q153 -194 153 -606zM1034 764q0 155 -24 265t-70.5 173t-113.5 86.5t-158 23.5t-157 -34t-107 -103q-75 -129 -75 -420q0 -297 94 -423q87 -115 283 -115 q179 0 256 127q72 122 72 420zM270 1842q0 17 50.5 59.5t84.5 63.5q76 47 128 47q42 0 109.5 -37.5t106.5 -56t66.5 -18.5t52 6t47.5 15.5t44 20.5l38 20q33 19 44 19t18 -19l33 -78q2 -5 2 -12q0 -13 -47.5 -57.5t-82.5 -68.5q-80 -56 -128.5 -56t-88 17.5t-79.5 37.5 q-106 53 -134 53t-47.5 -5t-40 -13t-40.5 -17l-38 -17q-32 -15 -43 -15q-16 0 -23 20z" />
<glyph unicode="&#xd6;" d="M1260 751q0 -761 -561 -761q-293 0 -443.5 192.5t-150.5 568.5q0 579 317 737q106 52 248.5 52t252 -44t184.5 -139q153 -194 153 -606zM1034 764q0 155 -24 265t-70.5 173t-113.5 86.5t-158 23.5t-157 -34t-107 -103q-75 -129 -75 -420q0 -297 94 -423q87 -115 283 -115 q179 0 256 127q72 122 72 420zM510 1730q-32 -5 -74.5 -5t-66 6t-37.5 21q-27 27 -27 84.5t6.5 84t24.5 41.5q31 26 100 26t92.5 -5t37.5 -19q28 -25 28 -84t-7 -87t-26 -43t-51 -20zM981 1730q-32 -5 -74.5 -5t-66 6t-37.5 21q-27 27 -27 84.5t6.5 84t24.5 41.5 q31 26 100 26t92.5 -5t38.5 -19q27 -25 27 -84t-7 -87t-26 -43t-51 -20z" />
<glyph unicode="&#xd7;" horiz-adv-x="1194" d="M1016 889q7 -7 7 -14t-10 -17l-298 -276l305 -265q5 -4 5 -11t-6 -15l-116 -132q-6 -8 -13 -8t-18 11l-280 295l-269 -311q-6 -7 -14 -7t-15 8l-114 124q-7 7 -7 13t5 11l294 282l-294 273q-7 7 -7 12.5t8 15.5l112 127q7 9 12.5 9t12.5 -7l277 -304l277 314q7 7 14.5 7 t13.5 -6z" />
<glyph unicode="&#xd8;" d="M1261 751q0 -761 -561 -761q-111 0 -204 29l-75 -214q-5 -14 -14.5 -14t-13.5 1l-117 47q-16 6 -16 16t1 12l90 223q-245 180 -245 661q0 579 317 737q106 52 238.5 52t230.5 -33l70 194q6 17 14.5 17t12.5 -1l119 -43q15 -5 15 -17q0 -3 -2 -11l-89 -214 q229 -180 229 -681zM815 1293q-55 19 -146 19t-157 -34t-106 -103q-76 -129 -76 -420q0 -323 110 -443l204 504zM938 1204l-181 -440l-186 -531q58 -16 142.5 -16t147.5 31.5t101 95.5q73 122 73 427t-97 433z" />
<glyph unicode="&#xd9;" horiz-adv-x="1538" d="M1415 200q16 0 16 -19l-13 -178q-2 -20 -24 -20l-343 -7q-23 0 -23 24l1 227q-86 -102 -194 -158.5t-213.5 -56.5t-178.5 34.5t-123 101.5q-101 135 -101 390q0 270 15 470l24 298l-164 -13q-11 0 -13.5 4.5t-4.5 17.5l11 186q2 19 24 21l432 15q18 -2 18 -23l-14 -176 q-3 -22 -23 -22h-48q-6 -95 -10 -170l-8 -134q-11 -197 -11 -390q0 -376 224 -376q141 0 283 88q43 26 76 56l6 890l-107 -4q-14 0 -14 22l6 186q2 21 24 21l448 12q18 -2 18 -23l3 -179q0 -22 -23 -22l-140 -5v-1104zM484 2006q6 14 18 14t24 -6l492 -276q9 -5 9 -11 t-4 -16l-39 -92q-4 -10 -11.5 -10t-14.5 3l-533 193q-15 6 -15 17.5t4 19.5z" />
<glyph unicode="&#xda;" horiz-adv-x="1538" d="M1415 200q16 0 16 -19l-13 -178q-2 -20 -24 -20l-343 -7q-23 0 -23 24l1 227q-86 -102 -194 -158.5t-213.5 -56.5t-178.5 34.5t-123 101.5q-101 135 -101 390q0 270 15 470l24 298l-164 -13q-11 0 -13.5 4.5t-4.5 17.5l11 186q2 19 24 21l432 15q18 -2 18 -23l-14 -176 q-3 -22 -23 -22h-48q-6 -95 -10 -170l-8 -134q-11 -197 -11 -390q0 -376 224 -376q141 0 283 88q43 26 76 56l6 890l-107 -4q-14 0 -14 22l6 186q2 21 24 21l448 12q18 -2 18 -23l3 -179q0 -22 -23 -22l-140 -5v-1104zM1114 1842q4 -8 4 -19.5t-15 -17.5l-494 -207 q-8 -3 -15 -3t-11 10l-39 92q-4 10 -4 16t9 11l453 290q12 6 24 6t18 -14z" />
<glyph unicode="&#xdb;" horiz-adv-x="1538" d="M1415 200q16 0 16 -19l-13 -178q-2 -20 -24 -20l-343 -7q-23 0 -23 24l1 227q-86 -102 -194 -158.5t-213.5 -56.5t-178.5 34.5t-123 101.5q-101 135 -101 390q0 270 15 470l24 298l-164 -13q-11 0 -13.5 4.5t-4.5 17.5l11 186q2 19 24 21l432 15q18 -2 18 -23l-14 -176 q-3 -22 -23 -22h-48q-6 -95 -10 -170l-8 -134q-11 -197 -11 -390q0 -376 224 -376q141 0 283 88q43 26 76 56l6 890l-107 -4q-14 0 -14 22l6 186q2 21 24 21l448 12q18 -2 18 -23l3 -179q0 -22 -23 -22l-140 -5v-1104zM675 1985q29 23 45 25l95 10q16 0 46 -26l302 -251 q7 -7 7 -14.5t-6 -14.5l-61 -73q-5 -6 -10.5 -6t-13.5 4l-320 159l-297 -154q-4 -2 -10 -2t-12 8l-62 76q-6 8 -6 13t5 9z" />
<glyph unicode="&#xdc;" horiz-adv-x="1538" d="M1415 200q16 0 16 -19l-13 -178q-2 -20 -24 -20l-343 -7q-23 0 -23 24l1 227q-86 -102 -194 -158.5t-213.5 -56.5t-178.5 34.5t-123 101.5q-101 135 -101 390q0 270 15 470l24 298l-164 -13q-11 0 -13.5 4.5t-4.5 17.5l11 186q2 19 24 21l432 15q18 -2 18 -23l-14 -176 q-3 -22 -23 -22h-48q-6 -95 -10 -170l-8 -134q-11 -197 -11 -390q0 -376 224 -376q141 0 283 88q43 26 76 56l6 890l-107 -4q-14 0 -14 22l6 186q2 21 24 21l448 12q18 -2 18 -23l3 -179q0 -22 -23 -22l-140 -5v-1104zM591 1730q-32 -5 -74.5 -5t-66 6t-37.5 21 q-27 27 -27 84.5t6.5 84t24.5 41.5q31 26 100 26t92.5 -5t38.5 -19q27 -25 27 -84t-7 -87t-26 -43t-51 -20zM1062 1730q-32 -5 -74.5 -5t-66 6t-37.5 21q-27 27 -27 84.5t6.5 84t24.5 41.5q31 26 100 26t92.5 -5t37.5 -19q28 -25 28 -84t-7 -87t-26 -43t-51 -20z" />
<glyph unicode="&#xdd;" d="M962 215q18 0 18 -22l-16 -176q-1 -12 -6.5 -15.5t-17.5 -5.5l-532 15q-11 0 -14 5t-4 18l7 169q2 22 23 22l157 -3l3 337l-428 748l-86 -6q-28 0 -28 32l-10 170q0 17 7 22t24 5h483q18 0 21 -8t3 -22l-10 -165q-1 -17 -7.5 -22t-22.5 -6l-110 4l298 -599l288 591 l-127 -3q-12 0 -16.5 5t-6.5 18l-15 167q2 30 30 30l456 7q22 -2 22 -32l-10 -162q-1 -16 -7 -22.5t-23 -6.5h-87l-415 -746l-7 -340zM1036 1842q4 -8 4 -19.5t-15 -17.5l-494 -207q-8 -3 -15 -3t-11 10l-39 92q-4 10 -4 16t9 11l453 290q12 6 24 6t18 -14z" />
<glyph unicode="&#xde;" d="M113 1511q0 23 18 23l499 8q12 -2 17.5 -5.5t6.5 -15.5l-9 -176q-1 -13 -4 -17.5t-14 -4.5l-137 1l-1 -155q180 33 308 33t220.5 -21.5t160.5 -69.5q147 -103 147 -318q0 -231 -153 -333q-142 -94 -440 -94q-120 0 -251 19l-2 -178l191 13q19 0 19 -19l7 -178 q-2 -20 -24 -20l-519 -7q-20 0 -23 24l-18 177q2 16 16 19l118 -7l25 1111l-131 -7q-23 0 -23 22zM483 588q181 -21 268 -21t145.5 10t101.5 35q94 55 94 179q0 181 -188 209q-56 9 -127 9q-124 0 -290 -24z" />
<glyph unicode="&#xdf;" horiz-adv-x="1364" d="M235 1309q0 337 551 337q214 0 316.5 -72.5t102.5 -224.5q0 -128 -54 -211q-29 -44 -77 -92l-118 -116q-35 -33 -58.5 -63.5t-23.5 -69t48 -68.5t135 -63.5t142.5 -64t88.5 -70.5q57 -71 57 -229q0 -228 -196 -291q-62 -20 -149 -20q-139 0 -363 41q-38 6 -42 39l19 160 q4 22 27 22q13 0 69.5 -19t85.5 -27.5t58 -14.5q66 -15 130 -15t110 37.5t46 96.5t-23.5 90t-101.5 58l-153 55q-149 56 -190 142q-21 46 -21 104t15 98.5t40 78.5q40 61 101.5 122.5t91 93.5t48.5 60q37 55 37 120t-49 93t-119.5 28t-113 -2t-81.5 -9t-72 -22t-57 -41 q-53 -57 -53 -163q0 -64 3 -120l6 -97q3 -43 6 -85v-709l-18 -186q-2 -12 -6.5 -15.5t-17.5 -4.5l-283 6q-14 0 -14 24l-10 151q0 19 16 19l129 2v686l-156 -10q-17 2 -20 17l9 175q3 22 22 22h139q-9 90 -9 138v79z" />
<glyph unicode="&#xe0;" horiz-adv-x="1196" d="M722 1151q296 0 296 -368q0 -87 -4 -225l-7 -196q-2 -59 -5 -112l-4 -95l60 5q33 2 75 6q21 0 21 -19l-18 -158q-3 -18 -22 -20l-289 -18q-14 0 -14 22l14 117q-167 -129 -363 -129q-153 0 -252 89q-105 94 -105 253q0 207 143 291q126 74 415 74q60 0 128 -3q1 26 1 48 v38q0 195 -171 195q-89 0 -220 -54l4 -38q2 -19 2 -30q0 -22 -22 -22l-169 -3q-18 3 -20 22l-17 286q0 24 22 27l167 22q21 0 21 -22v-83q179 100 333 100zM532 150q115 0 253 66q2 66 2.5 145.5t2.5 157.5q-263 0 -365 -45q-94 -42 -94 -140q0 -184 201 -184zM433 1799 q9 11 21.5 11t21.5 -11l383 -420q5 -7 5 -15.5t-8 -18.5l-67 -68q-6 -6 -13 -6t-11 4l-462 340q-8 7 -8 17t5 17z" />
<glyph unicode="&#xe1;" horiz-adv-x="1196" d="M722 1151q296 0 296 -368q0 -87 -4 -225l-7 -196q-2 -59 -5 -112l-4 -95l60 5q33 2 75 6q21 0 21 -19l-18 -158q-3 -18 -22 -20l-289 -18q-14 0 -14 22l14 117q-167 -129 -363 -129q-153 0 -252 89q-105 94 -105 253q0 207 143 291q126 74 415 74q60 0 128 -3q1 26 1 48 v38q0 195 -171 195q-89 0 -220 -54l4 -38q2 -19 2 -30q0 -22 -22 -22l-169 -3q-18 3 -20 22l-17 286q0 24 22 27l167 22q21 0 21 -22v-83q179 100 333 100zM532 150q115 0 253 66q2 66 2.5 145.5t2.5 157.5q-263 0 -365 -45q-94 -42 -94 -140q0 -184 201 -184zM949 1649 q5 -7 5 -17t-8 -17l-462 -340q-6 -4 -12 -4t-12 6l-67 68q-8 10 -8 18.5t5 15.5l383 420q9 11 21.5 11t21.5 -11z" />
<glyph unicode="&#xe2;" horiz-adv-x="1196" d="M722 1151q296 0 296 -368q0 -87 -4 -225l-7 -196q-2 -59 -5 -112l-4 -95l60 5q33 2 75 6q21 0 21 -19l-18 -158q-3 -18 -22 -20l-289 -18q-14 0 -14 22l14 117q-167 -129 -363 -129q-153 0 -252 89q-105 94 -105 253q0 207 143 291q126 74 415 74q60 0 128 -3q1 26 1 48 v38q0 195 -171 195q-89 0 -220 -54l4 -38q2 -19 2 -30q0 -22 -22 -22l-169 -3q-18 3 -20 22l-17 286q0 24 22 27l167 22q21 0 21 -22v-83q179 100 333 100zM532 150q115 0 253 66q2 66 2.5 145.5t2.5 157.5q-263 0 -365 -45q-94 -42 -94 -140q0 -184 201 -184zM544 1745 q22 22 42 25l101 10q23 0 47 -30l298 -381q5 -7 5 -16.5t-8 -17.5l-67 -68q-6 -6 -13 -6t-11 4l-310 280l-299 -277q-8 -6 -15 -6t-15 8l-70 72q-8 8 -8 14.5t5 11.5z" />
<glyph unicode="&#xe3;" horiz-adv-x="1196" d="M722 1151q296 0 296 -368q0 -87 -4 -225l-7 -196q-2 -59 -5 -112l-4 -95l60 5q33 2 75 6q21 0 21 -19l-18 -158q-3 -18 -22 -20l-289 -18q-14 0 -14 22l14 117q-167 -129 -363 -129q-153 0 -252 89q-105 94 -105 253q0 207 143 291q126 74 415 74q60 0 128 -3q1 26 1 48 v38q0 195 -171 195q-89 0 -220 -54l4 -38q2 -19 2 -30q0 -22 -22 -22l-169 -3q-18 3 -20 22l-17 286q0 24 22 27l167 22q21 0 21 -22v-83q179 100 333 100zM532 150q115 0 253 66q2 66 2.5 145.5t2.5 157.5q-263 0 -365 -45q-94 -42 -94 -140q0 -184 201 -184zM237 1462 q0 15 49 58.5t81 64.5q72 47 112.5 47t75.5 -18t71 -39q92 -55 124 -55t58 7t50 17.5t44 22.5l36 21q21 13 31 13t17 -19l33 -78q2 -5 2 -12q0 -9 -17 -27l-46 -47q-110 -108 -199 -108q-46 0 -143 54t-130 54q-49 0 -99 -26q-80 -41 -92 -41q-19 0 -26 20z" />
<glyph unicode="&#xe4;" horiz-adv-x="1196" d="M722 1151q296 0 296 -368q0 -87 -4 -225l-7 -196q-2 -59 -5 -112l-4 -95l60 5q33 2 75 6q21 0 21 -19l-18 -158q-3 -18 -22 -20l-289 -18q-14 0 -14 22l14 117q-167 -129 -363 -129q-153 0 -252 89q-105 94 -105 253q0 207 143 291q126 74 415 74q60 0 128 -3q1 26 1 48 v38q0 195 -171 195q-89 0 -220 -54l4 -38q2 -19 2 -30q0 -22 -22 -22l-169 -3q-18 3 -20 22l-17 286q0 24 22 27l167 22q21 0 21 -22v-83q179 100 333 100zM532 150q115 0 253 66q2 66 2.5 145.5t2.5 157.5q-263 0 -365 -45q-94 -42 -94 -140q0 -184 201 -184zM454 1342 q-32 -5 -74.5 -5t-66 6t-37.5 21q-27 27 -27 84.5t6.5 84t24.5 41.5q31 26 100 26t92.5 -5t37.5 -19q28 -25 28 -84t-7 -87t-26 -43t-51 -20zM925 1342q-32 -5 -74.5 -5t-66 6t-37.5 21q-27 27 -27 84.5t6.5 84t24.5 41.5q31 26 100 26t92.5 -5t38.5 -19q27 -25 27 -84 t-7 -87t-26 -43t-51 -20z" />
<glyph unicode="&#xe5;" horiz-adv-x="1196" d="M722 1151q296 0 296 -368q0 -87 -4 -225l-7 -196q-2 -59 -5 -112l-4 -95l60 5q33 2 75 6q21 0 21 -19l-18 -158q-3 -18 -22 -20l-289 -18q-14 0 -14 22l14 117q-167 -129 -363 -129q-153 0 -252 89q-105 94 -105 253q0 207 143 291q126 74 415 74q60 0 128 -3q1 26 1 48 v38q0 195 -171 195q-89 0 -220 -54l4 -38q2 -19 2 -30q0 -22 -22 -22l-169 -3q-18 3 -20 22l-17 286q0 24 22 27l167 22q21 0 21 -22v-83q179 100 333 100zM532 150q115 0 253 66q2 66 2.5 145.5t2.5 157.5q-263 0 -365 -45q-94 -42 -94 -140q0 -184 201 -184zM904 1528 q0 -261 -280 -261t-280 241q0 264 284 264q213 0 260 -138q16 -46 16 -106zM507 1519q0 -111 117 -111q94 0 116 75q7 22 7 57.5t-26 65.5t-78 30t-76.5 -10.5t-37.5 -27.5q-22 -27 -22 -79z" />
<glyph unicode="&#xe6;" horiz-adv-x="1771" d="M906 1012q135 141 375 141q184 0 268.5 -84.5t84.5 -267.5q0 -214 -154 -277q-90 -37 -206 -40t-172 -3h-84q-27 0 -55 2q13 -193 79 -261q54 -56 187 -56q105 0 205 20l3 63q1 12 5.5 16t16.5 7l144 32q24 0 25 -19l22 -310q0 -39 -44 -44l-166 -20q-22 0 -22 22 q0 33 4 73q-122 -32 -285 -32q-208 0 -300 134q-82 -77 -140 -102q-109 -45 -214 -45t-167.5 22t-109.5 63q-101 91 -101 240q0 186 127 269t391 83q63 0 132 -3q0 81 -3 116q-7 100 -46.5 147.5t-124.5 47.5q-89 0 -220 -54q6 -42 6 -66t-22 -24l-169 -3q-18 3 -20 22 l-17 286q0 24 22 27l167 22q21 0 21 -22v-84q179 94 336.5 94t220.5 -132zM785 219q-33 105 -35 270q-344 0 -400 -109q-19 -35 -19 -78t15.5 -71t41.5 -47q51 -35 133 -35q141 0 264 70zM1382 700.5q24 35.5 24 86.5t-7.5 81.5t-26.5 51.5q-37 43 -126 43q-170 0 -227 -86 q-54 -81 -59 -249q51 -3 115.5 -3t128.5 3.5t109 20t69 52z" />
<glyph unicode="&#xe7;" horiz-adv-x="1024" d="M560 -374q83 0 83 69q0 29 -18.5 50t-46.5 21t-40 -1.5t-24 -2.5q-28 -4 -33 -4t-16.5 12.5t-24.5 28.5q-32 39 -32 54l36 142q-182 14 -266 139q-84 124 -84 383q0 185 16 276t41 153t68 108q93 99 265 99q97 0 213 -29l188 35q18 -3 20 -22l17 -356q-2 -24 -22 -27 l-167 -22q-21 0 -21 22v169q-64 15 -137 15t-128.5 -24t-86.5 -72q-54 -84 -54 -289q0 -308 126 -351q40 -14 92 -14q75 0 172 19l4 69q2 24 21 26l158 -6q14 -2 16 -23l18 -313q0 -21 -20 -21h-192q-15 0 -17 19l3 57q-82 -15 -120 -18l-16 -109q41 9 88 9t80 -16t55 -43 q45 -55 45 -158q0 -202 -247 -202q-114 0 -191 33q-21 9 -21 18l21 107q3 17 19 17q7 0 35 -7q80 -20 125 -20z" />
<glyph unicode="&#xe8;" horiz-adv-x="1196" d="M847 6q-128 -32 -325 -32q-201 0 -292 124q-95 129 -95 409q0 294 81 439q92 160 294 195q70 12 156 12q185 0 269 -91t84 -278q0 -122 -43 -188q-14 -21 -38 -47.5t-88.5 -47t-147.5 -31.5q-129 -16 -355 -16q13 -169 83 -230q53 -48 184 -48q123 0 245 21l3 52 q1 12 5.5 16t16.5 7l144 32q22 0 25 -19q3 -17 6 -66.5t6 -85.5t5 -69l4 -56q1 -25 1 -42q0 -30 -44 -35l-166 -20q-22 0 -22 22zM785.5 714.5q5.5 30.5 5.5 72t-7.5 73.5t-25.5 55q-39 48 -127 48q-170 0 -227 -86q-54 -80 -60 -276q349 5 410 60q26 23 31.5 53.5z M409 1799q9 11 21.5 11t21.5 -11l383 -420q5 -7 5 -15.5t-8 -18.5l-67 -68q-6 -6 -13 -6t-11 4l-462 340q-8 7 -8 17t5 17z" />
<glyph unicode="&#xe9;" horiz-adv-x="1196" d="M847 6q-128 -32 -325 -32q-201 0 -292 124q-95 129 -95 409q0 294 81 439q92 160 294 195q70 12 156 12q185 0 269 -91t84 -278q0 -122 -43 -188q-14 -21 -38 -47.5t-88.5 -47t-147.5 -31.5q-129 -16 -355 -16q13 -169 83 -230q53 -48 184 -48q123 0 245 21l3 52 q1 12 5.5 16t16.5 7l144 32q22 0 25 -19q3 -17 6 -66.5t6 -85.5t5 -69l4 -56q1 -25 1 -42q0 -30 -44 -35l-166 -20q-22 0 -22 22zM785.5 714.5q5.5 30.5 5.5 72t-7.5 73.5t-25.5 55q-39 48 -127 48q-170 0 -227 -86q-54 -80 -60 -276q349 5 410 60q26 23 31.5 53.5z M925 1649q5 -7 5 -17t-8 -17l-462 -340q-6 -4 -12 -4t-12 6l-67 68q-8 10 -8 18.5t5 15.5l383 420q9 11 21.5 11t21.5 -11z" />
<glyph unicode="&#xea;" horiz-adv-x="1196" d="M847 6q-128 -32 -325 -32q-201 0 -292 124q-95 129 -95 409q0 294 81 439q92 160 294 195q70 12 156 12q185 0 269 -91t84 -278q0 -122 -43 -188q-14 -21 -38 -47.5t-88.5 -47t-147.5 -31.5q-129 -16 -355 -16q13 -169 83 -230q53 -48 184 -48q123 0 245 21l3 52 q1 12 5.5 16t16.5 7l144 32q22 0 25 -19q3 -17 6 -66.5t6 -85.5t5 -69l4 -56q1 -25 1 -42q0 -30 -44 -35l-166 -20q-22 0 -22 22zM785.5 714.5q5.5 30.5 5.5 72t-7.5 73.5t-25.5 55q-39 48 -127 48q-170 0 -227 -86q-54 -80 -60 -276q349 5 410 60q26 23 31.5 53.5z M520 1745q22 22 42 25l101 10q23 0 47 -30l298 -381q5 -7 5 -16.5t-8 -17.5l-67 -68q-6 -6 -13 -6t-11 4l-310 280l-299 -277q-8 -6 -15 -6t-15 8l-70 72q-8 8 -8 14.5t5 11.5z" />
<glyph unicode="&#xeb;" horiz-adv-x="1196" d="M847 6q-128 -32 -325 -32q-201 0 -292 124q-95 129 -95 409q0 294 81 439q92 160 294 195q70 12 156 12q185 0 269 -91t84 -278q0 -122 -43 -188q-14 -21 -38 -47.5t-88.5 -47t-147.5 -31.5q-129 -16 -355 -16q13 -169 83 -230q53 -48 184 -48q123 0 245 21l3 52 q1 12 5.5 16t16.5 7l144 32q22 0 25 -19q3 -17 6 -66.5t6 -85.5t5 -69l4 -56q1 -25 1 -42q0 -30 -44 -35l-166 -20q-22 0 -22 22zM785.5 714.5q5.5 30.5 5.5 72t-7.5 73.5t-25.5 55q-39 48 -127 48q-170 0 -227 -86q-54 -80 -60 -276q349 5 410 60q26 23 31.5 53.5z M430 1342q-32 -5 -74.5 -5t-66 6t-37.5 21q-27 27 -27 84.5t6.5 84t24.5 41.5q31 26 100 26t92.5 -5t37.5 -19q28 -25 28 -84t-7 -87t-26 -43t-51 -20zM901 1342q-32 -5 -74.5 -5t-66 6t-37.5 21q-27 27 -27 84.5t6.5 84t24.5 41.5q31 26 100 26t92.5 -5t38.5 -19 q27 -25 27 -84t-7 -87t-26 -43t-51 -20z" />
<glyph unicode="&#xec;" horiz-adv-x="683" d="M150 -14q-14 0 -14 24v151q0 19 16 19h120l8 699l-162 17q-18 2 -18 22l22 165q3 18 24 21l321 33q11 0 14 -5.5t4 -17.5l13 -182l-3 -752h114q16 0 16 -19l-18 -131q-2 -12 -6.5 -15.5t-17.5 -4.5zM166 1799q9 11 21.5 11t21.5 -11l383 -420q5 -7 5 -15.5t-8 -18.5 l-67 -68q-6 -6 -13 -6t-11 4l-462 340q-8 7 -8 17t5 17z" />
<glyph unicode="&#xed;" horiz-adv-x="683" d="M150 -14q-14 0 -14 24v151q0 19 16 19h120l8 699l-162 17q-18 2 -18 22l22 165q3 18 24 21l321 33q11 0 14 -5.5t4 -17.5l13 -182l-3 -752h114q16 0 16 -19l-18 -131q-2 -12 -6.5 -15.5t-17.5 -4.5zM682 1649q5 -7 5 -17t-8 -17l-462 -340q-6 -4 -12 -4t-12 6l-67 68 q-8 10 -8 18.5t5 15.5l383 420q9 11 21.5 11t21.5 -11z" />
<glyph unicode="&#xee;" horiz-adv-x="683" d="M150 -14q-14 0 -14 24v151q0 19 16 19h120l8 699l-162 17q-18 2 -18 22l22 165q3 18 24 21l321 33q11 0 14 -5.5t4 -17.5l13 -182l-3 -752h114q16 0 16 -19l-18 -131q-2 -12 -6.5 -15.5t-17.5 -4.5zM277 1745q22 22 42 25l101 10q23 0 47 -30l298 -381q5 -7 5 -16.5 t-8 -17.5l-67 -68q-6 -6 -13 -6t-11 4l-310 280l-299 -277q-8 -6 -15 -6t-15 8l-70 72q-8 8 -8 14.5t5 11.5z" />
<glyph unicode="&#xef;" horiz-adv-x="683" d="M150 -14q-14 0 -14 24v151q0 19 16 19h120l8 699l-162 17q-18 2 -18 22l22 165q3 18 24 21l321 33q11 0 14 -5.5t4 -17.5l13 -182l-3 -752h114q16 0 16 -19l-18 -131q-2 -12 -6.5 -15.5t-17.5 -4.5zM187 1342q-32 -5 -74.5 -5t-66 6t-37.5 21q-27 27 -27 84.5t6.5 84 t24.5 41.5q31 26 100 26t92.5 -5t38.5 -19q27 -25 27 -84t-7 -87t-26 -43t-51 -20zM658 1342q-32 -5 -74.5 -5t-66 6t-37.5 21q-27 27 -27 84.5t6.5 84t24.5 41.5q31 26 100 26t92.5 -5t37.5 -19q28 -25 28 -84t-7 -87t-26 -43t-51 -20z" />
<glyph unicode="&#xf0;" horiz-adv-x="1194" d="M849 1417q220 -208 220 -739q0 -543 -277 -660q-91 -39 -199 -39t-192 29.5t-147 93.5q-133 135 -133 399q0 242 129 365q112 105 286 105q171 0 305 -54q-34 230 -135 334l-131 -164q-7 -8 -16 -8t-15 5l-101 74q-8 5 -8 13.5t5 14.5l123 150q-60 17 -110 17 q-69 0 -113.5 -6.5t-57.5 -6.5t-13 14l12 144q2 17 22.5 20.5t44.5 7t51 6.5q59 5 138.5 5t154.5 -26l108 159q7 10 20 10t23 -10l112 -103q6 -6 6 -15.5t-9 -19.5zM859 577q0 109 -2 161q-138 42 -293 42q-165 0 -218 -162q-19 -61 -19 -137.5t16.5 -129t48.5 -89.5 q65 -79 184 -79q152 0 215 91q68 98 68 303z" />
<glyph unicode="&#xf1;" horiz-adv-x="1370" d="M792 903q-127 0 -290 -104l12 -599l109 12q17 0 17 -17l-19 -155q-4 -22 -22 -22h-417q-16 0 -16 24l20 153q4 21 22 21h85v661l-153 4q-20 0 -20 24l18 173q2 17 24 21l277 41q18 0 18 -23v-173q206 206 405 206q228 0 272 -217q14 -72 14 -134.5t-1 -105t-3 -93.5 l-2 -104l-4 -110l-4 -106q-2 -51 -4 -94l115 5q21 0 21 -24v-147q0 -12 -5.5 -15.5t-17.5 -4.5l-290 -22q-22 0 -22 22q3 109 3 205l2 167v133v183q0 124 -21 158.5t-49 45.5t-74 11zM296 1462q0 15 49 58.5t81 64.5q72 47 112.5 47t75.5 -18t70 -39q93 -55 125 -55t58 7 t50 17.5t45 22.5l35 21q21 13 31 13t17 -19l33 -78q2 -5 2 -12q0 -9 -17 -27l-46 -47q-110 -108 -199 -108q-46 0 -143 54t-130 54q-49 0 -99 -26q-80 -41 -92 -41q-19 0 -26 20z" />
<glyph unicode="&#xf2;" horiz-adv-x="1194" d="M123 562q0 171 28.5 284.5t84.5 181.5q104 123 339 123q164 0 239.5 -33t119 -75t74.5 -108q62 -135 62 -339.5t-28.5 -315.5t-85.5 -178q-106 -122 -343 -122q-248 0 -361 120q-129 136 -129 462zM849 363q15 72 15 176t-11 168t-30.5 106.5t-46.5 67t-59 36.5 q-48 18 -127 18t-126 -12t-78 -51q-59 -76 -59 -306q0 -327 176 -369q54 -13 117 -13t108.5 13.5t75.5 53.5t45 112zM400 1799q9 11 21.5 11t21.5 -11l383 -420q5 -7 5 -15.5t-8 -18.5l-67 -68q-6 -6 -13 -6t-11 4l-462 340q-8 7 -8 17t5 17z" />
<glyph unicode="&#xf3;" horiz-adv-x="1194" d="M123 562q0 171 28.5 284.5t84.5 181.5q104 123 339 123q164 0 239.5 -33t119 -75t74.5 -108q62 -135 62 -339.5t-28.5 -315.5t-85.5 -178q-106 -122 -343 -122q-248 0 -361 120q-129 136 -129 462zM849 363q15 72 15 176t-11 168t-30.5 106.5t-46.5 67t-59 36.5 q-48 18 -127 18t-126 -12t-78 -51q-59 -76 -59 -306q0 -327 176 -369q54 -13 117 -13t108.5 13.5t75.5 53.5t45 112zM916 1649q5 -7 5 -17t-8 -17l-462 -340q-6 -4 -12 -4t-12 6l-67 68q-8 10 -8 18.5t5 15.5l383 420q9 11 21.5 11t21.5 -11z" />
<glyph unicode="&#xf4;" horiz-adv-x="1194" d="M123 562q0 171 28.5 284.5t84.5 181.5q104 123 339 123q164 0 239.5 -33t119 -75t74.5 -108q62 -135 62 -339.5t-28.5 -315.5t-85.5 -178q-106 -122 -343 -122q-248 0 -361 120q-129 136 -129 462zM849 363q15 72 15 176t-11 168t-30.5 106.5t-46.5 67t-59 36.5 q-48 18 -127 18t-126 -12t-78 -51q-59 -76 -59 -306q0 -327 176 -369q54 -13 117 -13t108.5 13.5t75.5 53.5t45 112zM511 1745q22 22 42 25l101 10q23 0 47 -30l298 -381q5 -7 5 -16.5t-8 -17.5l-67 -68q-6 -6 -13 -6t-11 4l-310 280l-299 -277q-8 -6 -15 -6t-15 8l-70 72 q-8 8 -8 14.5t5 11.5z" />
<glyph unicode="&#xf5;" horiz-adv-x="1194" d="M123 562q0 171 28.5 284.5t84.5 181.5q104 123 339 123q164 0 239.5 -33t119 -75t74.5 -108q62 -135 62 -339.5t-28.5 -315.5t-85.5 -178q-106 -122 -343 -122q-248 0 -361 120q-129 136 -129 462zM849 363q15 72 15 176t-11 168t-30.5 106.5t-46.5 67t-59 36.5 q-48 18 -127 18t-126 -12t-78 -51q-59 -76 -59 -306q0 -327 176 -369q54 -13 117 -13t108.5 13.5t75.5 53.5t45 112zM204 1462q0 15 49 58.5t81 64.5q72 47 112.5 47t75.5 -18t70 -39q93 -55 125 -55t58 7t50 17.5t45 22.5l35 21q21 13 31 13t17 -19l33 -78q2 -5 2 -12 q0 -9 -17 -27l-46 -47q-110 -108 -199 -108q-46 0 -143 54t-130 54q-49 0 -99 -26q-80 -41 -92 -41q-19 0 -26 20z" />
<glyph unicode="&#xf6;" horiz-adv-x="1194" d="M123 562q0 171 28.5 284.5t84.5 181.5q104 123 339 123q164 0 239.5 -33t119 -75t74.5 -108q62 -135 62 -339.5t-28.5 -315.5t-85.5 -178q-106 -122 -343 -122q-248 0 -361 120q-129 136 -129 462zM849 363q15 72 15 176t-11 168t-30.5 106.5t-46.5 67t-59 36.5 q-48 18 -127 18t-126 -12t-78 -51q-59 -76 -59 -306q0 -327 176 -369q54 -13 117 -13t108.5 13.5t75.5 53.5t45 112zM421 1342q-32 -5 -74.5 -5t-66 6t-37.5 21q-27 27 -27 84.5t6.5 84t24.5 41.5q31 26 100 26t92.5 -5t38.5 -19q27 -25 27 -84t-7 -87t-26 -43t-51 -20z M892 1342q-32 -5 -74.5 -5t-66 6t-37.5 21q-27 27 -27 84.5t6.5 84t24.5 41.5q31 26 100 26t92.5 -5t37.5 -19q28 -25 28 -84t-7 -87t-26 -43t-51 -20z" />
<glyph unicode="&#xf7;" horiz-adv-x="1194" d="M1011 512q0 -24 -14 -24l-413 12l-370 -8q-13 1 -18 4.5t-6 15.5l-8 151q0 17 16 19l404 -15l393 5q14 0 16 -19v-141zM747.5 948q4.5 -27 4.5 -50.5t-15.5 -42.5t-40.5 -32q-52 -26 -102.5 -26t-69 15.5t-30.5 39.5q-22 43 -22 87.5t19.5 64t48.5 30.5q49 19 97 19 t66 -15.5t29 -39t15.5 -50.5zM747.5 268q4.5 -27 4.5 -50.5t-15.5 -42.5t-40.5 -32q-52 -26 -102.5 -26t-69 15.5t-30.5 39.5q-22 43 -22 87.5t19.5 64t48.5 30.5q49 19 97 19t66 -15.5t29 -39t15.5 -50.5z" />
<glyph unicode="&#xf8;" horiz-adv-x="1194" d="M299 59q-176 123 -176 502q0 331 113 467q104 123 339 123q99 0 165 -14l73 189q6 17 14.5 17t12.5 -1l99 -43q15 -6 15 -14.5t-2 -13.5l-79 -182q197 -120 197 -532q0 -322 -114 -455q-106 -122 -343 -122q-100 0 -177 19l-82 -222q-5 -14 -14.5 -14t-13.5 1l-107 47 q-16 6 -16 16t1 12zM509 195q48 -11 111 -11t108.5 13.5t75.5 53.5q60 80 60 300q0 241 -83 324l-140 -324zM660 931q-40 4 -94.5 4t-101.5 -12t-78 -51q-59 -76 -59 -306q0 -206 64 -293l143 330z" />
<glyph unicode="&#xf9;" horiz-adv-x="1195" d="M996 1100q16 0 16 -24l10 -844l134 5q20 -1 20 -24l-18 -183q-1 -21 -24 -21h-247q-31 0 -41 38l-24 101q-165 -142 -376 -142q-295 0 -295 377q0 131 15 292l20 226l-128 -4q-21 0 -21 24l20 177q2 12 6.5 15.5t16.5 4.5l318 -8q14 0 14 -22q-5 -48 -10 -108 q-42 -451 -42 -557t40 -153.5t144 -47.5t265 102v575l-125 7q-14 2 -17 17l19 165q4 22 22 22zM390 1799q9 11 21.5 11t21.5 -11l383 -420q5 -7 5 -15.5t-8 -18.5l-67 -68q-6 -6 -13 -6t-11 4l-462 340q-8 7 -8 17t5 17z" />
<glyph unicode="&#xfa;" horiz-adv-x="1195" d="M996 1100q16 0 16 -24l10 -844l134 5q20 -1 20 -24l-18 -183q-1 -21 -24 -21h-247q-31 0 -41 38l-24 101q-165 -142 -376 -142q-295 0 -295 377q0 131 15 292l20 226l-128 -4q-21 0 -21 24l20 177q2 12 6.5 15.5t16.5 4.5l318 -8q14 0 14 -22q-5 -48 -10 -108 q-42 -451 -42 -557t40 -153.5t144 -47.5t265 102v575l-125 7q-14 2 -17 17l19 165q4 22 22 22zM906 1649q5 -7 5 -17t-8 -17l-462 -340q-6 -4 -12 -4t-12 6l-67 68q-8 10 -8 18.5t5 15.5l383 420q9 11 21.5 11t21.5 -11z" />
<glyph unicode="&#xfb;" horiz-adv-x="1195" d="M996 1100q16 0 16 -24l10 -844l134 5q20 -1 20 -24l-18 -183q-1 -21 -24 -21h-247q-31 0 -41 38l-24 101q-165 -142 -376 -142q-295 0 -295 377q0 131 15 292l20 226l-128 -4q-21 0 -21 24l20 177q2 12 6.5 15.5t16.5 4.5l318 -8q14 0 14 -22q-5 -48 -10 -108 q-42 -451 -42 -557t40 -153.5t144 -47.5t265 102v575l-125 7q-14 2 -17 17l19 165q4 22 22 22zM501 1745q22 22 42 25l101 10q23 0 47 -30l298 -381q5 -7 5 -16.5t-8 -17.5l-67 -68q-6 -6 -13 -6t-11 4l-310 280l-299 -277q-8 -6 -15 -6t-15 8l-70 72q-8 8 -8 14.5t5 11.5z " />
<glyph unicode="&#xfc;" horiz-adv-x="1195" d="M996 1100q16 0 16 -24l10 -844l134 5q20 -1 20 -24l-18 -183q-1 -21 -24 -21h-247q-31 0 -41 38l-24 101q-165 -142 -376 -142q-295 0 -295 377q0 131 15 292l20 226l-128 -4q-21 0 -21 24l20 177q2 12 6.5 15.5t16.5 4.5l318 -8q14 0 14 -22q-5 -48 -10 -108 q-42 -451 -42 -557t40 -153.5t144 -47.5t265 102v575l-125 7q-14 2 -17 17l19 165q4 22 22 22zM411 1342q-32 -5 -74.5 -5t-66 6t-37.5 21q-27 27 -27 84.5t6.5 84t24.5 41.5q31 26 100 26t92.5 -5t38.5 -19q27 -25 27 -84t-7 -87t-26 -43t-51 -20zM882 1342 q-32 -5 -74.5 -5t-66 6t-37.5 21q-27 27 -27 84.5t6.5 84t24.5 41.5q31 26 100 26t92.5 -5t37.5 -19q28 -25 28 -84t-7 -87t-26 -43t-51 -20z" />
<glyph unicode="&#xfd;" horiz-adv-x="1197" d="M16 1100q0 20 23 20l454 10q18 0 18 -22l5 -170q-2 -13 -6 -17t-16 -4l-131 -3l260 -735l236 740l-137 -13q-16 0 -17 17l9 185q1 22 22 22l437 10q16 -1 16 -24l-10 -173q-2 -21 -22 -21l-88 8l-482 -1360q-8 -24 -24 -24l-198 54q-22 3 -22 20q0 7 4 14l219 419l-86 -3 q-13 0 -22 18l-336 841l-95 -2q-21 0 -21 24zM946 1649q5 -7 5 -17t-8 -17l-462 -340q-6 -4 -12 -4t-12 6l-67 68q-8 10 -8 18.5t5 15.5l383 420q9 11 21.5 11t21.5 -11z" />
<glyph unicode="&#xfe;" horiz-adv-x="1195" d="M379 1595q18 0 18 -23l-16 -483l59 21q122 41 229.5 41t189 -36t131.5 -109q90 -132 90 -432t-101 -441.5t-309 -141.5q-158 0 -296 53l14 -311l188 7q21 -2 21 -21l-10 -147q-2 -20 -23 -20l-466 -10q-18 0 -20 24l-8 165q2 13 6.5 16.5t15.5 4.5l89 -10v1643l-146 -8 q-19 1 -20 19l-12 155q4 18 23 20zM850 385.5q14 72.5 14 178.5t-10 176.5t-36 113.5q-50 81 -191 81q-117 0 -252 -41l-13 -267l5 -403q126 -32 220 -32t141.5 17.5t77.5 60.5t44 115.5z" />
<glyph unicode="&#xff;" horiz-adv-x="1197" d="M16 1100q0 20 23 20l454 10q18 0 18 -22l5 -170q-2 -13 -6 -17t-16 -4l-131 -3l260 -735l236 740l-137 -13q-16 0 -17 17l9 185q1 22 22 22l437 10q16 -1 16 -24l-10 -173q-2 -21 -22 -21l-88 8l-482 -1360q-8 -24 -24 -24l-198 54q-22 3 -22 20q0 7 4 14l219 419l-86 -3 q-13 0 -22 18l-336 841l-95 -2q-21 0 -21 24zM451 1342q-32 -5 -74.5 -5t-66 6t-37.5 21q-27 27 -27 84.5t6.5 84t24.5 41.5q31 26 100 26t92.5 -5t38.5 -19q27 -25 27 -84t-7 -87t-26 -43t-51 -20zM922 1342q-32 -5 -74.5 -5t-66 6t-37.5 21q-27 27 -27 84.5t6.5 84 t24.5 41.5q31 26 100 26t92.5 -5t37.5 -19q28 -25 28 -84t-7 -87t-26 -43t-51 -20z" />
<glyph unicode="&#x100;" d="M56 2q-22 2 -22 32v167q0 16 6.5 22t23.5 7l92 -4l396 1284q6 19 24 21l227 8q18 -1 25 -23l432 -1283l91 3q28 -2 28 -32v-158q0 -17 -7 -22t-24 -5h-463q-18 0 -21 8t-3 22l20 146q2 17 8 22.5t22 5.5l114 3l-86 266l-495 10l-81 -290l121 12q12 0 16.5 -5t6.5 -18 l15 -152q-2 -17 -8.5 -23t-21.5 -7zM491 672h389l-210 643zM1001 1971q16 -2 16 -19l-18 -171q-2 -12 -6.5 -16t-17.5 -4l-624 6q-19 0 -19 24l10 151q1 19 20 19z" />
<glyph unicode="&#x101;" horiz-adv-x="1196" d="M722 1151q296 0 296 -368q0 -87 -4 -225l-7 -196q-2 -59 -5 -112l-4 -95l60 5q33 2 75 6q21 0 21 -19l-18 -158q-3 -18 -22 -20l-289 -18q-14 0 -14 22l14 117q-167 -129 -363 -129q-153 0 -252 89q-105 94 -105 253q0 207 143 291q126 74 415 74q60 0 128 -3q1 26 1 48 v38q0 195 -171 195q-89 0 -220 -54l4 -38q2 -19 2 -30q0 -22 -22 -22l-169 -3q-18 3 -20 22l-17 286q0 24 22 27l167 22q21 0 21 -22v-83q179 100 333 100zM532 150q115 0 253 66q2 66 2.5 145.5t2.5 157.5q-263 0 -365 -45q-94 -42 -94 -140q0 -184 201 -184zM953 1611 q16 -2 16 -19l-18 -171q-2 -12 -6.5 -16t-17.5 -4l-629 6q-14 0 -14 24l10 151q2 19 16 19z" />
<glyph unicode="&#x102;" d="M56 2q-22 2 -22 32v167q0 16 6.5 22t23.5 7l92 -4l396 1284q6 19 24 21l227 8q18 -1 25 -23l432 -1283l91 3q28 -2 28 -32v-158q0 -17 -7 -22t-24 -5h-463q-18 0 -21 8t-3 22l20 146q2 17 8 22.5t22 5.5l114 3l-86 266l-495 10l-81 -290l121 12q12 0 16.5 -5t6.5 -18 l15 -152q-2 -17 -8.5 -23t-21.5 -7zM491 672h389l-210 643zM1033 2006q24 0 24 -23q0 -142 -95 -240q-101 -105 -268 -105q-171 0 -281 91q-113 94 -113 255q0 23 24 23l143 13q19 0 21.5 -32t19 -64t42.5 -55q56 -48 137 -48q152 0 182 165q4 24 21 24z" />
<glyph unicode="&#x103;" horiz-adv-x="1196" d="M722 1151q296 0 296 -368q0 -87 -4 -225l-7 -196q-2 -59 -5 -112l-4 -95l60 5q33 2 75 6q21 0 21 -19l-18 -158q-3 -18 -22 -20l-289 -18q-14 0 -14 22l14 117q-167 -129 -363 -129q-153 0 -252 89q-105 94 -105 253q0 207 143 291q126 74 415 74q60 0 128 -3q1 26 1 48 v38q0 195 -171 195q-89 0 -220 -54l4 -38q2 -19 2 -30q0 -22 -22 -22l-169 -3q-18 3 -20 22l-17 286q0 24 22 27l167 22q21 0 21 -22v-83q179 100 333 100zM532 150q115 0 253 66q2 66 2.5 145.5t2.5 157.5q-263 0 -365 -45q-94 -42 -94 -140q0 -184 201 -184zM994 1698 q24 0 24 -23q0 -142 -94 -240q-102 -105 -269 -105q-171 0 -281 91q-113 94 -113 255q0 21 24 23l143 13q19 0 21.5 -32t19 -64t43.5 -55q55 -48 136 -48q152 0 182 165q4 24 21 24z" />
<glyph unicode="&#x104;" d="M56 2q-22 2 -22 32v167q0 16 6.5 22t23.5 7l92 -4l396 1284q6 19 24 21l227 8q18 -1 25 -23l432 -1283l91 3q28 -2 28 -32v-158q0 -17 -7 -22t-24 -5h-154q-102 -126 -102 -200q0 -64 96 -64q58 0 113.5 20t63.5 20q14 0 16 -17l21 -166q0 -14 -22 -22q-127 -40 -251 -40 q-215 0 -215 179q0 128 108 290h-137q-18 0 -21 8t-3 22l20 146q2 17 8 22.5t22 5.5l114 3l-86 266l-495 10l-81 -290l121 12q12 0 16.5 -5t6.5 -18l15 -152q-2 -17 -8.5 -23t-21.5 -7zM491 672h389l-210 643z" />
<glyph unicode="&#x105;" horiz-adv-x="1196" d="M722 1151q296 0 296 -368q0 -87 -4 -225l-7 -196q-2 -59 -5 -112l-4 -95l60 5q33 2 75 6q21 0 21 -19l-18 -158q-3 -18 -22 -20l-214 -13q-56 -85 -56 -137q0 -64 96 -64q58 0 113.5 20t63.5 20q14 0 16 -17l21 -166q0 -14 -22 -22q-127 -40 -251 -40q-215 0 -215 179 q0 159 159 361q-167 -129 -363 -129q-153 0 -252 89q-105 94 -105 253q0 207 143 291q126 74 415 74q60 0 128 -3q1 26 1 48v38q0 195 -171 195q-89 0 -220 -54l4 -38q2 -19 2 -30q0 -22 -22 -22l-169 -3q-18 3 -20 22l-17 286q0 24 22 27l167 22q21 0 21 -22v-83 q179 100 333 100zM532 150q115 0 253 66q2 66 2.5 145.5t2.5 157.5q-263 0 -365 -45q-94 -42 -94 -140q0 -184 201 -184z" />
<glyph unicode="&#x106;" d="M1173 1530q40 0 42 -39l-12 -436q0 -26 -22 -26l-168 -4q-19 0 -21 23l-21 257q-122 30 -225 30t-174 -30.5t-117 -98.5q-89 -132 -89 -441q0 -467 226 -559q74 -30 180 -30t224 38l-5 134q2 18 24 22l166 28q17 0 21 -23l40 -390q0 -16 -23 -18l-172 -15q-40 0 -42 39 l-2 42q-139 -74 -293.5 -74t-260 53t-176.5 156q-143 209 -143 608q0 396 160 588q146 176 417 176q170 0 286 -38zM1092 1842q4 -8 4 -19.5t-15 -17.5l-494 -207q-8 -3 -15 -3t-11 10l-39 92q-4 10 -4 16t9 11l453 290q12 6 24 6t18 -14z" />
<glyph unicode="&#x107;" horiz-adv-x="1024" d="M327 1126.5q65 26.5 159.5 26.5t210.5 -29l188 35q18 -3 20 -22l17 -356q-2 -24 -22 -27l-167 -22q-21 0 -21 22v169q-64 15 -137 15t-128.5 -24t-86.5 -72q-54 -84 -54 -289q0 -308 126 -351q40 -14 92 -14q75 0 172 19l4 69q2 24 21 26l158 -6q14 -2 16 -23l18 -313 q0 -21 -20 -21h-192q-15 0 -17 19l3 57q-362 -71 -497 101q-96 124 -96 401q0 185 16 276t41 153t68 108t108 72.5zM856 1649q5 -7 5 -17t-8 -17l-462 -340q-6 -4 -12 -4t-12 6l-67 68q-8 10 -8 18.5t5 15.5l383 420q9 11 21.5 11t21.5 -11z" />
<glyph unicode="&#x108;" d="M1173 1530q40 0 42 -39l-12 -436q0 -26 -22 -26l-168 -4q-19 0 -21 23l-21 257q-122 30 -225 30t-174 -30.5t-117 -98.5q-89 -132 -89 -441q0 -467 226 -559q74 -30 180 -30t224 38l-5 134q2 18 24 22l166 28q17 0 21 -23l40 -390q0 -16 -23 -18l-172 -15q-40 0 -42 39 l-2 42q-139 -74 -293.5 -74t-260 53t-176.5 156q-143 209 -143 608q0 396 160 588q146 176 417 176q170 0 286 -38zM653 1985q29 23 45 25l95 10q16 0 46 -26l302 -251q7 -7 7 -14.5t-6 -14.5l-61 -73q-5 -6 -10.5 -6t-13.5 4l-320 159l-297 -154q-4 -2 -10 -2t-12 8l-62 76 q-6 8 -6 13t5 9z" />
<glyph unicode="&#x109;" horiz-adv-x="1024" d="M327 1126.5q65 26.5 159.5 26.5t210.5 -29l188 35q18 -3 20 -22l17 -356q-2 -24 -22 -27l-167 -22q-21 0 -21 22v169q-64 15 -137 15t-128.5 -24t-86.5 -72q-54 -84 -54 -289q0 -308 126 -351q40 -14 92 -14q75 0 172 19l4 69q2 24 21 26l158 -6q14 -2 16 -23l18 -313 q0 -21 -20 -21h-192q-15 0 -17 19l3 57q-362 -71 -497 101q-96 124 -96 401q0 185 16 276t41 153t68 108t108 72.5zM451 1745q22 22 42 25l101 10q23 0 47 -30l298 -381q5 -7 5 -16.5t-8 -17.5l-67 -68q-6 -6 -13 -6t-11 4l-310 280l-299 -277q-8 -6 -15 -6t-15 8l-70 72 q-8 8 -8 14.5t5 11.5z" />
<glyph unicode="&#x10a;" d="M1173 1530q40 0 42 -39l-12 -436q0 -26 -22 -26l-168 -4q-19 0 -21 23l-21 257q-122 30 -225 30t-174 -30.5t-117 -98.5q-89 -132 -89 -441q0 -467 226 -559q74 -30 180 -30t224 38l-5 134q2 18 24 22l166 28q17 0 21 -23l40 -390q0 -16 -23 -18l-172 -15q-40 0 -42 39 l-2 42q-139 -74 -293.5 -74t-260 53t-176.5 156q-143 209 -143 608q0 396 160 588q146 176 417 176q170 0 286 -38zM797.5 1730q-33.5 -5 -91 -5t-83.5 28.5t-26 84.5t6.5 82.5t24.5 41.5q31 26 135 26q68 0 89 -19q34 -32 34 -90t-8 -86t-27.5 -43t-53 -20z" />
<glyph unicode="&#x10b;" horiz-adv-x="1024" d="M327 1126.5q65 26.5 159.5 26.5t210.5 -29l188 35q18 -3 20 -22l17 -356q-2 -24 -22 -27l-167 -22q-21 0 -21 22v169q-64 15 -137 15t-128.5 -24t-86.5 -72q-54 -84 -54 -289q0 -308 126 -351q40 -14 92 -14q75 0 172 19l4 69q2 24 21 26l158 -6q14 -2 16 -23l18 -313 q0 -21 -20 -21h-192q-15 0 -17 19l3 57q-362 -71 -497 101q-96 124 -96 401q0 185 16 276t41 153t68 108t108 72.5zM597 1342q-32 -5 -76.5 -5t-68 5t-36.5 18q-24 24 -24 85t6.5 87.5t24.5 41.5q31 26 101.5 26t94.5 -3.5t38 -16.5q24 -21 24 -84t-7 -91t-26 -43t-51 -20z " />
<glyph unicode="&#x10c;" d="M1173 1530q40 0 42 -39l-12 -436q0 -26 -22 -26l-168 -4q-19 0 -21 23l-21 257q-122 30 -225 30t-174 -30.5t-117 -98.5q-89 -132 -89 -441q0 -467 226 -559q74 -30 180 -30t224 38l-5 134q2 18 24 22l166 28q17 0 21 -23l40 -390q0 -16 -23 -18l-172 -15q-40 0 -42 39 l-2 42q-139 -74 -293.5 -74t-260 53t-176.5 156q-143 209 -143 608q0 396 160 588q146 176 417 176q170 0 286 -38zM826 1643q-28 -24 -42 -25l-98 -9q-17 0 -46 25l-314 278q-7 7 -7 14t6 15l61 73q4 6 10 6t14 -4l331 -184l298 181q12 6 18 6t12 -8l60 -72q8 -11 8 -17 q0 -5 -5 -9z" />
<glyph unicode="&#x10d;" horiz-adv-x="1024" d="M327 1126.5q65 26.5 159.5 26.5t210.5 -29l188 35q18 -3 20 -22l17 -356q-2 -24 -22 -27l-167 -22q-21 0 -21 22v169q-64 15 -137 15t-128.5 -24t-86.5 -72q-54 -84 -54 -289q0 -308 126 -351q40 -14 92 -14q75 0 172 19l4 69q2 24 21 26l158 -6q14 -2 16 -23l18 -313 q0 -21 -20 -21h-192q-15 0 -17 19l3 57q-362 -71 -497 101q-96 124 -96 401q0 185 16 276t41 153t68 108t108 72.5zM621 1296q-22 -22 -42 -25l-101 -10q-23 0 -47 30l-298 381q-5 7 -5 16.5t8 17.5l67 68q6 6 13 6t11 -4l310 -280l299 277q6 6 14 6t16 -8l70 -72 q7 -7 7 -14t-4 -12z" />
<glyph unicode="&#x10e;" d="M246 1313q-61 -4 -141 -12q-11 0 -14 5t-4 17l-14 186q1 12 6.5 15.5t17.5 5.5q99 2 172.5 4t128 3t93 1.5t67 1t50.5 0.5h42q298 0 442 -156q167 -180 167 -598q0 -395 -169 -606q-161 -199 -445 -199q-298 0 -544 25q-17 1 -18 24l12 177q2 16 16 19l109 -8zM453 205 q84 -6 122 -6h64q203 0 298.5 141t95.5 421q0 464 -223 548q-72 27 -130 27q-100 0 -215 -7zM764 1643q-28 -24 -42 -25l-98 -9q-17 0 -46 25l-314 278q-7 7 -7 14t6 15l61 73q4 6 10 6t14 -4l331 -184l298 181q12 6 18 6t12 -8l60 -72q8 -11 8 -17q0 -5 -5 -9z" />
<glyph unicode="&#x10f;" horiz-adv-x="1360" d="M1161 1209q15 103 15 172t-10.5 112t-23.5 76t-23.5 57t-10.5 41.5t14 33.5t36 27q46 23 102 23q107 0 107 -159q0 -220 -89 -405zM658 1415q-20 0 -20 24l10 160q2 20 23 20l343 -19q18 -2 18 -23v-1404l105 11q20 0 20 -19l-18 -155q-3 -17 -23 -20l-248 -40 q-19 0 -19 22l8 99q-168 -69 -300.5 -69t-213.5 36t-131 108q-90 133 -90 440q0 444 229 536q77 31 209 31t279 -56l-13 315zM845 894q-143 35 -233.5 35t-138 -14t-77.5 -53q-58 -75 -58 -287q0 -211 46 -286q50 -81 191 -81q116 0 249 39z" />
<glyph unicode="&#x110;" d="M246 1313q-61 -4 -141 -12q-11 0 -14 5t-4 17l-14 186q1 12 6.5 15.5t17.5 5.5q99 2 172.5 4t128 3t93 1.5t67 1t50.5 0.5h42q298 0 442 -156q167 -180 167 -598q0 -395 -169 -606q-161 -199 -445 -199q-298 0 -544 25q-17 1 -18 24l12 177q2 16 16 19l109 -8l9 384 l-114 -6q-24 2 -24 19l-2 131q0 20 16 20l128 2zM453 205q84 -6 122 -6h64q203 0 298.5 141t95.5 421q0 464 -223 548q-72 27 -130 27q-100 0 -215 -7l-6 -558l333 23q16 0 16 -18l3 -137q0 -19 -13 -19l-331 -6l-10 -1z" />
<glyph unicode="&#x111;" horiz-adv-x="1194" d="M658 1415q-20 0 -20 24l10 160q2 20 23 20l343 -19q18 -2 18 -23v-228l136 -1q16 0 16 -21l-19 -120q-3 -18 -25 -18l-108 12v-1028l105 11q20 0 20 -19l-18 -155q-3 -17 -23 -20l-248 -40q-19 0 -19 22l8 99q-168 -69 -300.5 -69t-213.5 36t-131 108q-90 133 -90 440 q0 444 229 536q77 31 209 31t279 -56l-5 118l-234 -6q-12 1 -12 17l10 108q2 11 5 14.5t12 3.5l213 -2l-2 62zM845 894q-143 35 -233.5 35t-138 -14t-77.5 -53q-58 -75 -58 -287q0 -211 46 -286q50 -81 191 -81q116 0 249 39z" />
<glyph unicode="&#x112;" d="M1272 -41q-4 -23 -21 -23l-188 4q-22 0 -22 26l-2 61l-893 -25q-23 0 -24 24l6 184q0 15 16 19l125 -17l-8 1089l-126 -11q-18 0 -18 22l11 182q2 19 24 21l999 38q30 -2 30 -27l-20 -365q0 -23 -16 -23l-168 6q-14 1 -17 7t-4 19l-6 172l-473 -25l7 -466l491 31 q25 0 27 -23l7 -168q-2 -23 -21 -23l-502 -7l7 -457l540 18l-4 131q2 37 42 39l162 -5q23 -2 23 -18zM1007 1971q16 -2 16 -19l-18 -171q-2 -12 -6.5 -16t-17.5 -4l-624 6q-19 0 -19 24l10 151q1 19 20 19z" />
<glyph unicode="&#x113;" horiz-adv-x="1196" d="M847 6q-128 -32 -325 -32q-201 0 -292 124q-95 129 -95 409q0 294 81 439q92 160 294 195q70 12 156 12q185 0 269 -91t84 -278q0 -122 -43 -188q-14 -21 -38 -47.5t-88.5 -47t-147.5 -31.5q-129 -16 -355 -16q13 -169 83 -230q53 -48 184 -48q123 0 245 21l3 52 q1 12 5.5 16t16.5 7l144 32q22 0 25 -19q3 -17 6 -66.5t6 -85.5t5 -69l4 -56q1 -25 1 -42q0 -30 -44 -35l-166 -20q-22 0 -22 22zM785.5 714.5q5.5 30.5 5.5 72t-7.5 73.5t-25.5 55q-39 48 -127 48q-170 0 -227 -86q-54 -80 -60 -276q349 5 410 60q26 23 31.5 53.5z M929 1611q16 -2 16 -19l-18 -171q-2 -12 -6.5 -16t-17.5 -4l-629 6q-14 0 -14 24l10 151q2 19 16 19z" />
<glyph unicode="&#x114;" d="M1272 -41q-4 -23 -21 -23l-188 4q-22 0 -22 26l-2 61l-893 -25q-23 0 -24 24l6 184q0 15 16 19l125 -17l-8 1089l-126 -11q-18 0 -18 22l11 182q2 19 24 21l999 38q30 -2 30 -27l-20 -365q0 -23 -16 -23l-168 6q-14 1 -17 7t-4 19l-6 172l-473 -25l7 -466l491 31 q25 0 27 -23l7 -168q-2 -23 -21 -23l-502 -7l7 -457l540 18l-4 131q2 37 42 39l162 -5q23 -2 23 -18zM1039 2006q24 0 24 -23q0 -142 -95 -240q-101 -105 -268 -105q-171 0 -281 91q-113 94 -113 255q0 23 24 23l143 13q19 0 21.5 -32t19 -64t42.5 -55q56 -48 137 -48 q152 0 182 165q4 24 21 24z" />
<glyph unicode="&#x115;" horiz-adv-x="1196" d="M847 6q-128 -32 -325 -32q-201 0 -292 124q-95 129 -95 409q0 294 81 439q92 160 294 195q70 12 156 12q185 0 269 -91t84 -278q0 -122 -43 -188q-14 -21 -38 -47.5t-88.5 -47t-147.5 -31.5q-129 -16 -355 -16q13 -169 83 -230q53 -48 184 -48q123 0 245 21l3 52 q1 12 5.5 16t16.5 7l144 32q22 0 25 -19q3 -17 6 -66.5t6 -85.5t5 -69l4 -56q1 -25 1 -42q0 -30 -44 -35l-166 -20q-22 0 -22 22zM785.5 714.5q5.5 30.5 5.5 72t-7.5 73.5t-25.5 55q-39 48 -127 48q-170 0 -227 -86q-54 -80 -60 -276q349 5 410 60q26 23 31.5 53.5z M970 1698q24 0 24 -23q0 -142 -94 -240q-102 -105 -269 -105q-171 0 -281 91q-113 94 -113 255q0 21 24 23l143 13q19 0 21.5 -32t19 -64t43.5 -55q55 -48 136 -48q152 0 182 165q4 24 21 24z" />
<glyph unicode="&#x116;" d="M1272 -41q-4 -23 -21 -23l-188 4q-22 0 -22 26l-2 61l-893 -25q-23 0 -24 24l6 184q0 15 16 19l125 -17l-8 1089l-126 -11q-18 0 -18 22l11 182q2 19 24 21l999 38q30 -2 30 -27l-20 -365q0 -23 -16 -23l-168 6q-14 1 -17 7t-4 19l-6 172l-473 -25l7 -466l491 31 q25 0 27 -23l7 -168q-2 -23 -21 -23l-502 -7l7 -457l540 18l-4 131q2 37 42 39l162 -5q23 -2 23 -18zM740.5 1730q-33.5 -5 -91 -5t-83.5 28.5t-26 84.5t6.5 82.5t24.5 41.5q31 26 135 26q68 0 89 -19q34 -32 34 -90t-8 -86t-27.5 -43t-53 -20z" />
<glyph unicode="&#x117;" horiz-adv-x="1196" d="M847 6q-128 -32 -325 -32q-201 0 -292 124q-95 129 -95 409q0 294 81 439q92 160 294 195q70 12 156 12q185 0 269 -91t84 -278q0 -122 -43 -188q-14 -21 -38 -47.5t-88.5 -47t-147.5 -31.5q-129 -16 -355 -16q13 -169 83 -230q53 -48 184 -48q123 0 245 21l3 52 q1 12 5.5 16t16.5 7l144 32q22 0 25 -19q3 -17 6 -66.5t6 -85.5t5 -69l4 -56q1 -25 1 -42q0 -30 -44 -35l-166 -20q-22 0 -22 22zM785.5 714.5q5.5 30.5 5.5 72t-7.5 73.5t-25.5 55q-39 48 -127 48q-170 0 -227 -86q-54 -80 -60 -276q349 5 410 60q26 23 31.5 53.5z M666 1342q-32 -5 -76.5 -5t-68 5t-37.5 18q-23 24 -23 85t6.5 87.5t24.5 41.5q31 26 101.5 26t94.5 -3.5t38 -16.5q24 -21 24 -84t-7 -91t-26 -43t-51 -20z" />
<glyph unicode="&#x118;" d="M1272 -41q-4 -23 -21 -23l-188 4q-22 0 -22 26l-1 36q-89 -115 -89 -181t96 -66q58 0 113.5 20t63.5 20q14 0 16 -17l21 -166q0 -14 -22 -22q-127 -40 -251 -40q-215 0 -215 179q0 128 110 293l-737 -20q-23 0 -24 24l6 184q0 15 16 19l125 -17l-8 1089l-126 -11 q-18 0 -18 22l11 182q2 19 24 21l999 38q30 -2 30 -27l-20 -365q0 -23 -16 -23l-168 6q-14 1 -17 7t-4 19l-6 172l-473 -25l7 -466l491 31q25 0 27 -23l7 -168q-2 -23 -21 -23l-502 -7l7 -457l540 18l-4 131q2 37 42 39l162 -5q23 -2 23 -18z" />
<glyph unicode="&#x119;" horiz-adv-x="1196" d="M656 -21q-85 -5 -159 -5t-147 30t-120 94q-95 129 -95 409q0 294 81 439q92 160 294 195q70 12 156 12q185 0 269 -91t84 -278q0 -122 -43 -188q-14 -21 -38 -47.5t-88.5 -47t-147.5 -31.5q-129 -16 -355 -16q13 -169 83 -230q53 -48 184 -48q97 0 242 20q2 34 4 59.5 t2 35.5q0 15 22 21l144 32q22 0 24 -14t6 -50l7 -77q10 -105 10 -129q0 -38 -44 -43l-189 -25q-91 -115 -91 -187q0 -64 96 -64q58 0 113.5 20t63.5 20q14 0 16 -17l21 -166q0 -14 -22 -22q-127 -40 -251 -40q-215 0 -215 179q0 112 83 250zM785.5 714.5q5.5 30.5 5.5 72 t-7.5 73.5t-25.5 55q-39 48 -127 48q-170 0 -227 -86q-54 -80 -60 -276q349 5 410 60q26 23 31.5 53.5z" />
<glyph unicode="&#x11a;" d="M1272 -41q-4 -23 -21 -23l-188 4q-22 0 -22 26l-2 61l-893 -25q-23 0 -24 24l6 184q0 15 16 19l125 -17l-8 1089l-126 -11q-18 0 -18 22l11 182q2 19 24 21l999 38q30 -2 30 -27l-20 -365q0 -23 -16 -23l-168 6q-14 1 -17 7t-4 19l-6 172l-473 -25l7 -466l491 31 q25 0 27 -23l7 -168q-2 -23 -21 -23l-502 -7l7 -457l540 18l-4 131q2 37 42 39l162 -5q23 -2 23 -18zM769 1643q-28 -24 -42 -25l-98 -9q-17 0 -46 25l-314 278q-7 7 -7 14t6 15l61 73q4 6 10 6t14 -4l331 -184l298 181q12 6 18 6t12 -8l60 -72q8 -11 8 -17q0 -5 -5 -9z" />
<glyph unicode="&#x11b;" horiz-adv-x="1196" d="M847 6q-128 -32 -325 -32q-201 0 -292 124q-95 129 -95 409q0 294 81 439q92 160 294 195q70 12 156 12q185 0 269 -91t84 -278q0 -122 -43 -188q-14 -21 -38 -47.5t-88.5 -47t-147.5 -31.5q-129 -16 -355 -16q13 -169 83 -230q53 -48 184 -48q123 0 245 21l3 52 q1 12 5.5 16t16.5 7l144 32q22 0 25 -19q3 -17 6 -66.5t6 -85.5t5 -69l4 -56q1 -25 1 -42q0 -30 -44 -35l-166 -20q-22 0 -22 22zM785.5 714.5q5.5 30.5 5.5 72t-7.5 73.5t-25.5 55q-39 48 -127 48q-170 0 -227 -86q-54 -80 -60 -276q349 5 410 60q26 23 31.5 53.5z M690 1296q-22 -22 -42 -25l-101 -10q-23 0 -47 30l-298 381q-5 7 -5 16.5t8 17.5l67 68q6 6 13 6t11 -4l310 -280l299 277q6 6 14 6t16 -8l70 -72q7 -7 7 -14t-4 -12z" />
<glyph unicode="&#x11c;" d="M729 596q-23 4 -23 21l4 178q0 20 26 22l487 32q37 -2 39 -42l-5 -172q0 -11 -6 -17t-12 -6l-52 -2l18 -595q-2 -28 -26 -28q-56 0 -189 69q-135 -78 -291.5 -78t-266.5 46.5t-184 145.5q-152 200 -152 620q0 586 330 710q105 40 235 40q186 0 305 -97l20 121q3 25 22 26 l157 14q24 0 24 -23l11 -366q0 -19 -20 -22l-190 -26q-61 81 -108 110q-84 52 -173 52t-162.5 -25t-125.5 -87q-109 -130 -109 -431q0 -485 244 -567q77 -26 188 -26t233 44l-5 366zM546 1985q29 23 45 25l95 10q16 0 46 -26l302 -251q7 -7 7 -14.5t-6 -14.5l-61 -73 q-5 -6 -10.5 -6t-13.5 4l-320 159l-297 -154q-4 -2 -10 -2t-12 8l-62 76q-6 8 -6 13t5 9z" />
<glyph unicode="&#x11d;" horiz-adv-x="1196" d="M1096 1141q27 0 29 -36l-13 -157q-2 -21 -23 -21l-180 35q107 -114 107 -206t-24.5 -166.5t-79.5 -125.5q-111 -104 -349 -104q-94 0 -170 20q-24 -55 -24 -90t5 -50t20 -24q27 -17 82.5 -17t104.5 3q127 6 203.5 6t138 -25t99.5 -67q74 -82 74 -217q0 -165 -131 -269 q-144 -115 -404 -115q-217 0 -318 55q-113 62 -113 191t115 279q-80 45 -80 145.5t116 240.5q-162 94 -162 323q0 201 133 307q119 95 327 95q108 0 198 -3q210 -7 319 -7zM802 677q11 40 11 86t-13.5 85.5t-41.5 67.5q-60 60 -173 60q-180 0 -235 -122q-19 -44 -19 -107 q0 -205 254 -205q178 0 217 135zM713 10l-274 -8q-40 0 -71 3q-33 -81 -33 -159t61 -108.5t165 -30.5t161 12.5t96 34.5q78 46 78 120q0 63 -26 88q-49 48 -157 48zM537 1745q22 22 42 25l101 10q23 0 47 -30l298 -381q5 -7 5 -16.5t-8 -17.5l-67 -68q-6 -6 -13 -6t-11 4 l-310 280l-299 -277q-8 -6 -15 -6t-15 8l-70 72q-8 8 -8 14.5t5 11.5z" />
<glyph unicode="&#x11e;" d="M729 596q-23 4 -23 21l4 178q0 20 26 22l487 32q37 -2 39 -42l-5 -172q0 -11 -6 -17t-12 -6l-52 -2l18 -595q-2 -28 -26 -28q-56 0 -189 69q-135 -78 -291.5 -78t-266.5 46.5t-184 145.5q-152 200 -152 620q0 586 330 710q105 40 235 40q186 0 305 -97l20 121q3 25 22 26 l157 14q24 0 24 -23l11 -366q0 -19 -20 -22l-190 -26q-61 81 -108 110q-84 52 -173 52t-162.5 -25t-125.5 -87q-109 -130 -109 -431q0 -485 244 -567q77 -26 188 -26t233 44l-5 366zM989 2006q24 0 24 -23q0 -142 -95 -240q-101 -105 -268 -105q-171 0 -281 91 q-113 94 -113 255q0 23 24 23l143 13q19 0 21.5 -32t19 -64t42.5 -55q56 -48 137 -48q152 0 182 165q4 24 21 24z" />
<glyph unicode="&#x11f;" horiz-adv-x="1196" d="M1096 1141q27 0 29 -36l-13 -157q-2 -21 -23 -21l-180 35q107 -114 107 -206t-24.5 -166.5t-79.5 -125.5q-111 -104 -349 -104q-94 0 -170 20q-24 -55 -24 -90t5 -50t20 -24q27 -17 82.5 -17t104.5 3q127 6 203.5 6t138 -25t99.5 -67q74 -82 74 -217q0 -165 -131 -269 q-144 -115 -404 -115q-217 0 -318 55q-113 62 -113 191t115 279q-80 45 -80 145.5t116 240.5q-162 94 -162 323q0 201 133 307q119 95 327 95q108 0 198 -3q210 -7 319 -7zM802 677q11 40 11 86t-13.5 85.5t-41.5 67.5q-60 60 -173 60q-180 0 -235 -122q-19 -44 -19 -107 q0 -205 254 -205q178 0 217 135zM713 10l-274 -8q-40 0 -71 3q-33 -81 -33 -159t61 -108.5t165 -30.5t161 12.5t96 34.5q78 46 78 120q0 63 -26 88q-49 48 -157 48zM987 1698q24 0 24 -23q0 -142 -95 -240q-101 -105 -268 -105q-171 0 -281 91q-113 94 -113 255q0 21 24 23 l143 13q19 0 21.5 -32t19 -64t42.5 -55q56 -48 137 -48q152 0 182 165q4 24 21 24z" />
<glyph unicode="&#x120;" d="M729 596q-23 4 -23 21l4 178q0 20 26 22l487 32q37 -2 39 -42l-5 -172q0 -11 -6 -17t-12 -6l-52 -2l18 -595q-2 -28 -26 -28q-56 0 -189 69q-135 -78 -291.5 -78t-266.5 46.5t-184 145.5q-152 200 -152 620q0 586 330 710q105 40 235 40q186 0 305 -97l20 121q3 25 22 26 l157 14q24 0 24 -23l11 -366q0 -19 -20 -22l-190 -26q-61 81 -108 110q-84 52 -173 52t-162.5 -25t-125.5 -87q-109 -130 -109 -431q0 -485 244 -567q77 -26 188 -26t233 44l-5 366zM690.5 1730q-33.5 -5 -91 -5t-83.5 28.5t-26 84.5t6.5 82.5t24.5 41.5q31 26 135 26 q68 0 89 -19q34 -32 34 -90t-8 -86t-27.5 -43t-53 -20z" />
<glyph unicode="&#x121;" horiz-adv-x="1196" d="M1096 1141q27 0 29 -36l-13 -157q-2 -21 -23 -21l-180 35q107 -114 107 -206t-24.5 -166.5t-79.5 -125.5q-111 -104 -349 -104q-94 0 -170 20q-24 -55 -24 -90t5 -50t20 -24q27 -17 82.5 -17t104.5 3q127 6 203.5 6t138 -25t99.5 -67q74 -82 74 -217q0 -165 -131 -269 q-144 -115 -404 -115q-217 0 -318 55q-113 62 -113 191t115 279q-80 45 -80 145.5t116 240.5q-162 94 -162 323q0 201 133 307q119 95 327 95q108 0 198 -3q210 -7 319 -7zM802 677q11 40 11 86t-13.5 85.5t-41.5 67.5q-60 60 -173 60q-180 0 -235 -122q-19 -44 -19 -107 q0 -205 254 -205q178 0 217 135zM713 10l-274 -8q-40 0 -71 3q-33 -81 -33 -159t61 -108.5t165 -30.5t161 12.5t96 34.5q78 46 78 120q0 63 -26 88q-49 48 -157 48zM673 1342q-32 -5 -76.5 -5t-68 5t-36.5 18q-24 24 -24 85t6.5 87.5t24.5 41.5q31 26 101.5 26t94.5 -3.5 t38 -16.5q24 -21 24 -84t-7 -91t-26 -43t-51 -20z" />
<glyph unicode="&#x122;" d="M729 596q-23 4 -23 21l4 178q0 20 26 22l487 32q37 -2 39 -42l-5 -172q0 -11 -6 -17t-12 -6l-52 -2l18 -595q-2 -28 -26 -28q-56 0 -189 69q-135 -78 -291.5 -78t-266.5 46.5t-184 145.5q-152 200 -152 620q0 586 330 710q105 40 235 40q186 0 305 -97l20 121q3 25 22 26 l157 14q24 0 24 -23l11 -366q0 -19 -20 -22l-190 -26q-61 81 -108 110q-84 52 -173 52t-162.5 -25t-125.5 -87q-109 -130 -109 -431q0 -485 244 -567q77 -26 188 -26t233 44l-5 366zM687 -540l-95 36q-14 5 -14 12t5 17.5t13 29.5t15 38q16 43 16 63q0 28 -35 53 q-36 28 -36 50t14 47.5t36 45.5q48 47 91 47t67.5 -12.5t39.5 -32.5q28 -39 28 -89.5t-11 -88t-29 -72.5q-27 -56 -60 -100t-45 -44z" />
<glyph unicode="&#x123;" horiz-adv-x="1196" d="M1096 1141q27 0 29 -36l-13 -157q-2 -21 -23 -21l-180 35q107 -114 107 -206t-24.5 -166.5t-79.5 -125.5q-111 -104 -349 -104q-94 0 -170 20q-24 -55 -24 -90t5 -50t20 -24q27 -17 82.5 -17t104.5 3q127 6 203.5 6t138 -25t99.5 -67q74 -82 74 -217q0 -165 -131 -269 q-144 -115 -404 -115q-217 0 -318 55q-113 62 -113 191t115 279q-80 45 -80 145.5t116 240.5q-162 94 -162 323q0 201 133 307q119 95 327 95q108 0 198 -3q210 -7 319 -7zM802 677q11 40 11 86t-13.5 85.5t-41.5 67.5q-60 60 -173 60q-180 0 -235 -122q-19 -44 -19 -107 q0 -205 254 -205q178 0 217 135zM713 10l-274 -8q-40 0 -71 3q-33 -81 -33 -159t61 -108.5t165 -30.5t161 12.5t96 34.5q78 46 78 120q0 63 -26 88q-49 48 -157 48zM691 1860q-15 -103 -15 -165t5.5 -95t14 -61t18.5 -51l18 -41q12 -27 12 -45t-16.5 -34t-41.5 -27 q-52 -23 -111 -23q-107 0 -107 159q0 185 106 405z" />
<glyph unicode="&#x124;" horiz-adv-x="1538" d="M664 240q16 0 16 -19l-13 -188q-2 -20 -24 -20l-464 -7q-17 0 -18 24l2 177q0 15 16 19l107 -3v1081l-133 -1q-11 0 -14 5t-4 17l-9 176q1 12 6.5 15.5t17.5 5.5l499 -8q18 -2 18 -23l-4 -176q0 -22 -23 -22l-131 7l-1 -442l542 7v457l-137 4q-11 0 -14 5t-4 17l6 166 q2 21 24 21l467 2q11 -1 14 -5.5t4 -17.5l13 -179q0 -22 -23 -22l-127 3l-3 -1111l154 5q16 0 16 -19l-13 -178q-2 -20 -24 -20l-474 13q-17 0 -18 24l2 167q0 15 16 19l121 -9v456l-543 -4l-1 -430zM686 1985q29 23 45 25l95 10q16 0 46 -26l302 -251q7 -7 7 -14.5 t-6 -14.5l-61 -73q-5 -6 -10.5 -6t-13.5 4l-320 159l-297 -154q-4 -2 -10 -2t-12 8l-62 76q-6 8 -6 13t5 9z" />
<glyph unicode="&#x125;" horiz-adv-x="1370" d="M917 704q0 222 -159 222q-90 0 -207 -47q-35 -14 -64 -30l-4 -659l121 -12q16 -2 16 -18l-18 -129q-3 -21 -23 -21l-422 -7q-15 0 -15 24l19 176q2 11 6 15t17 4l76 -8v772l20 367l-143 -11q-22 0 -22 24v153q0 18 24 20l339 14q21 0 23 -24l-24 -494q180 117 360 117 q243 0 285 -262q13 -82 13 -239.5t-21 -446.5l120 6q21 -2 21 -21v-147q0 -20 -23 -20l-430 -10q-16 0 -16 24l22 135q2 13 6.5 16.5t15.5 4.5l84 3q1 60 2 133v145q1 71 1 133v98zM582 1985q29 23 45 25l95 10q16 0 46 -26l302 -251q7 -7 7 -14.5t-6 -14.5l-61 -73 q-5 -6 -10.5 -6t-13.5 4l-320 159l-297 -154q-4 -2 -10 -2t-12 8l-62 76q-6 8 -6 13t5 9z" />
<glyph unicode="&#x126;" horiz-adv-x="1538" d="M664 240q16 0 16 -19l-13 -188q-2 -20 -24 -20l-464 -7q-17 0 -18 24l2 177q0 15 16 19l107 -3v787l-183 -9q-21 2 -21 20l12 131q1 18 18 19l174 -8v141l-133 -1q-11 0 -14 5t-4 17l-9 176q1 12 6.5 15.5t17.5 5.5l499 -8q18 -2 18 -23l-4 -176q0 -22 -23 -22l-131 7 l-1 -142l542 -4v168l-137 4q-11 0 -14 5t-4 17l6 166q2 21 24 21l467 2q11 -1 14 -5.5t4 -17.5l13 -179q0 -22 -23 -22l-127 3l-1 -160l165 5q14 0 16 -19l10 -121q-4 -24 -22 -24l-169 10l-2 -802l154 5q16 0 16 -19l-13 -178q-2 -20 -24 -20l-474 13q-17 0 -18 24l2 167 q0 15 16 19l121 -9v456l-543 -4l-1 -430zM1050 865v151l-542 3v-161z" />
<glyph unicode="&#x127;" horiz-adv-x="1370" d="M917 704q0 222 -159 222q-90 0 -207 -47q-35 -14 -64 -30l-4 -659l121 -12q16 -2 16 -18l-18 -129q-3 -21 -23 -21l-422 -7q-15 0 -15 24l19 176q2 11 6 15t17 4l76 -8v832l6 119l-169 -34q-16 0 -18 18l-8 139q0 16 12 17l192 24l5 84l-143 -11q-22 0 -22 24v153 q0 18 24 20l339 14q21 0 23 -24l-10 -225l223 44q24 0 26 -19l7 -130q0 -17 -15 -20l-248 -36l-7 -168q180 117 360 117q243 0 285 -262q13 -82 13 -239.5t-21 -446.5l120 6q21 -2 21 -21v-147q0 -20 -23 -20l-430 -10q-16 0 -16 24l22 135q2 13 6.5 16.5t15.5 4.5l84 3 q1 60 2 133v145q1 71 1 133v98z" />
<glyph unicode="&#x128;" horiz-adv-x="682" d="M585 210q16 0 16 -19l-3 -178q0 -20 -24 -20l-464 13q-17 0 -18 24l-8 177q2 16 16 19l139 -10l-8 1089l-137 1q-18 0 -18 22l16 176q1 12 6.5 15.5t17.5 5.5l467 -18q11 -1 14 -5.5t4 -17.5l-7 -159q-2 -22 -23 -22h-117l-3 -1093h134zM-74 1842q0 17 50.5 59.5 t84.5 63.5q76 47 128 47q42 0 109.5 -37.5t106.5 -56t66.5 -18.5t52 6t47.5 15.5t44 20.5l38 20q33 19 44 19t18 -19l33 -78q2 -5 2 -12q0 -13 -47.5 -57.5t-82.5 -68.5q-80 -56 -128.5 -56t-88 17.5t-79.5 37.5q-106 53 -134 53t-47.5 -5t-40 -13t-40.5 -17l-38 -17 q-32 -15 -43 -15q-16 0 -23 20z" />
<glyph unicode="&#x129;" horiz-adv-x="683" d="M150 -14q-14 0 -14 24v151q0 19 16 19h120l8 699l-162 17q-18 2 -18 22l22 165q3 18 24 21l321 33q11 0 14 -5.5t4 -17.5l13 -182l-3 -752h114q16 0 16 -19l-18 -131q-2 -12 -6.5 -15.5t-17.5 -4.5zM-30 1462q0 15 49 58.5t81 64.5q72 47 112.5 47t75.5 -18t70 -39 q93 -55 125 -55t58 7t50 17.5t45 22.5l35 21q21 13 31 13t17 -19l33 -78q2 -5 2 -12q0 -9 -17 -27l-46 -47q-110 -108 -199 -108q-46 0 -143 54t-130 54q-49 0 -99 -26q-80 -41 -92 -41q-19 0 -26 20z" />
<glyph unicode="&#x12a;" horiz-adv-x="682" d="M585 210q16 0 16 -19l-3 -178q0 -20 -24 -20l-464 13q-17 0 -18 24l-8 177q2 16 16 19l139 -10l-8 1089l-137 1q-18 0 -18 22l16 176q1 12 6.5 15.5t17.5 5.5l467 -18q11 -1 14 -5.5t4 -17.5l-7 -159q-2 -22 -23 -22h-117l-3 -1093h134zM661 1971q16 -2 16 -19l-18 -171 q-2 -12 -6.5 -16t-17.5 -4l-624 6q-19 0 -19 24l10 151q1 19 20 19z" />
<glyph unicode="&#x12b;" horiz-adv-x="683" d="M150 -14q-14 0 -14 24v151q0 19 16 19h120l8 699l-162 17q-18 2 -18 22l22 165q3 18 24 21l321 33q11 0 14 -5.5t4 -17.5l13 -182l-3 -752h114q16 0 16 -19l-18 -131q-2 -12 -6.5 -15.5t-17.5 -4.5zM686 1611q16 -2 16 -19l-18 -171q-2 -12 -6.5 -16t-17.5 -4l-629 6 q-14 0 -14 24l10 151q2 19 16 19z" />
<glyph unicode="&#x12c;" horiz-adv-x="682" d="M585 210q16 0 16 -19l-3 -178q0 -20 -24 -20l-464 13q-17 0 -18 24l-8 177q2 16 16 19l139 -10l-8 1089l-137 1q-18 0 -18 22l16 176q1 12 6.5 15.5t17.5 5.5l467 -18q11 -1 14 -5.5t4 -17.5l-7 -159q-2 -22 -23 -22h-117l-3 -1093h134zM693 2006q24 0 24 -23 q0 -142 -95 -240q-101 -105 -268 -105q-171 0 -281 91q-113 94 -113 255q0 23 24 23l143 13q19 0 21.5 -32t19 -64t42.5 -55q56 -48 137 -48q152 0 182 165q4 24 21 24z" />
<glyph unicode="&#x12d;" horiz-adv-x="683" d="M150 -14q-14 0 -14 24v151q0 19 16 19h120l8 699l-162 17q-18 2 -18 22l22 165q3 18 24 21l321 33q11 0 14 -5.5t4 -17.5l13 -182l-3 -752h114q16 0 16 -19l-18 -131q-2 -12 -6.5 -15.5t-17.5 -4.5zM727 1698q24 0 24 -23q0 -142 -95 -240q-101 -105 -268 -105 q-171 0 -281 91q-113 94 -113 255q0 21 24 23l143 13q19 0 21.5 -32t19 -64t42.5 -55q56 -48 137 -48q152 0 182 165q4 24 21 24z" />
<glyph unicode="&#x12e;" horiz-adv-x="682" d="M585 210q16 0 16 -19l-3 -178q0 -20 -24 -20l-145 4l-37 -41q-62 -71 -62 -129q0 -72 96 -72q53 0 97.5 20t54 20t11.5 -17l21 -166q0 -14 -22 -22q-125 -40 -221 -40q-215 0 -215 179q0 102 110 272l-152 5q-17 0 -18 24l-8 177q2 16 16 19l139 -10l-8 1089l-137 1 q-18 0 -18 22l16 176q1 12 6.5 15.5t17.5 5.5l467 -18q11 -1 14 -5.5t4 -17.5l-7 -159q-2 -22 -23 -22h-117l-3 -1093h134z" />
<glyph unicode="&#x12f;" horiz-adv-x="683" d="M150 -14q-14 0 -14 24v151q0 19 16 19h120l8 699l-162 17q-18 2 -18 22l22 165q4 18 24 21l321 33q11 0 14 -5.5t4 -17.5l13 -182l-3 -752h114q16 0 16 -19l-18 -131q-2 -12 -6.5 -15.5t-17.5 -4.5l-132 -8q-98 -113 -98 -175q0 -72 96 -72q54 0 103 20t58.5 20t11.5 -17 l21 -166q0 -14 -22 -22q-127 -40 -231 -40q-215 0 -215 179q0 102 100 264zM410 1342q-32 -5 -76.5 -5t-68 5t-37.5 18q-23 24 -23 85t6.5 87.5t24.5 41.5q31 26 101.5 26t94.5 -3.5t38 -16.5q24 -21 24 -84t-7 -91t-26 -43t-51 -20z" />
<glyph unicode="&#x130;" horiz-adv-x="682" d="M585 210q16 0 16 -19l-3 -178q0 -20 -24 -20l-464 13q-17 0 -18 24l-8 177q2 16 16 19l139 -10l-8 1089l-137 1q-18 0 -18 22l16 176q1 12 6.5 15.5t17.5 5.5l467 -18q11 -1 14 -5.5t4 -17.5l-7 -159q-2 -22 -23 -22h-117l-3 -1093h134zM394.5 1730q-33.5 -5 -91 -5 t-83.5 28.5t-26 84.5t6.5 82.5t24.5 41.5q31 26 135 26q68 0 89 -19q34 -32 34 -90t-8 -86t-27.5 -43t-53 -20z" />
<glyph unicode="&#x131;" horiz-adv-x="683" d="M150 -14q-14 0 -14 24v151q0 19 16 19h120l8 699l-162 17q-18 2 -18 22l22 165q3 18 24 21l321 33q11 0 14 -5.5t4 -17.5l13 -182l-3 -752h114q16 0 16 -19l-18 -131q-2 -12 -6.5 -15.5t-17.5 -4.5z" />
<glyph unicode="&#x132;" horiz-adv-x="1534" d="M1360 1315q44 -512 44 -1056q0 -246 -89 -347q-86 -99 -291 -99h-12l14 -101q0 -22 -23 -25l-153 -15q-38 0 -42 39l-28 437q0 25 22 26l139 14q17 0 21 -23l25 -176h4q109 0 153 75.5t44 253.5q0 348 -46 992l-207 -12q-16 0 -16 19l-7 188q1 12 6 15.5t18 4.5l562 17 q16 0 18 -21l8 -190q-2 -16 -16 -19zM585 210q16 0 16 -19l-3 -178q0 -20 -24 -20l-464 13q-17 0 -18 24l-8 177q2 16 16 19l139 -10l-8 1089l-137 1q-18 0 -18 22l16 176q1 12 6.5 15.5t17.5 5.5l467 -18q11 -1 14 -5.5t4 -17.5l-7 -159q-2 -22 -23 -22h-117l-3 -1093h134z " />
<glyph unicode="&#x133;" horiz-adv-x="1365" d="M150 -14q-14 0 -14 24v151q0 19 16 19h120l8 699l-162 17q-18 2 -18 22l22 165q4 18 24 21l321 33q11 0 14 -5.5t4 -17.5l13 -182l-3 -752h114q16 0 16 -19l-18 -131q-2 -12 -6.5 -15.5t-17.5 -4.5zM410 1342q-32 -5 -76.5 -5t-68 5t-37.5 18q-23 24 -23 85t6.5 87.5 t24.5 41.5q31 26 101.5 26t94.5 -3.5t38 -16.5q24 -21 24 -84t-7 -91t-26 -43t-51 -20zM767 -241q218 0 218 166q0 69 -1 149v166q-1 85 -2 174q-4 356 -6 480l-174 -8q-16 2 -18 22l-15 181q1 25 25 26l364 22q17 -2 21 -23l-7 -189q2 -50 5 -115.5t6 -140.5l6 -157 q10 -276 10 -437.5t-15 -251t-58 -149.5q-88 -122 -329 -122q-19 0 -23 23l-30 164q0 20 23 20zM1187 1511q0 -177 -112 -177q-187 0 -187 96q0 173 112 173q187 0 187 -92z" />
<glyph unicode="&#x134;" horiz-adv-x="852" d="M679 1315q43 -485 43 -958q0 -246 -89 -347q-86 -99 -291 -99q-17 0 -33 2l-33 4l8 -54q0 -16 -23 -18l-153 -15q-38 0 -42 39l-28 437q2 23 22 26l139 14q17 0 21 -23l31 -228q27 -8 69.5 -8t80.5 18t61 57q44 76 44 254q0 248 -18 503l-28 391l-207 -12q-16 0 -16 19 l-7 188q1 12 6 15.5t18 4.5l562 17q16 0 18 -24l8 -187q-2 -16 -16 -19zM463 1985q29 23 45 25l95 10q16 0 46 -26l302 -251q7 -7 7 -14.5t-6 -14.5l-61 -73q-5 -6 -10.5 -6t-13.5 4l-320 159l-297 -154q-4 -2 -10 -2t-12 8l-62 76q-6 8 -6 13t5 9z" />
<glyph unicode="&#x135;" horiz-adv-x="682" d="M84 -241q218 0 218 166v149l-2 166q0 85 -1 174q-4 356 -6 480l-174 -8q-16 2 -18 22l-15 181q1 25 25 26l364 22q17 -2 21 -23l-7 -189q3 -50 5 -115q22 -550 22 -723.5t-15 -263t-59 -149.5q-87 -122 -328 -122q-19 0 -23 23l-30 164q0 20 23 20zM255 1745q22 22 42 25 l101 10q23 0 47 -30l298 -381q5 -7 5 -16.5t-8 -17.5l-67 -68q-6 -6 -13 -6t-11 4l-310 280l-299 -277q-8 -6 -15 -6t-15 8l-70 72q-8 8 -8 14.5t5 11.5z" />
<glyph unicode="&#x136;" d="M854 1316q-18 0 -18 22l16 186q1 17 24 21l417 -8q18 -2 18 -23l3 -179q0 -22 -23 -22l-111 1l-410 -582l374 -510l172 -12q33 -2 33 -34l1 -147q0 -43 -37 -45l-262 -7q-22 2 -35 20l-414 633l-121 -4v-406h104q16 0 16 -19l7 -188q-2 -20 -24 -20l-464 3q-17 0 -18 24 l-8 197q2 16 16 19l147 -9v1093l-143 -14q-11 0 -14 5t-4 17l-14 196q2 21 24 21l477 2q11 -1 14 -5.5t4 -17.5l-17 -189q-3 -22 -23 -22l-80 5v-520l126 8l339 509zM714 -540l-95 36q-14 5 -14 12t5 17.5t13 29.5t15 38q16 43 16 63q0 28 -35 53q-36 28 -36 50t14 47.5 t35 45.5q49 47 92 47t67.5 -12.5t39.5 -32.5q28 -39 28 -89.5t-11 -88t-28 -72.5q-28 -56 -61 -100t-45 -44z" />
<glyph unicode="&#x137;" horiz-adv-x="1195" d="M73 161q2 19 16 19h129v1197l-143 19q-11 2 -14.5 6t-3.5 16l-4 136q0 18 24 21l307 32q19 0 22 -24l19 -178l-13 -756l128 5l241 297l-122 -14q-16 0 -16 19l8 161q2 20 24 20l453 4q14 0 14 -24l-10 -151q-2 -19 -16 -19l-101 9l-313 -373l288 -386l165 -6q19 0 21 -24 l10 -137q0 -12 -5.5 -15.5t-17.5 -4.5l-305 -12q-13 0 -27 22l-303 463l-119 -9l-5 -285l102 11q16 0 16 -19l-8 -151q-1 -12 -6 -15.5t-18 -4.5l-393 -14q-15 0 -17 25zM627 -540l-95 36q-14 5 -14 12t5 17.5t13 29.5t15 38q16 43 16 63q0 28 -35 53q-36 28 -36 50t14 47.5 t36 45.5q48 47 91 47t67.5 -12.5t39.5 -32.5q28 -39 28 -89.5t-11 -88t-29 -72.5q-27 -56 -60 -100t-45 -44z" />
<glyph unicode="&#x138;" horiz-adv-x="1195" d="M82 -4q-14 0 -14 24l10 131q2 19 16 19h111l16 766l-151 20q-11 2 -14.5 6t-3.5 16l16 130q4 24 24 27l297 42q18 0 22 -24q19 -105 19 -176l-12 -324l140 -6l245 309l-129 -9q-16 0 -16 19l18 171q2 12 6.5 15.5t17.5 4.5l428 -16q17 0 19 -24l10 -151q0 -19 -16 -19 l-112 10l-322 -377l272 -394l191 15q21 0 21 -24l-10 -147q-1 -12 -6 -15.5t-17 -4.5l-295 -22q-13 0 -27 22l-284 468h-140l-12 -304l111 6q16 0 16 -19l-8 -151q-1 -12 -6 -15.5t-18 -4.5z" />
<glyph unicode="&#x139;" horiz-adv-x="1196" d="M969 -43q-17 0 -21 23l-5 48l-843 -35q-17 0 -18 24l16 174q2 16 16 19l138 -6l9 1100l-136 -13q-11 0 -14 5t-4 17l-9 180q1 23 24 23l485 8q19 -2 22 -23l19 -176q0 -14 -6.5 -17.5t-16.5 -4.5l-146 5l-3 -1099l446 23l-18 175q0 19 23 21l162 15q40 0 42 -39l18 -397 q-2 -23 -22 -26zM824 1842q4 -8 4 -19.5t-15 -17.5l-494 -207q-8 -3 -15 -3t-11 10l-39 92q-4 10 -4 16t9 11l453 290q12 6 24 6t18 -14z" />
<glyph unicode="&#x13a;" horiz-adv-x="683" d="M638 1842q4 -8 4 -19.5t-15 -17.5l-406 -182q-8 -3 -15 -3t-11 10l-39 92q-4 10 -4 16t9 11l365 265q8 6 22 6t20 -14zM126 1256q-18 0 -18 22l6 196q0 12 6 15.5t18 5.5l325 -8q11 0 14 -5.5t4 -17.5l-7 -159l15 -1096l136 11q14 0 16 -19l12 -181q-2 -12 -6.5 -15.5 t-17.5 -4.5l-543 6q-14 0 -14 24v171q0 19 16 19l189 -12v1060z" />
<glyph unicode="&#x13b;" horiz-adv-x="1195" d="M969 -43q-17 0 -21 23l-5 48l-843 -35q-17 0 -18 24l16 174q2 16 16 19l138 -6l9 1100l-136 -13q-11 0 -14 5t-4 17l-9 180q1 23 24 23l485 8q19 -2 22 -23l19 -176q0 -14 -6.5 -17.5t-16.5 -4.5l-146 5l-3 -1099l446 23l-18 175q0 19 23 21l162 15q40 0 42 -39l18 -397 q-2 -23 -22 -26zM622 -540l-95 36q-14 5 -14 12t5 17.5t13 29.5t15 38q16 43 16 63q0 28 -35 53q-36 28 -36 50t14 47.5t35 45.5q49 47 92 47t67.5 -12.5t39.5 -32.5q28 -39 28 -89.5t-11 -88t-28 -72.5q-28 -56 -61 -100t-45 -44z" />
<glyph unicode="&#x13c;" horiz-adv-x="683" d="M126 1356q-18 0 -18 22l6 196q0 12 6 15.5t18 5.5l325 -8q11 0 14 -5.5t4 -17.5l-7 -159l15 -1196l136 11q14 0 16 -19l12 -181q-2 -12 -6.5 -15.5t-17.5 -4.5l-543 6q-14 0 -14 24v171q0 19 16 19l189 -12v1160zM370 -540l-95 36q-14 5 -14 12t5 17.5t13 29.5t15 38 q16 43 16 63q0 28 -35 53q-36 28 -36 50t14 47.5t35 45.5q49 47 92 47t67.5 -12.5t39.5 -32.5q28 -39 28 -89.5t-11 -88t-28 -72.5q-28 -56 -61 -100t-45 -44z" />
<glyph unicode="&#x13d;" horiz-adv-x="1196" d="M969 -43q-17 0 -21 23l-5 48l-843 -35q-17 0 -18 24l16 174q2 16 16 19l138 -6l9 1100l-136 -13q-11 0 -14 5t-4 17l-9 180q1 23 24 23l485 8q19 -2 22 -23l19 -176q0 -14 -6.5 -17.5t-16.5 -4.5l-146 5l-3 -1099l446 23l-18 175q0 19 23 21l162 15q40 0 42 -39l18 -397 q-2 -23 -22 -26zM490 1643q-28 -24 -42 -25l-98 -9q-17 0 -46 25l-314 278q-7 7 -7 14t6 15l61 73q4 6 10 6t14 -4l331 -184l298 181q12 6 18 6t12 -8l60 -72q8 -11 8 -17q0 -5 -5 -9z" />
<glyph unicode="&#x13e;" horiz-adv-x="851" d="M595 1209q15 103 15 172t-10.5 112t-23.5 76t-23.5 57t-10.5 41.5t14 33.5t36 27q46 23 102 23q107 0 107 -159q0 -220 -89 -405zM126 1356q-18 0 -18 22l6 196q0 12 6 15.5t18 5.5l325 -8q11 0 14 -5.5t4 -17.5l-7 -159l15 -1196l136 11q14 0 16 -19l12 -181 q-2 -12 -6.5 -15.5t-17.5 -4.5l-543 6q-14 0 -14 24v171q0 19 16 19l189 -12v1160z" />
<glyph unicode="&#x13f;" horiz-adv-x="1196" d="M969 -43q-17 0 -21 23l-5 48l-843 -35q-17 0 -18 24l16 174q2 16 16 19l138 -6l9 1100l-136 -13q-11 0 -14 5t-4 17l-9 180q1 23 24 23l485 8q19 -2 22 -23l19 -176q0 -14 -6.5 -17.5t-16.5 -4.5l-146 5l-3 -1099l446 23l-18 175q0 19 23 21l162 15q40 0 42 -39l18 -397 q-2 -23 -22 -26zM1149.5 885q5.5 -30 5.5 -56t-17.5 -47.5t-46.5 -35.5q-60 -29 -116 -29t-77 17.5t-34 43.5q-25 50 -25 98.5t22 70.5t54 35q55 21 109.5 21t75 -17.5t32.5 -44t17.5 -56.5z" />
<glyph unicode="&#x140;" horiz-adv-x="856" d="M126 1356q-18 0 -18 22l6 196q0 12 6 15.5t18 5.5l325 -8q11 0 14 -5.5t4 -17.5l-7 -159l15 -1196l136 11q14 0 16 -19l12 -181q-2 -12 -6.5 -15.5t-17.5 -4.5l-543 6q-14 0 -14 24v171q0 19 16 19l189 -12v1160zM894.5 675q5.5 -30 5.5 -56t-17.5 -47.5t-46.5 -35.5 q-60 -29 -116 -29t-77 17.5t-34 43.5q-25 50 -25 98.5t22 70.5t54 35q55 21 109.5 21t75 -17.5t32.5 -44t17.5 -56.5z" />
<glyph unicode="&#x141;" horiz-adv-x="1195" d="M969 -43q-17 0 -21 23l-5 48l-843 -35q-17 0 -18 24l16 174q2 16 16 19l138 -6l3 362l-115 -55q-6 -3 -15 -3t-14 11l-56 142q-2 6 -2 10.5t9 9.5l194 76l5 547l-136 -13q-11 0 -14 5t-4 17l-9 180q1 23 24 23l485 8q19 -2 22 -23l19 -176q0 -14 -6.5 -17.5t-16.5 -4.5 l-146 5l-1 -454l294 156q8 4 16 4t14 -15l62 -143q2 -6 2 -13t-11 -11l-378 -162l-1 -461l446 23l-18 175q0 19 23 21l162 15q40 0 42 -39l18 -397q-2 -23 -22 -26z" />
<glyph unicode="&#x142;" horiz-adv-x="683" d="M126 1356q-18 0 -18 22l6 196q0 12 6 15.5t18 5.5l325 -8q11 0 14 -5.5t4 -17.5l-7 -159l5 -439l133 64q7 3 15.5 3t14.5 -14l52 -143q1 -3 1 -11t-10 -13l-203 -73l7 -570l136 11q14 0 16 -19l12 -181q-2 -12 -6.5 -15.5t-17.5 -4.5l-543 6q-14 0 -14 24v171q0 19 16 19 l189 -12v478l-127 -65q-6 -3 -15 -3t-14 11l-56 142q-2 6 -2 10.5t9 9.5l205 84v493z" />
<glyph unicode="&#x143;" horiz-adv-x="1536" d="M1472 1325q0 -22 -23 -22l-127 3l-2 -1267q0 -27 -24 -29l-242 -13q-13 0 -23 22l-589 1305l24 -1094l157 10q14 0 16 -19l17 -198q-2 -20 -24 -20l-484 3q-14 0 -18 24l-18 167q2 19 16 19l157 4v1081l-183 -8q-11 1 -13.5 5.5t-4.5 16.5l11 176q2 19 24 21l440 22 q26 -2 37 -28l567 -1274l-26 1079l-155 5q-11 0 -14 5t-4 17l6 166q2 21 24 21l447 2q11 -1 14 -5.5t4 -17.5zM1116 1842q4 -8 4 -19.5t-15 -17.5l-494 -207q-8 -3 -15 -3t-11 10l-39 92q-4 10 -4 16t9 11l453 290q12 6 24 6t18 -14z" />
<glyph unicode="&#x144;" horiz-adv-x="1370" d="M792 903q-127 0 -290 -104l12 -599l109 12q17 0 17 -17l-19 -155q-4 -22 -22 -22h-417q-16 0 -16 24l20 153q4 21 22 21h85v661l-153 4q-20 0 -20 24l18 173q2 17 24 21l277 41q18 0 18 -23v-173q206 206 405 206q228 0 272 -217q14 -72 14 -134.5t-1 -105t-3 -93.5 l-2 -104l-4 -110l-4 -106q-2 -51 -4 -94l115 5q21 0 21 -24v-147q0 -12 -5.5 -15.5t-17.5 -4.5l-290 -22q-22 0 -22 22q3 109 3 205l2 167v133v183q0 124 -21 158.5t-49 45.5t-74 11zM1008 1649q5 -7 5 -17t-8 -17l-462 -340q-6 -4 -12 -4t-12 6l-67 68q-8 10 -8 18.5 t5 15.5l383 420q9 11 21.5 11t21.5 -11z" />
<glyph unicode="&#x145;" horiz-adv-x="1536" d="M1472 1325q0 -22 -23 -22l-127 3l-2 -1267q0 -27 -24 -29l-242 -13q-13 0 -23 22l-589 1305l24 -1094l157 10q14 0 16 -19l17 -198q-2 -20 -24 -20l-484 3q-14 0 -18 24l-18 167q2 19 16 19l157 4v1081l-183 -8q-11 1 -13.5 5.5t-4.5 16.5l11 176q2 19 24 21l440 22 q26 -2 37 -28l567 -1274l-26 1079l-155 5q-11 0 -14 5t-4 17l6 166q2 21 24 21l447 2q11 -1 14 -5.5t4 -17.5zM773 -540l-95 36q-14 5 -14 12t5 17.5t13 29.5t15 38q16 43 16 63q0 28 -35 53q-36 28 -36 50t14 47.5t36 45.5q48 47 91 47t67.5 -12.5t39.5 -32.5 q28 -39 28 -89.5t-11 -88t-29 -72.5q-27 -56 -60 -100t-45 -44z" />
<glyph unicode="&#x146;" horiz-adv-x="1370" d="M792 903q-127 0 -290 -104l12 -599l109 12q17 0 17 -17l-19 -155q-4 -22 -22 -22h-417q-16 0 -16 24l20 153q4 21 22 21h85v661l-153 4q-20 0 -20 24l18 173q2 17 24 21l277 41q18 0 18 -23v-173q206 206 405 206q228 0 272 -217q14 -72 14 -134.5t-1 -105t-3 -93.5 l-2 -104l-4 -110l-4 -106q-2 -51 -4 -94l115 5q21 0 21 -24v-147q0 -12 -5.5 -15.5t-17.5 -4.5l-290 -22q-22 0 -22 22q3 109 3 205l2 167v133v183q0 124 -21 158.5t-49 45.5t-74 11zM696 -540l-95 36q-14 5 -14 12t5 17.5t13 29.5t15 38q16 43 16 63q0 28 -35 53 q-36 28 -36 50t14 47.5t35 45.5q49 47 92 47t67.5 -12.5t39.5 -32.5q28 -39 28 -89.5t-11 -88t-28 -72.5q-28 -56 -61 -100t-45 -44z" />
<glyph unicode="&#x147;" horiz-adv-x="1536" d="M1472 1325q0 -22 -23 -22l-127 3l-2 -1267q0 -27 -24 -29l-242 -13q-13 0 -23 22l-589 1305l24 -1094l157 10q14 0 16 -19l17 -198q-2 -20 -24 -20l-484 3q-14 0 -18 24l-18 167q2 19 16 19l157 4v1081l-183 -8q-11 1 -13.5 5.5t-4.5 16.5l11 176q2 19 24 21l440 22 q26 -2 37 -28l567 -1274l-26 1079l-155 5q-11 0 -14 5t-4 17l6 166q2 21 24 21l447 2q11 -1 14 -5.5t4 -17.5zM850 1643q-28 -24 -42 -25l-98 -9q-17 0 -46 25l-314 278q-7 7 -7 14t6 15l61 73q4 6 10 6t14 -4l331 -184l298 181q12 6 18 6t12 -8l60 -72q8 -11 8 -17 q0 -5 -5 -9z" />
<glyph unicode="&#x148;" horiz-adv-x="1370" d="M792 903q-127 0 -290 -104l12 -599l109 12q17 0 17 -17l-19 -155q-4 -22 -22 -22h-417q-16 0 -16 24l20 153q4 21 22 21h85v661l-153 4q-20 0 -20 24l18 173q2 17 24 21l277 41q18 0 18 -23v-173q206 206 405 206q228 0 272 -217q14 -72 14 -134.5t-1 -105t-3 -93.5 l-2 -104l-4 -110l-4 -106q-2 -51 -4 -94l115 5q21 0 21 -24v-147q0 -12 -5.5 -15.5t-17.5 -4.5l-290 -22q-22 0 -22 22q3 109 3 205l2 167v133v183q0 124 -21 158.5t-49 45.5t-74 11zM773 1296q-22 -22 -42 -25l-101 -10q-23 0 -47 30l-298 381q-5 7 -5 16.5t8 17.5l67 68 q6 6 13 6t11 -4l310 -280l299 277q6 6 14 6t16 -8l70 -72q7 -7 7 -14t-4 -12z" />
<glyph unicode="&#x14a;" horiz-adv-x="1536" d="M735 -530q-42 0 -42 39l32 337q4 23 22 26l139 14q21 0 21 -23l1 -148q6 -1 12 -1h13q95 0 139 62q46 64 56 225l-698 1323l23 -1094l153 10q17 0 20 -19l17 -198q-2 -20 -24 -20l-484 3q-14 0 -18 24l-18 167q2 19 16 19l157 4v1081l-183 -8q-11 1 -13.5 5.5t-4.5 16.5 l11 176q2 19 24 21l440 22q25 -1 37 -28l563 -1109l-22 914l-155 5q-11 0 -14 5t-4 17l6 166q2 21 24 21l447 2q11 -1 14 -5.5t4 -17.5l13 -179q0 -22 -23 -22l-127 3l-2 -1276q0 -239 -71 -355q-83 -134 -277 -134q-25 0 -49 2l1 -40q0 -16 -23 -18z" />
<glyph unicode="&#x14b;" horiz-adv-x="1370" d="M812 903q-138 0 -309 -105l11 -598l109 12q17 0 17 -17l-19 -155q-4 -22 -22 -22h-417q-16 0 -16 24l20 153q4 21 22 21h85v661l-153 4q-20 0 -20 24l18 173q2 17 24 21l277 41q18 0 18 -23v-174q138 138 309 189q59 18 116 18q316 0 316 -384q0 -137 -6 -263t-8 -185 q-5 -148 -5 -272.5t-17 -213t-60 -150.5q-90 -130 -305 -130q-20 0 -23 23l-30 164q0 20 23 20q90 0 141 38.5t56 114t8.5 149.5t5.5 150.5t3.5 152t2.5 139.5q2 128 2 186.5t-10 99.5t-31 67q-39 47 -133 47z" />
<glyph unicode="&#x14c;" d="M1260 751q0 -761 -561 -761q-293 0 -443.5 192.5t-150.5 568.5q0 579 317 737q106 52 248.5 52t252 -44t184.5 -139q153 -194 153 -606zM1034 764q0 155 -24 265t-70.5 173t-113.5 86.5t-158 23.5t-157 -34t-107 -103q-75 -129 -75 -420q0 -297 94 -423q87 -115 283 -115 q179 0 256 127q72 122 72 420zM1005 1971q16 -2 16 -19l-18 -171q-2 -12 -6.5 -16t-17.5 -4l-624 6q-19 0 -19 24l10 151q1 19 20 19z" />
<glyph unicode="&#x14d;" horiz-adv-x="1194" d="M123 562q0 171 28.5 284.5t84.5 181.5q104 123 339 123q164 0 239.5 -33t119 -75t74.5 -108q62 -135 62 -339.5t-28.5 -315.5t-85.5 -178q-106 -122 -343 -122q-248 0 -361 120q-129 136 -129 462zM849 363q15 72 15 176t-11 168t-30.5 106.5t-46.5 67t-59 36.5 q-48 18 -127 18t-126 -12t-78 -51q-59 -76 -59 -306q0 -327 176 -369q54 -13 117 -13t108.5 13.5t75.5 53.5t45 112zM920 1611q16 -2 16 -19l-18 -171q-2 -12 -6.5 -16t-17.5 -4l-629 6q-14 0 -14 24l10 151q2 19 16 19z" />
<glyph unicode="&#x14e;" d="M1260 751q0 -761 -561 -761q-293 0 -443.5 192.5t-150.5 568.5q0 579 317 737q106 52 248.5 52t252 -44t184.5 -139q153 -194 153 -606zM1034 764q0 155 -24 265t-70.5 173t-113.5 86.5t-158 23.5t-157 -34t-107 -103q-75 -129 -75 -420q0 -297 94 -423q87 -115 283 -115 q179 0 256 127q72 122 72 420zM1037 2006q24 0 24 -23q0 -142 -95 -240q-101 -105 -268 -105q-171 0 -281 91q-113 94 -113 255q0 23 24 23l143 13q19 0 21.5 -32t19 -64t42.5 -55q56 -48 137 -48q152 0 182 165q4 24 21 24z" />
<glyph unicode="&#x14f;" horiz-adv-x="1194" d="M123 562q0 171 28.5 284.5t84.5 181.5q104 123 339 123q164 0 239.5 -33t119 -75t74.5 -108q62 -135 62 -339.5t-28.5 -315.5t-85.5 -178q-106 -122 -343 -122q-248 0 -361 120q-129 136 -129 462zM849 363q15 72 15 176t-11 168t-30.5 106.5t-46.5 67t-59 36.5 q-48 18 -127 18t-126 -12t-78 -51q-59 -76 -59 -306q0 -327 176 -369q54 -13 117 -13t108.5 13.5t75.5 53.5t45 112zM961 1698q24 0 24 -23q0 -142 -95 -240q-101 -105 -268 -105q-171 0 -281 91q-113 94 -113 255q0 21 24 23l143 13q19 0 21.5 -32t19 -64t42.5 -55 q56 -48 137 -48q152 0 182 165q4 24 21 24z" />
<glyph unicode="&#x150;" d="M1260 751q0 -761 -561 -761q-293 0 -443.5 192.5t-150.5 568.5q0 579 317 737q106 52 248.5 52t252 -44t184.5 -139q153 -194 153 -606zM1034 764q0 155 -24 265t-70.5 173t-113.5 86.5t-158 23.5t-157 -34t-107 -103q-75 -129 -75 -420q0 -297 94 -423q87 -115 283 -115 q179 0 256 127q72 122 72 420zM1232 1920q7 -4 7 -14.5t-9 -19.5l-276 -269q-4 -4 -11 -4t-15 4l-88 47q-9 4 -9 15.5t5 18.5l200 311q6 10 17.5 10t25.5 -9zM736 1913q8 -5 8 -13.5t-10 -20.5l-256 -258q-5 -5 -13 -5t-14 3l-91 47q-9 4 -9 15t5 19l189 309q7 11 19 11 t26 -9z" />
<glyph unicode="&#x151;" horiz-adv-x="1194" d="M123 562q0 171 28.5 284.5t84.5 181.5q104 123 339 123q164 0 239.5 -33t119 -75t74.5 -108q62 -135 62 -339.5t-28.5 -315.5t-85.5 -178q-106 -122 -343 -122q-248 0 -361 120q-129 136 -129 462zM849 363q15 72 15 176t-11 168t-30.5 106.5t-46.5 67t-59 36.5 q-48 18 -127 18t-126 -12t-78 -51q-59 -76 -59 -306q0 -327 176 -369q54 -13 117 -13t108.5 13.5t75.5 53.5t45 112zM1166 1639q6 -6 6 -16.5t-8 -17.5l-351 -319q-4 -4 -11 -4t-13 6l-76 68q-10 10 -10 18t6 16l288 369q9 11 21.5 11t21.5 -11zM675 1661q6 -5 6 -15.5 t-8 -18.5l-331 -331q-4 -4 -8.5 -4t-8 2t-7.5 4l-79 58q-9 7 -9 16.5t5 17.5l266 388q7 11 17 11q15 0 26 -11z" />
<glyph unicode="&#x152;" horiz-adv-x="1868" d="M1540 882q25 0 27 -23l-13 -168q-2 -23 -23 -23l-387 -7l-22 -458l436 18l-4 132q2 35 42 39l159 15q25 -2 26 -24l26 -404q-3 -25 -23 -26l-196 -13q-22 3 -22 26l-2 64l-729 -8q-84 -34 -208 -34t-222.5 53t-164.5 152q-134 199 -134 558q0 579 317 737q106 52 236 52 t216 -42l821 55q30 0 30 -27l-20 -345q-1 -21 -21 -23l-163 -14q-14 0 -17 6.5t-4 19.5l4 171l-392 -23l32 -467zM940.5 496.5q14.5 102.5 14.5 262.5t-19.5 271.5t-56.5 176.5q-65 115 -215 115q-185 0 -263 -142q-71 -129 -71 -425q0 -424 177 -518q60 -32 146 -32 t144.5 30t93.5 94.5t49.5 167z" />
<glyph unicode="&#x153;" horiz-adv-x="1881" d="M955 976q130 177 424 177q185 0 269 -91t84 -278q0 -122 -44 -188q-13 -21 -37 -48t-90 -47t-151 -31q-132 -16 -360 -16q18 -240 171 -269q48 -9 84.5 -9t66 1.5t64.5 4.5q97 8 136 15l3 52q1 12 5.5 16t16.5 7l144 32q24 0 25 -19l22 -310q0 -39 -44 -44l-166 -20 q-22 0 -22 22l4 73q-128 -32 -326.5 -32t-297.5 143q-112 -137 -344 -137q-249 0 -364 120q-131 137 -131 461q0 331 116 467q106 123 341 123q140 0 213 -29t114.5 -63t73.5 -83zM832.5 363q15.5 72 15.5 176t-11.5 168t-31.5 106.5t-47.5 67t-59.5 36.5q-49 18 -128.5 18 t-127.5 -12t-80 -51q-61 -76 -61 -306q0 -326 181 -369q54 -13 117 -13t109.5 13.5t77.5 53.5t46.5 112zM1498 714q6 31 6 72.5t-7.5 73.5t-26.5 55q-38 48 -126 48q-170 0 -227 -86q-61 -91 -69 -276q229 0 358 33q82 21 92 80z" />
<glyph unicode="&#x154;" d="M622 13q-2 -20 -24 -20l-504 3q-17 0 -18 24l22 197q2 16 16 19l127 -9v1080q-74 -6 -104 -6t-37.5 7.5t-9.5 20.5l-20 164q2 27 24 31q300 31 593 31q409 0 509 -261q35 -89 35 -198.5t-25.5 -183t-71.5 -126.5q-92 -106 -251 -137l262 -414l177 15q33 -2 33 -34l1 -157 q0 -53 -37 -55l-284 -7q-20 0 -31 20l-338 621q-114 2 -205 11l3 -429h135q16 0 16 -19zM725 1345q-80 0 -270 -19l4 -498q87 -5 181 -5t155.5 13.5t106.5 43.5q97 65 97 201.5t-68.5 200t-205.5 63.5zM1064 1842q4 -8 4 -19.5t-15 -17.5l-494 -207q-8 -3 -15 -3t-11 10 l-39 92q-4 10 -4 16t9 11l453 290q12 6 24 6t18 -14z" />
<glyph unicode="&#x155;" horiz-adv-x="1024" d="M136 -12q-16 0 -16 24v173q0 21 22 21h117v677l-143 -12q-16 1 -20 24l-22 213q3 19 24 21l307 21q18 0 18 -23l-15 -165q113 125 332 166q66 13 127 13t63 -32l12 -366q0 -18 -15 -20l-188 -14q-12 0 -19 4t-7 21v177q-130 -11 -229 -52l-11 -660l174 13q16 0 17 -17 l11 -165q-3 -20 -22 -22zM828 1649q5 -7 5 -17t-8 -17l-462 -340q-6 -4 -12 -4t-12 6l-67 68q-8 10 -8 18.5t5 15.5l383 420q9 11 21.5 11t21.5 -11z" />
<glyph unicode="&#x156;" d="M622 13q-2 -20 -24 -20l-504 3q-17 0 -18 24l22 197q2 16 16 19l127 -9v1080q-74 -6 -104 -6t-37.5 7.5t-9.5 20.5l-20 164q2 27 24 31q300 31 593 31q409 0 509 -261q35 -89 35 -198.5t-25.5 -183t-71.5 -126.5q-92 -106 -251 -137l262 -414l177 15q33 -2 33 -34l1 -157 q0 -53 -37 -55l-284 -7q-20 0 -31 20l-338 621q-114 2 -205 11l3 -429h135q16 0 16 -19zM725 1345q-80 0 -270 -19l4 -498q87 -5 181 -5t155.5 13.5t106.5 43.5q97 65 97 201.5t-68.5 200t-205.5 63.5zM721 -540l-95 36q-14 5 -14 12t5 17.5t13 29.5t15 38q16 43 16 63 q0 28 -35 53q-36 28 -36 50t14 47.5t36 45.5q48 47 91 47t67.5 -12.5t39.5 -32.5q28 -39 28 -89.5t-11 -88t-29 -72.5q-27 -56 -60 -100t-45 -44z" />
<glyph unicode="&#x157;" horiz-adv-x="1024" d="M136 -12q-16 0 -16 24v173q0 21 22 21h117v677l-143 -12q-16 1 -20 24l-22 213q3 19 24 21l307 21q18 0 18 -23l-15 -165q113 125 332 166q66 13 127 13t63 -32l12 -366q0 -18 -15 -20l-188 -14q-12 0 -19 4t-7 21v177q-130 -11 -229 -52l-11 -660l174 13q16 0 17 -17 l11 -165q-3 -20 -22 -22zM416 -540l-95 36q-14 5 -14 12t5 17.5t13 29.5t15 38q16 43 16 63q0 28 -35 53q-36 28 -36 50t14 47.5t35 45.5q49 47 92 47t67.5 -12.5t39.5 -32.5q28 -39 28 -89.5t-11 -88t-28 -72.5q-28 -56 -61 -100t-45 -44z" />
<glyph unicode="&#x158;" d="M622 13q-2 -20 -24 -20l-504 3q-17 0 -18 24l22 197q2 16 16 19l127 -9v1080q-74 -6 -104 -6t-37.5 7.5t-9.5 20.5l-20 164q2 27 24 31q300 31 593 31q409 0 509 -261q35 -89 35 -198.5t-25.5 -183t-71.5 -126.5q-92 -106 -251 -137l262 -414l177 15q33 -2 33 -34l1 -157 q0 -53 -37 -55l-284 -7q-20 0 -31 20l-338 621q-114 2 -205 11l3 -429h135q16 0 16 -19zM725 1345q-80 0 -270 -19l4 -498q87 -5 181 -5t155.5 13.5t106.5 43.5q97 65 97 201.5t-68.5 200t-205.5 63.5zM798 1643q-28 -24 -42 -25l-98 -9q-17 0 -46 25l-314 278q-7 7 -7 14 t6 15l61 73q4 6 10 6t14 -4l331 -184l298 181q12 6 18 6t12 -8l60 -72q8 -11 8 -17q0 -5 -5 -9z" />
<glyph unicode="&#x159;" horiz-adv-x="1024" d="M136 -12q-16 0 -16 24v173q0 21 22 21h117v677l-143 -12q-16 1 -20 24l-22 213q3 19 24 21l307 21q18 0 18 -23l-15 -165q113 125 332 166q66 13 127 13t63 -32l12 -366q0 -18 -15 -20l-188 -14q-12 0 -19 4t-7 21v177q-130 -11 -229 -52l-11 -660l174 13q16 0 17 -17 l11 -165q-3 -20 -22 -22zM593 1296q-22 -22 -42 -25l-101 -10q-23 0 -47 30l-298 381q-5 7 -5 16.5t8 17.5l67 68q6 6 13 6t11 -4l310 -280l299 277q6 6 14 6t16 -8l70 -72q7 -7 7 -14t-4 -12z" />
<glyph unicode="&#x15a;" horiz-adv-x="1196" d="M878 32q-84 -28 -212 -28t-304 32l7 -80q0 -18 -23 -18l-172 -5q-38 2 -42 39l-38 387q0 20 24 22l196 18q19 0 21 -23l13 -162q144 -15 287 -15t200 48.5t57 146.5q0 88 -67 144q-35 30 -91 59l-274 133q-145 69 -199 110.5t-83 81.5q-58 81 -58 190.5t34 187t96 133.5 q130 119 330 119q142 0 308 -45q128 39 160.5 39t34.5 -27l-20 -415q-2 -23 -16 -23l-168 6q-14 1 -17 7t-4 19l-8 220q-119 28 -198 28q-199 0 -271 -111q-26 -40 -26 -94.5t26 -90.5t75 -67.5t120 -63.5l164 -75q231 -107 308 -191q84 -91 84 -255q0 -295 -254 -381z M964 1842q4 -8 4 -19.5t-15 -17.5l-494 -207q-8 -3 -15 -3t-11 10l-39 92q-4 10 -4 16t9 11l453 290q12 6 24 6t18 -14z" />
<glyph unicode="&#x15b;" horiz-adv-x="1024" d="M873 853q-270 92 -381 92q-120 0 -162 -59q-17 -23 -17 -57t8 -59t29 -44q42 -40 162 -59t209.5 -41.5t144 -58t78 -89.5t23.5 -138.5t-25 -149.5t-71 -110q-93 -89 -258 -89q-113 0 -260 28l17 -83q0 -16 -23 -18l-172 -15q-38 0 -42 39l-28 297q0 18 24 22l156 28 q17 0 21 -23l12 -66q145 -23 239 -23t140 39.5t46 104.5q0 61 -49 87q-43 24 -168.5 43.5t-206.5 43t-133 62.5q-99 74 -99 251q0 154 93 246q99 97 277 97q105 0 242 -70l-19 79q0 24 21 26l198 16q16 0 16 -23l-22 -305q-1 -21 -20 -21zM854 1649q5 -7 5 -17t-8 -17 l-462 -340q-6 -4 -12 -4t-12 6l-67 68q-8 10 -8 18.5t5 15.5l383 420q9 11 21.5 11t21.5 -11z" />
<glyph unicode="&#x15c;" horiz-adv-x="1196" d="M878 32q-84 -28 -212 -28t-304 32l7 -80q0 -18 -23 -18l-172 -5q-38 2 -42 39l-38 387q0 20 24 22l196 18q19 0 21 -23l13 -162q144 -15 287 -15t200 48.5t57 146.5q0 88 -67 144q-35 30 -91 59l-274 133q-145 69 -199 110.5t-83 81.5q-58 81 -58 190.5t34 187t96 133.5 q130 119 330 119q142 0 308 -45q128 39 160.5 39t34.5 -27l-20 -415q-2 -23 -16 -23l-168 6q-14 1 -17 7t-4 19l-8 220q-119 28 -198 28q-199 0 -271 -111q-26 -40 -26 -94.5t26 -90.5t75 -67.5t120 -63.5l164 -75q231 -107 308 -191q84 -91 84 -255q0 -295 -254 -381z M525 1985q29 23 45 25l95 10q16 0 46 -26l302 -251q7 -7 7 -14.5t-6 -14.5l-61 -73q-5 -6 -10.5 -6t-13.5 4l-320 159l-297 -154q-4 -2 -10 -2t-12 8l-62 76q-6 8 -6 13t5 9z" />
<glyph unicode="&#x15d;" horiz-adv-x="1024" d="M873 853q-270 92 -381 92q-120 0 -162 -59q-17 -23 -17 -57t8 -59t29 -44q42 -40 162 -59t209.5 -41.5t144 -58t78 -89.5t23.5 -138.5t-25 -149.5t-71 -110q-93 -89 -258 -89q-113 0 -260 28l17 -83q0 -16 -23 -18l-172 -15q-38 0 -42 39l-28 297q0 18 24 22l156 28 q17 0 21 -23l12 -66q145 -23 239 -23t140 39.5t46 104.5q0 61 -49 87q-43 24 -168.5 43.5t-206.5 43t-133 62.5q-99 74 -99 251q0 154 93 246q99 97 277 97q105 0 242 -70l-19 79q0 24 21 26l198 16q16 0 16 -23l-22 -305q-1 -21 -20 -21zM449 1745q22 22 42 25l101 10 q23 0 47 -30l298 -381q5 -7 5 -16.5t-8 -17.5l-67 -68q-6 -6 -13 -6t-11 4l-310 280l-299 -277q-8 -6 -15 -6t-15 8l-70 72q-8 8 -8 14.5t5 11.5z" />
<glyph unicode="&#x15e;" horiz-adv-x="1196" d="M670 -374q83 0 83 69q0 29 -18.5 50t-46.5 21t-40 -1.5t-24 -2.5q-28 -4 -33 -4t-16.5 12.5t-24.5 28.5q-32 39 -32 54l40 157q-109 11 -196 26l7 -80q0 -18 -23 -18l-172 -5q-38 2 -42 39l-38 387q0 20 24 22l196 18q19 0 21 -23l13 -162q144 -15 287 -15t200 48.5 t57 146.5q0 88 -67 144q-35 30 -91 59l-274 133q-145 69 -199 110.5t-83 81.5q-58 81 -58 190.5t34 187t96 133.5q130 119 330 119q142 0 308 -45q128 39 160.5 39t34.5 -27l-20 -415q-2 -23 -16 -23l-168 6q-14 1 -17 7t-4 19l-8 220q-119 28 -198 28q-199 0 -271 -111 q-26 -40 -26 -94.5t26 -90.5t75 -67.5t120 -63.5l164 -75q231 -107 308 -191q84 -91 84 -255q0 -295 -254 -381q-84 -28 -196 -28h-4l-17 -116q41 9 88 9t80 -16t55 -43q45 -55 45 -158q0 -202 -247 -202q-114 0 -191 33q-21 9 -21 18l21 107q3 17 19 17q7 0 35 -7 q80 -20 125 -20z" />
<glyph unicode="&#x15f;" horiz-adv-x="1024" d="M591 -374q83 0 83 69q0 29 -18.5 50t-46.5 21t-40 -1.5t-24 -2.5q-28 -4 -33 -4t-16.5 12.5t-24.5 28.5q-32 39 -32 54l37 147q-53 5 -123 19l17 -83q0 -16 -23 -18l-172 -15q-38 0 -42 39l-28 297q0 18 24 22l156 28q17 0 21 -23l12 -66q145 -23 239 -23t140 39.5 t46 104.5q0 61 -49 87q-43 24 -168.5 43.5t-206.5 43t-133 62.5q-99 74 -99 251q0 154 93 246q99 97 277 97q105 0 242 -70l-19 79q0 24 21 26l198 16q16 0 16 -23l-22 -305q-1 -21 -20 -21q-270 92 -381 92q-120 0 -162 -59q-17 -23 -17 -57t8 -59t29 -44q42 -40 162 -59 t209.5 -41.5t144 -58t78 -89.5t23.5 -138.5t-25 -149.5t-71 -110q-93 -89 -258 -89h-16l-15 -103q41 9 88 9t80 -16t56 -43q44 -55 44 -158q0 -202 -247 -202q-114 0 -191 33q-21 9 -21 18l21 107q3 17 19 17q7 0 35 -7q80 -20 125 -20z" />
<glyph unicode="&#x160;" horiz-adv-x="1196" d="M878 32q-84 -28 -212 -28t-304 32l7 -80q0 -18 -23 -18l-172 -5q-38 2 -42 39l-38 387q0 20 24 22l196 18q19 0 21 -23l13 -162q144 -15 287 -15t200 48.5t57 146.5q0 88 -67 144q-35 30 -91 59l-274 133q-145 69 -199 110.5t-83 81.5q-58 81 -58 190.5t34 187t96 133.5 q130 119 330 119q142 0 308 -45q128 39 160.5 39t34.5 -27l-20 -415q-2 -23 -16 -23l-168 6q-14 1 -17 7t-4 19l-8 220q-119 28 -198 28q-199 0 -271 -111q-26 -40 -26 -94.5t26 -90.5t75 -67.5t120 -63.5l164 -75q231 -107 308 -191q84 -91 84 -255q0 -295 -254 -381z M698 1643q-28 -24 -42 -25l-98 -9q-17 0 -46 25l-314 278q-7 7 -7 14t6 15l61 73q4 6 10 6t14 -4l331 -184l298 181q12 6 18 6t12 -8l60 -72q8 -11 8 -17q0 -5 -5 -9z" />
<glyph unicode="&#x161;" horiz-adv-x="1024" d="M873 853q-270 92 -381 92q-120 0 -162 -59q-17 -23 -17 -57t8 -59t29 -44q42 -40 162 -59t209.5 -41.5t144 -58t78 -89.5t23.5 -138.5t-25 -149.5t-71 -110q-93 -89 -258 -89q-113 0 -260 28l17 -83q0 -16 -23 -18l-172 -15q-38 0 -42 39l-28 297q0 18 24 22l156 28 q17 0 21 -23l12 -66q145 -23 239 -23t140 39.5t46 104.5q0 61 -49 87q-43 24 -168.5 43.5t-206.5 43t-133 62.5q-99 74 -99 251q0 154 93 246q99 97 277 97q105 0 242 -70l-19 79q0 24 21 26l198 16q16 0 16 -23l-22 -305q-1 -21 -20 -21zM619 1296q-22 -22 -42 -25 l-101 -10q-23 0 -47 30l-298 381q-5 7 -5 16.5t8 17.5l67 68q6 6 13 6t11 -4l310 -280l299 277q6 6 14 6t16 -8l70 -72q7 -7 7 -14t-4 -12z" />
<glyph unicode="&#x162;" d="M113 1049q-17 2 -21 24l9 469q0 18 23 18l164 -20q20 0 20 -23v-26l767 8l184 20q22 0 22 -22l-30 -443q-2 -16 -19 -16l-171 8q-12 2 -15.5 6.5t-4.5 17.5l3 247l-258 -4l17 -1088l193 11q16 -4 16 -19l2 -177q-2 -24 -18 -24l-594 -13q-22 0 -24 20l7 198q0 19 16 19 l178 -11l-18 1078l-252 -14l1 -212q-1 -19 -24 -20zM694 -540l-95 36q-14 5 -14 12t5 17.5t13 29.5t15 38q16 43 16 63q0 28 -35 53q-36 28 -36 50t14 47.5t35 45.5q49 47 92 47t67.5 -12.5t39.5 -32.5q28 -39 28 -89.5t-11 -88t-28 -72.5q-28 -56 -61 -100t-45 -44z" />
<glyph unicode="&#x163;" horiz-adv-x="851" d="M608 6q-48 -3 -141.5 -3t-152 19t-96.5 61q-75 83 -75 267q0 119 3.5 227.5t6 193t5.5 167.5l-133 10q-20 1 -20 27l-1 115q0 22 22 22l140 3q2 52 4 99l8 151q3 53 8 60.5t18 9.5l186 22q21 0 21 -22q0 -32 -11 -145l-15 -169l392 11q22 0 22 -24v-163q0 -20 -22 -21 l-405 17q-17 -234 -17 -408t7.5 -225t27.5 -79q34 -48 145 -48q32 0 58 2q-3 35 -3 52.5t19 20.5l167 20q21 0 21 -23l4 -254q0 -17 -15 -20l-148 -24q-23 2 -26 19zM476 -540l-95 36q-14 5 -14 12t5 17.5t13 29.5t15 38q16 43 16 63q0 28 -35 53q-36 28 -36 50t14 47.5 t35 45.5q49 47 92 47t67.5 -12.5t39.5 -32.5q28 -39 28 -89.5t-11 -88t-28 -72.5q-28 -56 -61 -100t-45 -44z" />
<glyph unicode="&#x164;" d="M113 1049q-17 2 -21 24l9 469q0 18 23 18l164 -20q20 0 20 -23v-26l767 8l184 20q22 0 22 -22l-30 -443q-2 -16 -19 -16l-171 8q-12 2 -15.5 6.5t-4.5 17.5l3 247l-258 -4l17 -1088l193 11q16 -4 16 -19l2 -177q-2 -24 -18 -24l-594 -13q-22 0 -24 20l7 198q0 19 16 19 l178 -11l-18 1078l-252 -14l1 -212q-1 -19 -24 -20zM771 1643q-28 -24 -42 -25l-98 -9q-17 0 -46 25l-314 278q-7 7 -7 14t6 15l61 73q4 6 10 6t14 -4l331 -184l298 181q12 6 18 6t12 -8l60 -72q8 -11 8 -17q0 -5 -5 -9z" />
<glyph unicode="&#x165;" horiz-adv-x="851" d="M608 6q-48 -3 -141.5 -3t-152 19t-96.5 61q-75 83 -75 267q0 119 3.5 227.5t6 193t5.5 167.5l-133 10q-20 1 -20 27l-1 115q0 22 22 22l140 3q2 52 4 99l8 151q3 53 8 60.5t18 9.5l186 22q21 0 21 -22q0 -32 -11 -145l-15 -169l392 11q22 0 22 -24v-163q0 -20 -22 -21 l-405 17q-17 -234 -17 -408t7.5 -225t27.5 -79q34 -48 145 -48q32 0 58 2q-3 35 -3 52.5t19 20.5l167 20q21 0 21 -23l4 -254q0 -17 -15 -20l-148 -24q-23 2 -26 19zM555 1299q15 103 15 165t-5.5 95t-14 61t-18.5 51l-18 41q-12 27 -12 45t16.5 34t41.5 27q52 23 111 23 q107 0 107 -159q0 -185 -106 -405z" />
<glyph unicode="&#x166;" d="M113 1049q-17 2 -21 24l9 469q0 18 23 18l164 -20q20 0 20 -23v-26l767 8l184 20q22 0 22 -22l-30 -443q-2 -16 -19 -16l-171 8q-12 2 -15.5 6.5t-4.5 17.5l3 247l-258 -4l8 -528l221 22q22 0 22 -24v-151q0 -19 -19 -19l-221 -3l6 -385l193 11q16 -4 16 -19l2 -177 q-2 -24 -18 -24l-594 -13q-22 0 -24 20l7 198q0 19 16 19l178 -11l-6 377l-227 -3q-16 0 -18 19l8 151q1 20 25 20l209 -12l-9 526l-252 -14l1 -212q-1 -19 -24 -20z" />
<glyph unicode="&#x167;" horiz-adv-x="1024" d="M218 739l7 199l-133 10q-20 1 -20 27l-1 115q0 22 22 22l140 3q2 52 5 99l8 151q2 53 7 60.5t18 9.5l186 22q21 0 21 -22q0 -32 -10 -145l-16 -169l392 11q22 0 22 -24v-163q0 -20 -22 -21l-405 17q-8 -98 -12 -207l348 18q20 -2 20 -24l-10 -141q-1 -11 -4.5 -15 t-16.5 -4l-341 -5q-1 -30 -1 -61v-61q0 -163 35 -212q34 -48 145 -48q32 0 58 2q-3 35 -3 52.5t19 20.5l167 20q21 0 21 -23l4 -254q0 -17 -15 -20l-148 -24q-23 2 -26 19l-4 32q-48 -3 -141.5 -3t-152 19t-96.5 61q-75 83 -75 267q0 116 3 210l-121 -2q-16 0 -16 19l8 151 q1 12 6 15.5t18 4.5z" />
<glyph unicode="&#x168;" horiz-adv-x="1538" d="M1415 200q16 0 16 -19l-13 -178q-2 -20 -24 -20l-343 -7q-23 0 -23 24l1 227q-86 -102 -194 -158.5t-213.5 -56.5t-178.5 34.5t-123 101.5q-101 135 -101 390q0 270 15 470l24 298l-164 -13q-11 0 -13.5 4.5t-4.5 17.5l11 186q2 19 24 21l432 15q18 -2 18 -23l-14 -176 q-3 -22 -23 -22h-48q-6 -95 -10 -170l-8 -134q-11 -197 -11 -390q0 -376 224 -376q141 0 283 88q43 26 76 56l6 890l-107 -4q-14 0 -14 22l6 186q2 21 24 21l448 12q18 -2 18 -23l3 -179q0 -22 -23 -22l-140 -5v-1104zM351 1842q0 17 50.5 59.5t84.5 63.5q76 47 128 47 q42 0 109.5 -37.5t106.5 -56t66.5 -18.5t52 6t47.5 15.5t44 20.5l38 20q33 19 44 19t18 -19l33 -78q2 -5 2 -12q0 -13 -47.5 -57.5t-81.5 -68.5q-81 -56 -129.5 -56t-88 17.5t-79.5 37.5q-106 53 -134 53t-47.5 -5t-40 -13t-41.5 -17l-37 -17q-32 -15 -43 -15q-16 0 -23 20z " />
<glyph unicode="&#x169;" horiz-adv-x="1195" d="M996 1100q16 0 16 -24l10 -844l134 5q20 -1 20 -24l-18 -183q-1 -21 -24 -21h-247q-31 0 -41 38l-24 101q-165 -142 -376 -142q-295 0 -295 377q0 131 15 292l20 226l-128 -4q-21 0 -21 24l20 177q2 12 6.5 15.5t16.5 4.5l318 -8q14 0 14 -22q-5 -48 -10 -108 q-42 -451 -42 -557t40 -153.5t144 -47.5t265 102v575l-125 7q-14 2 -17 17l19 165q4 22 22 22zM194 1462q0 15 49 58.5t81 64.5q72 47 112.5 47t75.5 -18t70 -39q93 -55 125 -55t58 7t50 17.5t45 22.5l35 21q21 13 31 13t17 -19l33 -78q2 -5 2 -12q0 -9 -17 -27l-46 -47 q-110 -108 -199 -108q-46 0 -143 54t-130 54q-49 0 -99 -26q-80 -41 -92 -41q-19 0 -26 20z" />
<glyph unicode="&#x16a;" horiz-adv-x="1538" d="M1415 200q16 0 16 -19l-13 -178q-2 -20 -24 -20l-343 -7q-23 0 -23 24l1 227q-86 -102 -194 -158.5t-213.5 -56.5t-178.5 34.5t-123 101.5q-101 135 -101 390q0 270 15 470l24 298l-164 -13q-11 0 -13.5 4.5t-4.5 17.5l11 186q2 19 24 21l432 15q18 -2 18 -23l-14 -176 q-3 -22 -23 -22h-48q-6 -95 -10 -170l-8 -134q-11 -197 -11 -390q0 -376 224 -376q141 0 283 88q43 26 76 56l6 890l-107 -4q-14 0 -14 22l6 186q2 21 24 21l448 12q18 -2 18 -23l3 -179q0 -22 -23 -22l-140 -5v-1104zM1086 1971q16 -2 16 -19l-18 -171q-2 -12 -6.5 -16 t-17.5 -4l-624 6q-19 0 -19 24l10 151q1 19 20 19z" />
<glyph unicode="&#x16b;" horiz-adv-x="1195" d="M996 1100q16 0 16 -24l10 -844l134 5q20 -1 20 -24l-18 -183q-1 -21 -24 -21h-247q-31 0 -41 38l-24 101q-165 -142 -376 -142q-295 0 -295 377q0 131 15 292l20 226l-128 -4q-21 0 -21 24l20 177q2 12 6.5 15.5t16.5 4.5l318 -8q14 0 14 -22q-5 -48 -10 -108 q-42 -451 -42 -557t40 -153.5t144 -47.5t265 102v575l-125 7q-14 2 -17 17l19 165q4 22 22 22zM910 1611q16 -2 16 -19l-18 -171q-2 -12 -6.5 -16t-17.5 -4l-629 6q-14 0 -14 24l10 151q2 19 16 19z" />
<glyph unicode="&#x16c;" horiz-adv-x="1538" d="M1415 200q16 0 16 -19l-13 -178q-2 -20 -24 -20l-343 -7q-23 0 -23 24l1 227q-86 -102 -194 -158.5t-213.5 -56.5t-178.5 34.5t-123 101.5q-101 135 -101 390q0 270 15 470l24 298l-164 -13q-11 0 -13.5 4.5t-4.5 17.5l11 186q2 19 24 21l432 15q18 -2 18 -23l-14 -176 q-3 -22 -23 -22h-48q-6 -95 -10 -170l-8 -134q-11 -197 -11 -390q0 -376 224 -376q141 0 283 88q43 26 76 56l6 890l-107 -4q-14 0 -14 22l6 186q2 21 24 21l448 12q18 -2 18 -23l3 -179q0 -22 -23 -22l-140 -5v-1104zM1118 2006q24 0 24 -23q0 -142 -94 -240 q-102 -105 -269 -105q-171 0 -281 91q-113 94 -113 255q0 23 24 23l143 13q19 0 21.5 -32t19 -64t43.5 -55q55 -48 136 -48q152 0 182 165q4 24 21 24z" />
<glyph unicode="&#x16d;" horiz-adv-x="1195" d="M996 1100q16 0 16 -24l10 -844l134 5q20 -1 20 -24l-18 -183q-1 -21 -24 -21h-247q-31 0 -41 38l-24 101q-165 -142 -376 -142q-295 0 -295 377q0 131 15 292l20 226l-128 -4q-21 0 -21 24l20 177q2 12 6.5 15.5t16.5 4.5l318 -8q14 0 14 -22q-5 -48 -10 -108 q-42 -451 -42 -557t40 -153.5t144 -47.5t265 102v575l-125 7q-14 2 -17 17l19 165q4 22 22 22zM951 1698q24 0 24 -23q0 -142 -95 -240q-101 -105 -268 -105q-171 0 -281 91q-113 94 -113 255q0 21 24 23l143 13q19 0 21.5 -32t19 -64t42.5 -55q56 -48 137 -48 q152 0 182 165q4 24 21 24z" />
<glyph unicode="&#x16e;" horiz-adv-x="1538" d="M1415 200q16 0 16 -19l-13 -178q-2 -20 -24 -20l-343 -7q-23 0 -23 24l1 227q-86 -102 -194 -158.5t-213.5 -56.5t-178.5 34.5t-123 101.5q-101 135 -101 390q0 270 15 470l24 298l-164 -13q-11 0 -13.5 4.5t-4.5 17.5l11 186q2 19 24 21l432 15q18 -2 18 -23l-14 -176 q-3 -22 -23 -22h-48q-6 -95 -10 -170l-8 -134q-11 -197 -11 -390q0 -376 224 -376q141 0 283 88q43 26 76 56l6 890l-107 -4q-14 0 -14 22l6 186q2 21 24 21l448 12q18 -2 18 -23l3 -179q0 -22 -23 -22l-140 -5v-1104zM1043 1776q0 -261 -280 -261t-280 241q0 264 284 264 q213 0 261 -138q15 -46 15 -106zM646 1767q0 -111 117 -111q94 0 117 75q6 22 6 57.5t-26 65.5t-78 30t-76.5 -10.5t-37.5 -27.5q-22 -27 -22 -79z" />
<glyph unicode="&#x16f;" horiz-adv-x="1195" d="M996 1100q16 0 16 -24l10 -844l134 5q20 -1 20 -24l-18 -183q-1 -21 -24 -21h-247q-31 0 -41 38l-24 101q-165 -142 -376 -142q-295 0 -295 377q0 131 15 292l20 226l-128 -4q-21 0 -21 24l20 177q2 12 6.5 15.5t16.5 4.5l318 -8q14 0 14 -22q-5 -48 -10 -108 q-42 -451 -42 -557t40 -153.5t144 -47.5t265 102v575l-125 7q-14 2 -17 17l19 165q4 22 22 22zM861 1528q0 -261 -280 -261t-280 241q0 264 284 264q213 0 261 -138q15 -46 15 -106zM464 1519q0 -111 117 -111q94 0 117 75q6 22 6 57.5t-26 65.5t-78 30t-76.5 -10.5 t-37.5 -27.5q-22 -27 -22 -79z" />
<glyph unicode="&#x170;" horiz-adv-x="1538" d="M1415 200q16 0 16 -19l-13 -178q-2 -20 -24 -20l-343 -7q-23 0 -23 24l1 227q-86 -102 -194 -158.5t-213.5 -56.5t-178.5 34.5t-123 101.5q-101 135 -101 390q0 270 15 470l24 298l-164 -13q-11 0 -13.5 4.5t-4.5 17.5l11 186q2 19 24 21l432 15q18 -2 18 -23l-14 -176 q-3 -22 -23 -22h-48q-6 -95 -10 -170l-8 -134q-11 -197 -11 -390q0 -376 224 -376q141 0 283 88q43 26 76 56l6 890l-107 -4q-14 0 -14 22l6 186q2 21 24 21l448 12q18 -2 18 -23l3 -179q0 -22 -23 -22l-140 -5v-1104zM1313 1920q7 -4 7 -14.5t-9 -19.5l-276 -269 q-4 -4 -11 -4t-15 4l-88 47q-9 4 -9 15.5t5 18.5l200 311q6 10 17.5 10t25.5 -9zM817 1913q8 -5 8 -13.5t-10 -20.5l-256 -258q-5 -5 -13 -5t-14 3l-91 47q-9 4 -9 15t5 19l189 309q7 11 19 11t26 -9z" />
<glyph unicode="&#x171;" horiz-adv-x="1195" d="M996 1100q16 0 16 -24l10 -844l134 5q20 -1 20 -24l-18 -183q-1 -21 -24 -21h-247q-31 0 -41 38l-24 101q-165 -142 -376 -142q-295 0 -295 377q0 131 15 292l20 226l-128 -4q-21 0 -21 24l20 177q2 12 6.5 15.5t16.5 4.5l318 -8q14 0 14 -22q-5 -48 -10 -108 q-42 -451 -42 -557t40 -153.5t144 -47.5t265 102v575l-125 7q-14 2 -17 17l19 165q4 22 22 22zM1156 1639q6 -6 6 -16.5t-8 -17.5l-351 -319q-4 -4 -11 -4t-13 6l-76 68q-10 10 -10 18t6 16l288 369q9 11 21.5 11t21.5 -11zM665 1661q6 -5 6 -15.5t-8 -18.5l-331 -331 q-4 -4 -8.5 -4t-8 2t-7.5 4l-79 58q-9 7 -9 16.5t5 17.5l266 388q7 11 17 11q15 0 26 -11z" />
<glyph unicode="&#x172;" horiz-adv-x="1538" d="M1415 200q16 0 16 -19l-13 -178q-2 -20 -24 -20l-208 -4q-71 -98 -71 -161t96 -63q58 0 113.5 20t63.5 20q14 0 16 -17l21 -166q0 -14 -22 -22q-127 -40 -251 -40q-215 0 -215 179q0 118 91 264l1 234q-86 -102 -194 -158.5t-213.5 -56.5t-178.5 34.5t-123 101.5 q-101 135 -101 390q0 270 15 470l24 298l-164 -13q-11 0 -13.5 4.5t-4.5 17.5l11 186q2 19 24 21l432 15q18 -2 18 -23l-14 -176q-3 -22 -23 -22h-48q-6 -95 -10 -170l-8 -134q-11 -197 -11 -390q0 -376 224 -376q141 0 283 88q43 26 76 56l6 890l-107 -4q-14 0 -14 22 l6 186q2 21 24 21l448 12q18 -2 18 -23l3 -179q0 -22 -23 -22l-140 -5v-1104z" />
<glyph unicode="&#x173;" horiz-adv-x="1195" d="M996 1100q16 0 16 -24l10 -844l134 5q20 -1 20 -24l-18 -183q-1 -21 -24 -21h-152q-94 -121 -94 -190q0 -64 96 -64q58 0 113.5 20t63.5 20q14 0 16 -17l21 -166q0 -14 -22 -22q-127 -40 -251 -40q-215 0 -215 179q0 147 134 327l-22 92q-165 -142 -376 -142 q-295 0 -295 377q0 131 15 292l20 226l-128 -4q-21 0 -21 24l20 177q2 12 6.5 15.5t16.5 4.5l318 -8q14 0 14 -22q-5 -48 -10 -108q-42 -451 -42 -557t40 -153.5t144 -47.5t265 102v575l-125 7q-14 2 -17 17l19 165q4 22 22 22z" />
<glyph unicode="&#x174;" horiz-adv-x="1878" d="M83 1295q-28 0 -28 32l10 168q1 17 7.5 21.5t23.5 5.5l463 20q17 -1 20 -8.5t4 -21.5l10 -166q-2 -17 -8 -22.5t-22 -5.5l-161 2l226 -997l240 1168q3 20 24 21l151 11q21 -2 25 -23l263 -1181l199 1004l-154 4q-12 0 -16.5 5t-6.5 18l5 162q2 28 30 30l446 -13 q22 -2 22 -32l-10 -157q-1 -16 -7 -22t-23 -7l-96 4l-312 -1294q-4 -19 -24 -21l-157 -8q-21 2 -25 23l-247 1065l-233 -1059q-4 -19 -24 -21l-167 -8q-18 1 -25 23l-329 1289zM863 1985q29 23 45 25l95 10q16 0 46 -26l302 -251q7 -7 7 -14.5t-6 -14.5l-61 -73 q-5 -6 -10.5 -6t-13.5 4l-320 159l-297 -154q-4 -2 -10 -2t-12 8l-62 76q-6 8 -6 13t5 9z" />
<glyph unicode="&#x175;" horiz-adv-x="1702" d="M17 1108q0 20 23 20l444 -10q14 0 16 -5.5t2 -16.5l-5 -170q-1 -13 -5.5 -17t-16.5 -4l-110 9l191 -701l190 895q3 19 27 21l190 9q24 -2 28 -21l220 -904l158 714l-124 -13q-16 0 -17 17l-11 165q3 20 22 22l417 20q16 -1 16 -24v-183q0 -21 -22 -21h-99l-234 -895 q-5 -21 -27 -21l-189 -3q-23 0 -28 21l-211 844l-195 -833q-5 -19 -27 -21l-179 -8q-22 2 -28 21l-291 899l-94 -9q-21 0 -21 24zM794 1745q22 22 42 25l101 10q23 0 47 -30l298 -381q5 -7 5 -16.5t-8 -17.5l-67 -68q-6 -6 -13 -6t-11 4l-310 280l-299 -277q-8 -6 -15 -6 t-15 8l-70 72q-8 8 -8 14.5t5 11.5z" />
<glyph unicode="&#x176;" d="M962 215q18 0 18 -22l-16 -176q-1 -12 -6.5 -15.5t-17.5 -5.5l-532 15q-11 0 -14 5t-4 18l7 169q2 22 23 22l157 -3l3 337l-428 748l-86 -6q-28 0 -28 32l-10 170q0 17 7 22t24 5h483q18 0 21 -8t3 -22l-10 -165q-1 -17 -7.5 -22t-22.5 -6l-110 4l298 -599l288 591 l-127 -3q-12 0 -16.5 5t-6.5 18l-15 167q2 30 30 30l456 7q22 -2 22 -32l-10 -162q-1 -16 -7 -22.5t-23 -6.5h-87l-415 -746l-7 -340zM617 1985q29 23 45 25l95 10q16 0 46 -26l302 -251q7 -7 7 -14.5t-6 -14.5l-61 -73q-5 -6 -10.5 -6t-13.5 4l-320 159l-297 -154 q-4 -2 -10 -2t-12 8l-62 76q-6 8 -6 13t5 9z" />
<glyph unicode="&#x177;" horiz-adv-x="1197" d="M16 1100q0 20 23 20l454 10q18 0 18 -22l5 -170q-2 -13 -6 -17t-16 -4l-131 -3l260 -735l236 740l-137 -13q-16 0 -17 17l9 185q1 22 22 22l437 10q16 -1 16 -24l-10 -173q-2 -21 -22 -21l-88 8l-482 -1360q-8 -24 -24 -24l-198 54q-22 3 -22 20q0 7 4 14l219 419l-86 -3 q-13 0 -22 18l-336 841l-95 -2q-21 0 -21 24zM541 1745q22 22 42 25l101 10q23 0 47 -30l298 -381q5 -7 5 -16.5t-8 -17.5l-67 -68q-6 -6 -13 -6t-11 4l-310 280l-299 -277q-8 -6 -15 -6t-15 8l-70 72q-8 8 -8 14.5t5 11.5z" />
<glyph unicode="&#x178;" d="M962 215q18 0 18 -22l-16 -176q-1 -12 -6.5 -15.5t-17.5 -5.5l-532 15q-11 0 -14 5t-4 18l7 169q2 22 23 22l157 -3l3 337l-428 748l-86 -6q-28 0 -28 32l-10 170q0 17 7 22t24 5h483q18 0 21 -8t3 -22l-10 -165q-1 -17 -7.5 -22t-22.5 -6l-110 4l298 -599l288 591 l-127 -3q-12 0 -16.5 5t-6.5 18l-15 167q2 30 30 30l456 7q22 -2 22 -32l-10 -162q-1 -16 -7 -22.5t-23 -6.5h-87l-415 -746l-7 -340zM543 1730q-32 -5 -74.5 -5t-66 6t-37.5 21q-27 27 -27 84.5t6.5 84t24.5 41.5q31 26 100 26t92.5 -5t38.5 -19q27 -25 27 -84t-7 -87 t-26 -43t-51 -20zM1014 1730q-32 -5 -74.5 -5t-66 6t-37.5 21q-27 27 -27 84.5t6.5 84t24.5 41.5q31 26 100 26t92.5 -5t37.5 -19q28 -25 28 -84t-7 -87t-26 -43t-51 -20z" />
<glyph unicode="&#x179;" horiz-adv-x="1196" d="M938 -93q-22 2 -24 28l3 77l-718 11q-55 2 -60 53l-16 155l751 1111l-509 -17l-19 -222q-2 -22 -24 -22l-167 -3q-18 3 -20 22l13 399q1 14 5 19.5t17 7.5l187 -23l700 39q37 0 44 -47l26 -198l-745 -1090l542 -12l5 141q2 26 21 26l178 -4q16 0 16 -23l-12 -395 q0 -19 -20 -21zM954 1842q4 -8 4 -19.5t-15 -17.5l-494 -207q-8 -3 -15 -3t-11 10l-39 92q-4 10 -4 16t9 11l453 290q12 6 24 6t18 -14z" />
<glyph unicode="&#x17a;" horiz-adv-x="1196" d="M872 306q2 24 21 26l178 -14q16 -1 16 -23l-12 -335q-1 -21 -20 -21l-144 8q-22 2 -24 28l-2 41l-661 -13q-28 2 -42.5 13.5t-17.5 39.5l-16 145l662 749l-458 2l-21 -172q-3 -22 -24 -22l-147 17q-18 3 -20 22l13 339q1 14 5 19.5t17 7.5l177 -23l20 -26l605 28 q22 1 28.5 -13t9.5 -34l26 -178l-636 -728l471 24zM954 1649q5 -7 5 -17t-8 -17l-462 -340q-6 -4 -12 -4t-12 6l-67 68q-8 10 -8 18.5t5 15.5l383 420q9 11 21.5 11t21.5 -11z" />
<glyph unicode="&#x17b;" horiz-adv-x="1196" d="M938 -93q-22 2 -24 28l3 77l-718 11q-55 2 -60 53l-16 155l751 1111l-509 -17l-19 -222q-2 -22 -24 -22l-167 -3q-18 3 -20 22l13 399q1 14 5 19.5t17 7.5l187 -23l700 39q37 0 44 -47l26 -198l-745 -1090l542 -12l5 141q2 26 21 26l178 -4q16 0 16 -23l-12 -395 q0 -19 -20 -21zM659.5 1730q-33.5 -5 -91 -5t-83.5 28.5t-26 84.5t6.5 82.5t24.5 41.5q31 26 135 26q68 0 89 -19q34 -32 34 -90t-8 -86t-27.5 -43t-53 -20z" />
<glyph unicode="&#x17c;" horiz-adv-x="1196" d="M872 306q2 24 21 26l178 -14q16 -1 16 -23l-12 -335q-1 -21 -20 -21l-144 8q-22 2 -24 28l-2 41l-661 -13q-28 2 -42.5 13.5t-17.5 39.5l-16 145l662 749l-458 2l-21 -172q-3 -22 -24 -22l-147 17q-18 3 -20 22l13 339q1 14 5 19.5t17 7.5l177 -23l20 -26l605 28 q22 1 28.5 -13t9.5 -34l26 -178l-636 -728l471 24zM695 1342q-32 -5 -76.5 -5t-68 5t-36.5 18q-24 24 -24 85t6.5 87.5t24.5 41.5q31 26 101.5 26t94.5 -3.5t38 -16.5q24 -21 24 -84t-7 -91t-26 -43t-51 -20z" />
<glyph unicode="&#x17d;" horiz-adv-x="1196" d="M938 -93q-22 2 -24 28l3 77l-718 11q-55 2 -60 53l-16 155l751 1111l-509 -17l-19 -222q-2 -22 -24 -22l-167 -3q-18 3 -20 22l13 399q1 14 5 19.5t17 7.5l187 -23l700 39q37 0 44 -47l26 -198l-745 -1090l542 -12l5 141q2 26 21 26l178 -4q16 0 16 -23l-12 -395 q0 -19 -20 -21zM688 1643q-28 -24 -42 -25l-98 -9q-17 0 -46 25l-314 278q-7 7 -7 14t6 15l61 73q4 6 10 6t14 -4l331 -184l298 181q12 6 18 6t12 -8l60 -72q8 -11 8 -17q0 -5 -5 -9z" />
<glyph unicode="&#x17e;" horiz-adv-x="1196" d="M872 306q2 24 21 26l178 -14q16 -1 16 -23l-12 -335q-1 -21 -20 -21l-144 8q-22 2 -24 28l-2 41l-661 -13q-28 2 -42.5 13.5t-17.5 39.5l-16 145l662 749l-458 2l-21 -172q-3 -22 -24 -22l-147 17q-18 3 -20 22l13 339q1 14 5 19.5t17 7.5l177 -23l20 -26l605 28 q22 1 28.5 -13t9.5 -34l26 -178l-636 -728l471 24zM719 1296q-22 -22 -42 -25l-101 -10q-23 0 -47 30l-298 381q-5 7 -5 16.5t8 17.5l67 68q6 6 13 6t11 -4l310 -280l299 277q6 6 14 6t16 -8l70 -72q7 -7 7 -14t-4 -12z" />
<glyph unicode="&#x192;" horiz-adv-x="1364" d="M111 -143q0 23 21 26l168 -6q14 0 14 -16l-6 -163q5 -1 10 -1h11q78 0 117 41q46 48 57 156l88 805l-204 -11q-17 1 -20 17l9 165q3 22 22 22l207 -7q4 57 10 120l11 121q13 135 24.5 202.5t38 129t67.5 100.5q81 76 238 76q57 0 113 -10l132 12q18 0 21 -23l-16 -325 q-2 -20 -15 -20l-168 16q-24 4 -26 23l16 159q-8 1 -15 1h-14q-150 0 -183 -199q-4 -22 -9 -64l-10 -96q-10 -104 -19 -229l248 -7q14 -1 17.5 -6.5t4.5 -17.5l-10 -133q-2 -19 -22 -21l-253 7l-80 -807q-17 -184 -74 -268q-66 -98 -205 -98q-83 0 -148 12l-157 -10 q-17 0 -17 19z" />
<glyph unicode="&#x1fc;" horiz-adv-x="1903" d="M1539 812q27 -2 27 -25l-13 -156q-2 -23 -18 -23l-396 -7l-1 -397l496 18l9 121q4 37 42 39l135 5q28 -1 30 -31l16 -397q-1 -23 -21 -23l-208 4q-22 0 -22 26l4 60l-830 -24q-22 0 -23 24l6 179q0 21 19 24l126 -17l16 384l-400 -11l-148 -371l99 10q12 0 16.5 -5 t6.5 -18l15 -152q-2 -17 -8.5 -23t-21.5 -7l-436 -17q-22 2 -22 32v167q0 16 6.5 22t23.5 7l101 -5l517 1265q9 19 27 21l1016 42q30 -2 30 -27l-10 -355q0 -24 -20 -27l-162 -30q-14 0 -18 6.5t-5 19.5l-13 209l-367 -6l-19 -560zM603 759l335 16l5 573l-102 6zM1430 1842 q4 -8 4 -19.5t-15 -17.5l-494 -207q-8 -3 -15 -3t-11 10l-39 92q-4 10 -4 16t9 11l453 290q12 6 24 6t18 -14z" />
<glyph unicode="&#x1fd;" horiz-adv-x="1771" d="M906 1012q135 141 375 141q184 0 268.5 -84.5t84.5 -267.5q0 -214 -154 -277q-90 -37 -206 -40t-172 -3h-84q-27 0 -55 2q13 -193 79 -261q54 -56 187 -56q105 0 205 20l3 63q1 12 5.5 16t16.5 7l144 32q24 0 25 -19l22 -310q0 -39 -44 -44l-166 -20q-22 0 -22 22 q0 33 4 73q-122 -32 -285 -32q-208 0 -300 134q-82 -77 -140 -102q-109 -45 -214 -45t-167.5 22t-109.5 63q-101 91 -101 240q0 186 127 269t391 83q63 0 132 -3q0 81 -3 116q-7 100 -46.5 147.5t-124.5 47.5q-89 0 -220 -54q6 -42 6 -66t-22 -24l-169 -3q-18 3 -20 22 l-17 286q0 24 22 27l167 22q21 0 21 -22v-84q179 94 336.5 94t220.5 -132zM785 219q-33 105 -35 270q-344 0 -400 -109q-19 -35 -19 -78t15.5 -71t41.5 -47q51 -35 133 -35q141 0 264 70zM1382 700.5q24 35.5 24 86.5t-7.5 81.5t-26.5 51.5q-37 43 -126 43q-170 0 -227 -86 q-54 -81 -59 -249q51 -3 115.5 -3t128.5 3.5t109 20t69 52zM1197 1649q5 -7 5 -17t-8 -17l-462 -340q-6 -4 -12 -4t-12 6l-67 68q-8 10 -8 18.5t5 15.5l383 420q9 11 21.5 11t21.5 -11z" />
<glyph unicode="&#x218;" horiz-adv-x="1196" d="M878 32q-84 -28 -212 -28t-304 32l7 -80q0 -18 -23 -18l-172 -5q-38 2 -42 39l-38 387q0 20 24 22l196 18q19 0 21 -23l13 -162q144 -15 287 -15t200 48.5t57 146.5q0 88 -67 144q-35 30 -91 59l-274 133q-145 69 -199 110.5t-83 81.5q-58 81 -58 190.5t34 187t96 133.5 q130 119 330 119q142 0 308 -45q128 39 160.5 39t34.5 -27l-20 -415q-2 -23 -16 -23l-168 6q-14 1 -17 7t-4 19l-8 220q-119 28 -198 28q-199 0 -271 -111q-26 -40 -26 -94.5t26 -90.5t75 -67.5t120 -63.5l164 -75q231 -107 308 -191q84 -91 84 -255q0 -295 -254 -381z M621 -540l-95 36q-14 5 -14 12t5 17.5t13 29.5t15 38q16 43 16 63q0 28 -35 53q-36 28 -36 50t14 47.5t36 45.5q48 47 91 47t67.5 -12.5t39.5 -32.5q28 -39 28 -89.5t-11 -88t-29 -72.5q-27 -56 -60 -100t-45 -44z" />
<glyph unicode="&#x219;" horiz-adv-x="1024" d="M873 853q-270 92 -381 92q-120 0 -162 -59q-17 -23 -17 -57t8 -59t29 -44q42 -40 162 -59t209.5 -41.5t144 -58t78 -89.5t23.5 -138.5t-25 -149.5t-71 -110q-93 -89 -258 -89q-113 0 -260 28l17 -83q0 -16 -23 -18l-172 -15q-38 0 -42 39l-28 297q0 18 24 22l156 28 q17 0 21 -23l12 -66q145 -23 239 -23t140 39.5t46 104.5q0 61 -49 87q-43 24 -168.5 43.5t-206.5 43t-133 62.5q-99 74 -99 251q0 154 93 246q99 97 277 97q105 0 242 -70l-19 79q0 24 21 26l198 16q16 0 16 -23l-22 -305q-1 -21 -20 -21zM542 -540l-95 36q-14 5 -14 12 t5 17.5t13 29.5t15 38q16 43 16 63q0 28 -35 53q-36 28 -36 50t14 47.5t35 45.5q49 47 92 47t67.5 -12.5t39.5 -32.5q28 -39 28 -89.5t-11 -88t-28 -72.5q-28 -56 -61 -100t-45 -44z" />
<glyph unicode="&#x237;" horiz-adv-x="682" d="M84 -241q218 0 218 166v149l-2 166q0 85 -1 174q-4 356 -6 480l-174 -8q-16 2 -18 22l-15 181q1 25 25 26l364 22q17 -2 21 -23l-7 -189q3 -50 5 -115q22 -550 22 -723.5t-15 -263t-59 -149.5q-87 -122 -328 -122q-19 0 -23 23l-30 164q0 20 23 20z" />
<glyph unicode="&#x2c6;" horiz-adv-x="900" d="M365 1745q22 22 42 25l101 10q23 0 47 -30l298 -381q5 -7 5 -16.5t-8 -17.5l-67 -68q-6 -6 -13 -6t-11 4l-310 280l-299 -277q-8 -6 -15 -6t-15 8l-70 72q-8 8 -8 14.5t5 11.5z" />
<glyph unicode="&#x2c7;" horiz-adv-x="900" d="M535 1296q-22 -22 -42 -25l-101 -10q-23 0 -47 30l-298 381q-5 7 -5 16.5t8 17.5l67 68q6 6 13 6t11 -4l310 -280l299 277q6 6 14 6t16 -8l70 -72q7 -7 7 -14t-4 -12z" />
<glyph unicode="&#x2d8;" horiz-adv-x="900" d="M816 1698q24 0 24 -23q0 -142 -94 -240q-102 -105 -269 -105q-171 0 -281 91q-113 94 -113 255q0 21 24 23l143 13q19 0 21.5 -32t19 -64t43.5 -55q55 -48 136 -48q152 0 182 165q4 24 21 24z" />
<glyph unicode="&#x2d9;" horiz-adv-x="900" d="M510 1342q-32 -5 -76.5 -5t-68 5t-37.5 18q-23 24 -23 85t6.5 87.5t24.5 41.5q31 26 101.5 26t94.5 -3.5t38 -16.5q24 -21 24 -84t-7 -91t-26 -43t-51 -20z" />
<glyph unicode="&#x2da;" horiz-adv-x="900" d="M730 1528q0 -261 -280 -261t-280 241q0 264 284 264q213 0 260 -138q16 -46 16 -106zM333 1519q0 -111 117 -111q94 0 116 75q7 22 7 57.5t-26 65.5t-78 30t-76.5 -10.5t-37.5 -27.5q-22 -27 -22 -79z" />
<glyph unicode="&#x2db;" horiz-adv-x="900" d="M469 -450q-215 0 -215 179q0 137 124 313q36 51 75 95l107 -87q-128 -149 -128 -231q0 -64 96 -64q58 0 113.5 20t63.5 20q14 0 16 -17l21 -166q0 -14 -22 -22q-127 -40 -251 -40z" />
<glyph unicode="&#x2dc;" horiz-adv-x="900" d="M58 1462q0 15 49 58.5t81 64.5q72 47 112.5 47t75.5 -18t70 -39q93 -55 125 -55t58 7t50 17.5t45 22.5l35 21q21 13 31 13t17 -19l33 -78q2 -5 2 -12q0 -9 -17 -27l-46 -47q-110 -108 -199 -108q-46 0 -143 54t-130 54q-49 0 -99 -26q-80 -41 -92 -41q-19 0 -26 20z" />
<glyph unicode="&#x2dd;" horiz-adv-x="900" d="M915 1639q6 -6 6 -16.5t-8 -17.5l-351 -319q-4 -4 -11 -4t-13 6l-76 68q-10 10 -10 18t6 16l288 369q9 11 21.5 11t21.5 -11zM424 1661q6 -5 6 -15.5t-8 -18.5l-331 -331q-4 -4 -8.5 -4t-8 2t-7.5 4l-79 58q-9 7 -9 16.5t5 17.5l266 388q7 11 16 11q16 0 27 -11z" />
<glyph unicode="&#x394;" horiz-adv-x="1194" d="M500 1522q6 18 24 21l146 -4q19 0 25 -17l389 -1320q5 -20 5 -31l-12 -141q-4 -24 -24 -24l-916 -10q-18 0 -19 24l-13 143q0 13 6 37zM310 187l575 8l-288 1040z" />
<glyph unicode="&#x3a9;" horiz-adv-x="1194" d="M612 1390q-292 0 -292 -506q0 -329 110 -557q38 -80 92 -140l-37 -157q-6 -23 -22 -24l-330 -16q-13 1 -17.5 4.5t-6.5 15.5l12 161q3 17 16 19l201 -4q-169 175 -218 512q-16 106 -16 242t36 262t103 212q136 176 377 176q230 0 354 -180q119 -173 119 -482 q0 -350 -165 -620q-46 -77 -94 -131l233 13q16 -2 16 -19l-8 -161q-1 -12 -6 -15.5t-18 -4.5l-360 6q-19 0 -22 24l-17 157q114 105 178 309q57 181 57 392q0 365 -155 476q-52 36 -120 36z" />
<glyph unicode="&#x3bc;" horiz-adv-x="1194" d="M145 -432q-16 0 -16 24l-10 1511q0 21 24 23l177 11q21 -2 21 -21l-27 -684q3 -167 112 -193q33 -8 74 -8t78 8t71 23q59 25 136 84l-18 766q3 20 22 22l160 6q21 0 21 -24l20 -906l150 -3q21 0 23 -24l12 -153q-2 -17 -24 -21l-297 -30q-35 0 -41 38l-22 142 q-144 -146 -310 -146q-98 0 -167 46l27 -438q-1 -13 -6 -16.5t-17 -5.5z" />
<glyph unicode="&#x3c0;" horiz-adv-x="1194" d="M104 906q-18 0 -18 22l12 175q2 21 24 21l916 19q25 0 27 -23l-7 -168q-1 -22 -21 -23l-145 7q-9 -403 -9 -523t2.5 -149.5t10.5 -45.5q15 -27 59 -27t84.5 12t52.5 12q24 0 29 -23l27 -128q0 -12 -35 -29q-87 -42 -226 -42q-126 0 -166 42.5t-40 177.5q0 197 8.5 381 t11 242.5t5.5 104.5h-242l7 -917q0 -20 -24 -20l-180 -4q-20 0 -20 24l18 898z" />
<glyph unicode="&#x1e02;" d="M953 795q315 -65 315 -362q0 -353 -336 -425q-110 -23 -214 -23t-181 3.5t-151 9.5q-249 20 -262 40q-5 8 -6 20l9 147q2 28 32 28t119 -12v1099q-80 -5 -114.5 -5t-36.5 28l-9 140q2 27 24 31q231 41 503 41q533 0 533 -419q0 -206 -130 -294q-42 -29 -95 -47zM502 195 q90 -5 168 -5t148.5 8.5t121.5 33.5q108 54 108 199q0 202 -214 229q-63 8 -151.5 8t-180.5 -9v-464zM771 1342q-55 9 -118 9t-151 -9v-487q29 -2 58 -2h59q164 0 243 51q93 59 93 207q0 201 -184 231zM762.5 1730q-33.5 -5 -91 -5t-83.5 28.5t-26 84.5t6.5 82.5t24.5 41.5 q31 26 135 26q68 0 89 -19q34 -32 34 -90t-8 -86t-27.5 -43t-53 -20z" />
<glyph unicode="&#x1e03;" horiz-adv-x="1195" d="M379 1595q18 0 18 -23l-16 -483l59 21q122 41 229.5 41t189 -36t131.5 -109q90 -132 90 -432t-101 -441.5t-309 -141.5q-149 0 -279 47q-122 -57 -177 -57q-33 0 -33 38v1350l-146 8q-19 1 -20 19l-12 155q4 18 23 20zM745 916q-46 19 -141.5 19t-225.5 -40l12 -677 q121 -26 206 -26t132.5 17.5t77.5 60.5q58 83 58 298q0 211 -46 286q-27 43 -73 62zM852 1342q-32 -5 -76.5 -5t-68 5t-37.5 18q-23 24 -23 85t6.5 87.5t24.5 41.5q31 26 101.5 26t94.5 -3.5t38 -16.5q24 -21 24 -84t-7 -91t-26 -43t-51 -20z" />
<glyph unicode="&#x1e0a;" d="M246 1313q-61 -4 -141 -12q-11 0 -14 5t-4 17l-14 186q1 12 6.5 15.5t17.5 5.5q99 2 172.5 4t128 3t93 1.5t67 1t50.5 0.5h42q298 0 442 -156q167 -180 167 -598q0 -395 -169 -606q-161 -199 -445 -199q-298 0 -544 25q-17 1 -18 24l12 177q2 16 16 19l109 -8zM453 205 q84 -6 122 -6h64q203 0 298.5 141t95.5 421q0 464 -223 548q-72 27 -130 27q-100 0 -215 -7zM755.5 1730q-33.5 -5 -91 -5t-83.5 28.5t-26 84.5t6.5 82.5t24.5 41.5q31 26 135 26q68 0 89 -19q34 -32 34 -90t-8 -86t-27.5 -43t-53 -20z" />
<glyph unicode="&#x1e0b;" horiz-adv-x="1194" d="M658 1415q-20 0 -20 24l10 160q2 20 23 20l343 -19q18 -2 18 -23v-1404l105 11q20 0 20 -19l-18 -155q-3 -17 -23 -20l-248 -40q-19 0 -19 22l8 99q-168 -69 -300.5 -69t-213.5 36t-131 108q-90 133 -90 440q0 444 229 536q77 31 209 31t279 -56l-13 315zM845 894 q-143 35 -233.5 35t-138 -14t-77.5 -53q-58 -75 -58 -287q0 -211 46 -286q50 -81 191 -81q116 0 249 39zM400 1342q-32 -5 -76.5 -5t-68 5t-37.5 18q-23 24 -23 85t6.5 87.5t24.5 41.5q31 26 101.5 26t94.5 -3.5t38 -16.5q24 -21 24 -84t-7 -91t-26 -43t-51 -20z" />
<glyph unicode="&#x1e1e;" horiz-adv-x="1195" d="M123 1311q-14 3 -16 19l14 184q1 24 18 24l732 -17l-1 53q0 23 22 26l158 14q17 0 21 -23l54 -420q0 -16 -23 -18l-182 -15q-40 0 -42 39l-3 138l-393 11l-7 -476l516 2q18 0 18 -19l-7 -162q-2 -23 -27 -23l-503 13l-6 -448l258 15q21 0 23 -22l11 -176q-1 -13 -4 -18 t-14 -5l-599 -12q-12 2 -17.5 5.5t-6.5 15.5l-11 182q0 20 18 22l126 -6l8 1108zM625.5 1730q-33.5 -5 -91 -5t-83.5 28.5t-26 84.5t6.5 82.5t24.5 41.5q31 26 135 26q68 0 89 -19q34 -32 34 -90t-8 -86t-27.5 -43t-53 -20z" />
<glyph unicode="&#x1e1f;" horiz-adv-x="854" d="M449 1614q67 20 131.5 20t102.5 -2l1 27q0 17 19 17h157q18 0 21 -23l-16 -295q-2 -20 -15 -20l-148 -4q-25 1 -26 23l3 106q-38 4 -77 4t-69 -11t-50 -36q-40 -48 -40 -143t2 -179l295 4q14 -1 17.5 -6.5t4.5 -17.5l-10 -153q-2 -19 -22 -21l-272 7v-705l184 4 q16 0 16 -19l-18 -171q-2 -12 -6.5 -15.5t-17.5 -4.5l-483 6q-14 0 -14 24l10 151q2 19 16 19l100 2l9 707l-176 -11q-17 1 -20 17l-21 155q0 22 22 22l189 3q-9 87 -9 191.5t25 165.5t71.5 101.5t113.5 60.5zM183 1605q-32 -5 -76.5 -5t-68 5t-36.5 19q-24 23 -24 84 t6.5 87.5t24.5 41.5q31 26 101.5 26t94.5 -3.5t38 -15.5q24 -22 24 -85t-7 -91t-26 -43t-51 -20z" />
<glyph unicode="&#x1e40;" horiz-adv-x="1872" d="M1369 3q-22 0 -24 20l7 168q2 19 16 19h69l-60 1127l-319 -1327q-4 -20 -24 -20l-212 -3q-18 0 -23 22l-331 1282l-29 -1075l92 4q13 0 16 -19l17 -178q-2 -20 -24 -20l-434 -7q-17 0 -18 24l12 187q2 16 16 19l132 -12l59 1081l-124 -12q-20 0 -21 22l-9 186q2 19 24 21 l410 22q29 0 37 -28l318 -1268l316 1259q6 28 37 28l393 -3q12 -2 17.5 -5.5t6.5 -15.5l11 -196q-2 -12 -4.5 -17t-13.5 -5l-123 1l68 -1071l133 3q14 -3 16 -19l-18 -167q-4 -24 -18 -24zM997.5 1730q-33.5 -5 -91 -5t-83.5 28.5t-26 84.5t6.5 82.5t24.5 41.5q31 26 135 26 q68 0 89 -19q34 -32 34 -90t-8 -86t-27.5 -43t-53 -20z" />
<glyph unicode="&#x1e41;" horiz-adv-x="1875" d="M1030 1000q166 151 326 151q235 0 281 -225q15 -74 15 -143.5t-1.5 -138.5t-4.5 -148l-6 -159q-3 -80 -6 -145l145 9q21 0 21 -24l-20 -167q0 -12 -5.5 -15.5t-17.5 -4.5l-299 8q-23 0 -23 22q3 110 3 200l2 158v126v175q0 130 -20.5 169t-49.5 53.5t-84 14.5 q-96 0 -215 -64q7 -49 7 -107.5t-1 -128t-2.5 -146.5l-3 -154t-3.5 -138l131 3q21 0 21 -24l-10 -137q-1 -12 -6 -15.5t-17 -4.5l-371 8q-21 0 -21 22l-5 140q2 21 22 21l62 -5q2 138 2 248v245q0 128 -22.5 169t-52.5 56.5t-79 15.5q-120 0 -255 -101v-622l105 5 q17 0 17 -17l11 -155q-4 -22 -22 -22l-410 10q-23 0 -23 24l-10 153q4 21 22 21h97v658h-153q-20 0 -20 24l-2 191q4 18 24 21l252 -9q18 -2 23 -23l29 -133q191 196 373.5 196t249.5 -141zM1000 1342q-32 -5 -76.5 -5t-68 5t-37.5 18q-23 24 -23 85t6.5 87.5t24.5 41.5 q31 26 101.5 26t94.5 -3.5t38 -16.5q24 -21 24 -84t-7 -91t-26 -43t-51 -20z" />
<glyph unicode="&#x1e56;" d="M737 218q16 0 16 -19l-13 -166q-2 -20 -24 -20l-574 -7q-18 0 -18 24l2 175q0 15 16 19l157 -16v1120l-156 -13q-10 0 -17.5 8t-7.5 20l11 140q2 27 28 31.5t68.5 10t92 10t104 8.5t108.5 7q117 5 228 5t218.5 -27t179.5 -84q143 -116 143 -366q0 -356 -333 -426 q-101 -22 -219 -22t-234 10v-435zM513 822q97 -9 190 -9t156.5 10.5t109.5 40.5q97 62 97 216q0 274 -302 274q-114 0 -251 -9v-523zM764.5 1730q-33.5 -5 -91 -5t-83.5 28.5t-26 84.5t6.5 82.5t24.5 41.5q31 26 135 26q68 0 89 -19q34 -32 34 -90t-8 -86t-27.5 -43t-53 -20 z" />
<glyph unicode="&#x1e57;" horiz-adv-x="1194" d="M120 -458q-22 0 -22 24l12 165q1 13 6 16.5t16 4.5l69 -9v1178l-164 -14q-20 0 -20 19l-2 205q3 17 23 20l278 -10q18 0 19 -22l6 -65q177 96 312.5 96t217 -36t131.5 -109q90 -133 90 -440q0 -433 -229 -531q-77 -33 -204.5 -33t-264.5 50l14 -318l188 7q21 -2 21 -21 l-10 -147q-2 -20 -23 -20zM387 242q125 -30 215.5 -30t138 14t77.5 53q58 75 58 287q0 210 -46 286q-50 82 -191 82q-96 0 -230 -43zM614 1342q-32 -5 -76.5 -5t-68 5t-37.5 18q-23 24 -23 85t6.5 87.5t24.5 41.5q31 26 101.5 26t94.5 -3.5t38 -16.5q24 -21 24 -84t-7 -91 t-26 -43t-51 -20z" />
<glyph unicode="&#x1e60;" horiz-adv-x="1196" d="M878 32q-84 -28 -212 -28t-304 32l7 -80q0 -18 -23 -18l-172 -5q-38 2 -42 39l-38 387q0 20 24 22l196 18q19 0 21 -23l13 -162q144 -15 287 -15t200 48.5t57 146.5q0 88 -67 144q-35 30 -91 59l-274 133q-145 69 -199 110.5t-83 81.5q-58 81 -58 190.5t34 187t96 133.5 q130 119 330 119q142 0 308 -45q128 39 160.5 39t34.5 -27l-20 -415q-2 -23 -16 -23l-168 6q-14 1 -17 7t-4 19l-8 220q-119 28 -198 28q-199 0 -271 -111q-26 -40 -26 -94.5t26 -90.5t75 -67.5t120 -63.5l164 -75q231 -107 308 -191q84 -91 84 -255q0 -295 -254 -381z M669.5 1730q-33.5 -5 -91 -5t-83.5 28.5t-26 84.5t6.5 82.5t24.5 41.5q31 26 135 26q68 0 89 -19q34 -32 34 -90t-8 -86t-27.5 -43t-53 -20z" />
<glyph unicode="&#x1e61;" horiz-adv-x="1024" d="M873 853q-270 92 -381 92q-120 0 -162 -59q-17 -23 -17 -57t8 -59t29 -44q42 -40 162 -59t209.5 -41.5t144 -58t78 -89.5t23.5 -138.5t-25 -149.5t-71 -110q-93 -89 -258 -89q-113 0 -260 28l17 -83q0 -16 -23 -18l-172 -15q-38 0 -42 39l-28 297q0 18 24 22l156 28 q17 0 21 -23l12 -66q145 -23 239 -23t140 39.5t46 104.5q0 61 -49 87q-43 24 -168.5 43.5t-206.5 43t-133 62.5q-99 74 -99 251q0 154 93 246q99 97 277 97q105 0 242 -70l-19 79q0 24 21 26l198 16q16 0 16 -23l-22 -305q-1 -21 -20 -21zM595 1342q-32 -5 -76.5 -5t-68 5 t-36.5 18q-24 24 -24 85t6.5 87.5t24.5 41.5q31 26 101.5 26t94.5 -3.5t38 -16.5q24 -21 24 -84t-7 -91t-26 -43t-51 -20z" />
<glyph unicode="&#x1e6a;" d="M113 1049q-17 2 -21 24l9 469q0 18 23 18l164 -20q20 0 20 -23v-26l767 8l184 20q22 0 22 -22l-30 -443q-2 -16 -19 -16l-171 8q-12 2 -15.5 6.5t-4.5 17.5l3 247l-258 -4l17 -1088l193 11q16 -4 16 -19l2 -177q-2 -24 -18 -24l-594 -13q-22 0 -24 20l7 198q0 19 16 19 l178 -11l-18 1078l-252 -14l1 -212q-1 -19 -24 -20zM742.5 1730q-33.5 -5 -91 -5t-83.5 28.5t-26 84.5t6.5 82.5t24.5 41.5q31 26 135 26q68 0 89 -19q34 -32 34 -90t-8 -86t-27.5 -43t-53 -20z" />
<glyph unicode="&#x1e6b;" horiz-adv-x="851" d="M608 6q-48 -3 -141.5 -3t-152 19t-96.5 61q-75 83 -75 267q0 119 3.5 227.5t6 193t5.5 167.5l-133 10q-20 1 -20 27l-1 115q0 22 22 22l140 3q2 52 4 99l8 151q3 53 8 60.5t18 9.5l186 22q21 0 21 -22q0 -32 -11 -145l-15 -169l392 11q22 0 22 -24v-163q0 -20 -22 -21 l-405 17q-17 -234 -17 -408t7.5 -225t27.5 -79q34 -48 145 -48q32 0 58 2q-3 35 -3 52.5t19 20.5l167 20q21 0 21 -23l4 -254q0 -17 -15 -20l-148 -24q-23 2 -26 19zM773 1342q-32 -5 -76.5 -5t-68 5t-36.5 18q-24 24 -24 85t6.5 87.5t24.5 41.5q31 26 101.5 26t94.5 -3.5 t38 -16.5q24 -21 24 -84t-7 -91t-26 -43t-51 -20z" />
<glyph unicode="&#x1e80;" horiz-adv-x="1878" d="M83 1295q-28 0 -28 32l10 168q1 17 7.5 21.5t23.5 5.5l463 20q17 -1 20 -8.5t4 -21.5l10 -166q-2 -17 -8 -22.5t-22 -5.5l-161 2l226 -997l240 1168q3 20 24 21l151 11q21 -2 25 -23l263 -1181l199 1004l-154 4q-12 0 -16.5 5t-6.5 18l5 162q2 28 30 30l446 -13 q22 -2 22 -32l-10 -157q-1 -16 -7 -22t-23 -7l-96 4l-312 -1294q-4 -19 -24 -21l-157 -8q-21 2 -25 23l-247 1065l-233 -1059q-4 -19 -24 -21l-167 -8q-18 1 -25 23l-329 1289zM716 2006q6 14 18 14t24 -6l492 -276q9 -5 9 -11t-4 -16l-39 -92q-4 -10 -11.5 -10t-14.5 3 l-533 193q-15 6 -15 17.5t4 19.5z" />
<glyph unicode="&#x1e81;" horiz-adv-x="1702" d="M17 1108q0 20 23 20l444 -10q14 0 16 -5.5t2 -16.5l-5 -170q-1 -13 -5.5 -17t-16.5 -4l-110 9l191 -701l190 895q3 19 27 21l190 9q24 -2 28 -21l220 -904l158 714l-124 -13q-16 0 -17 17l-11 165q3 20 22 22l417 20q16 -1 16 -24v-183q0 -21 -22 -21h-99l-234 -895 q-5 -21 -27 -21l-189 -3q-23 0 -28 21l-211 844l-195 -833q-5 -19 -27 -21l-179 -8q-22 2 -28 21l-291 899l-94 -9q-21 0 -21 24zM683 1799q9 11 21.5 11t21.5 -11l383 -420q5 -7 5 -15.5t-8 -18.5l-67 -68q-6 -6 -13 -6t-11 4l-462 340q-8 7 -8 17t5 17z" />
<glyph unicode="&#x1e82;" horiz-adv-x="1878" d="M83 1295q-28 0 -28 32l10 168q1 17 7.5 21.5t23.5 5.5l463 20q17 -1 20 -8.5t4 -21.5l10 -166q-2 -17 -8 -22.5t-22 -5.5l-161 2l226 -997l240 1168q3 20 24 21l151 11q21 -2 25 -23l263 -1181l199 1004l-154 4q-12 0 -16.5 5t-6.5 18l5 162q2 28 30 30l446 -13 q22 -2 22 -32l-10 -157q-1 -16 -7 -22t-23 -7l-96 4l-312 -1294q-4 -19 -24 -21l-157 -8q-21 2 -25 23l-247 1065l-233 -1059q-4 -19 -24 -21l-167 -8q-18 1 -25 23l-329 1289zM1242 1842q4 -8 4 -19.5t-15 -17.5l-494 -207q-8 -3 -15 -3t-11 10l-39 92q-4 10 -4 16t9 11 l453 290q12 6 24 6t18 -14z" />
<glyph unicode="&#x1e83;" horiz-adv-x="1702" d="M17 1108q0 20 23 20l444 -10q14 0 16 -5.5t2 -16.5l-5 -170q-1 -13 -5.5 -17t-16.5 -4l-110 9l191 -701l190 895q3 19 27 21l190 9q24 -2 28 -21l220 -904l158 714l-124 -13q-16 0 -17 17l-11 165q3 20 22 22l417 20q16 -1 16 -24v-183q0 -21 -22 -21h-99l-234 -895 q-5 -21 -27 -21l-189 -3q-23 0 -28 21l-211 844l-195 -833q-5 -19 -27 -21l-179 -8q-22 2 -28 21l-291 899l-94 -9q-21 0 -21 24zM1199 1649q5 -7 5 -17t-8 -17l-462 -340q-6 -4 -12 -4t-12 6l-67 68q-8 10 -8 18.5t5 15.5l383 420q9 11 21.5 11t21.5 -11z" />
<glyph unicode="&#x1e84;" horiz-adv-x="1878" d="M83 1295q-28 0 -28 32l10 168q1 17 7.5 21.5t23.5 5.5l463 20q17 -1 20 -8.5t4 -21.5l10 -166q-2 -17 -8 -22.5t-22 -5.5l-161 2l226 -997l240 1168q3 20 24 21l151 11q21 -2 25 -23l263 -1181l199 1004l-154 4q-12 0 -16.5 5t-6.5 18l5 162q2 28 30 30l446 -13 q22 -2 22 -32l-10 -157q-1 -16 -7 -22t-23 -7l-96 4l-312 -1294q-4 -19 -24 -21l-157 -8q-21 2 -25 23l-247 1065l-233 -1059q-4 -19 -24 -21l-167 -8q-18 1 -25 23l-329 1289zM783 1730q-32 -5 -74.5 -5t-66 6t-37.5 21q-27 27 -27 84.5t6.5 84t24.5 41.5q31 26 100 26 t92.5 -5t38.5 -19q27 -25 27 -84t-7 -87t-26 -43t-51 -20zM1254 1730q-32 -5 -74.5 -5t-66 6t-37.5 21q-27 27 -27 84.5t6.5 84t24.5 41.5q31 26 100 26t92.5 -5t37.5 -19q28 -25 28 -84t-7 -87t-26 -43t-51 -20z" />
<glyph unicode="&#x1e85;" horiz-adv-x="1702" d="M17 1108q0 20 23 20l444 -10q14 0 16 -5.5t2 -16.5l-5 -170q-1 -13 -5.5 -17t-16.5 -4l-110 9l191 -701l190 895q3 19 27 21l190 9q24 -2 28 -21l220 -904l158 714l-124 -13q-16 0 -17 17l-11 165q3 20 22 22l417 20q16 -1 16 -24v-183q0 -21 -22 -21h-99l-234 -895 q-5 -21 -27 -21l-189 -3q-23 0 -28 21l-211 844l-195 -833q-5 -19 -27 -21l-179 -8q-22 2 -28 21l-291 899l-94 -9q-21 0 -21 24zM704 1342q-32 -5 -74.5 -5t-66 6t-37.5 21q-27 27 -27 84.5t6.5 84t24.5 41.5q31 26 100 26t92.5 -5t37.5 -19q28 -25 28 -84t-7 -87t-26 -43 t-51 -20zM1175 1342q-32 -5 -74.5 -5t-66 6t-37.5 21q-27 27 -27 84.5t6.5 84t24.5 41.5q31 26 100 26t92.5 -5t38.5 -19q27 -25 27 -84t-7 -87t-26 -43t-51 -20z" />
<glyph unicode="&#x1ef2;" d="M962 215q18 0 18 -22l-16 -176q-1 -12 -6.5 -15.5t-17.5 -5.5l-532 15q-11 0 -14 5t-4 18l7 169q2 22 23 22l157 -3l3 337l-428 748l-86 -6q-28 0 -28 32l-10 170q0 17 7 22t24 5h483q18 0 21 -8t3 -22l-10 -165q-1 -17 -7.5 -22t-22.5 -6l-110 4l298 -599l288 591 l-127 -3q-12 0 -16.5 5t-6.5 18l-15 167q2 30 30 30l456 7q22 -2 22 -32l-10 -162q-1 -16 -7 -22.5t-23 -6.5h-87l-415 -746l-7 -340zM466 2006q6 14 18 14t24 -6l492 -276q9 -5 9 -11t-4 -16l-39 -92q-4 -10 -11.5 -10t-14.5 3l-533 193q-15 6 -15 17.5t4 19.5z" />
<glyph unicode="&#x1ef3;" horiz-adv-x="1197" d="M16 1100q0 20 23 20l454 10q18 0 18 -22l5 -170q-2 -13 -6 -17t-16 -4l-131 -3l260 -735l236 740l-137 -13q-16 0 -17 17l9 185q1 22 22 22l437 10q16 -1 16 -24l-10 -173q-2 -21 -22 -21l-88 8l-482 -1360q-8 -24 -24 -24l-198 54q-22 3 -22 20q0 7 4 14l219 419l-86 -3 q-13 0 -22 18l-336 841l-95 -2q-21 0 -21 24zM430 1799q9 11 21.5 11t21.5 -11l383 -420q5 -7 5 -15.5t-8 -18.5l-67 -68q-6 -6 -13 -6t-11 4l-462 340q-8 7 -8 17t5 17z" />
<glyph unicode="&#x2000;" horiz-adv-x="1010" />
<glyph unicode="&#x2001;" horiz-adv-x="2020" />
<glyph unicode="&#x2002;" horiz-adv-x="1010" />
<glyph unicode="&#x2003;" horiz-adv-x="2020" />
<glyph unicode="&#x2004;" horiz-adv-x="673" />
<glyph unicode="&#x2005;" horiz-adv-x="505" />
<glyph unicode="&#x2006;" horiz-adv-x="336" />
<glyph unicode="&#x2007;" horiz-adv-x="336" />
<glyph unicode="&#x2008;" horiz-adv-x="252" />
<glyph unicode="&#x2009;" horiz-adv-x="404" />
<glyph unicode="&#x200a;" horiz-adv-x="112" />
<glyph unicode="&#x2010;" horiz-adv-x="1194" d="M1000 772q16 -2 16 -19l-18 -151q-2 -12 -6.5 -15.5t-17.5 -4.5l-783 -4q-14 0 -14 24l10 141q2 19 16 19z" />
<glyph unicode="&#x2011;" horiz-adv-x="1194" d="M1000 772q16 -2 16 -19l-18 -151q-2 -12 -6.5 -15.5t-17.5 -4.5l-783 -4q-14 0 -14 24l10 141q2 19 16 19z" />
<glyph unicode="&#x2012;" horiz-adv-x="1194" d="M1000 772q16 -2 16 -19l-18 -151q-2 -12 -6.5 -15.5t-17.5 -4.5l-783 -4q-14 0 -14 24l10 141q2 19 16 19z" />
<glyph unicode="&#x2013;" horiz-adv-x="1193" d="M1111 697q0 -19 -13 -19l-994 10q-17 0 -17 19l-5 141q0 24 27 24l502 -12l480 8q16 -2 16 -20z" />
<glyph unicode="&#x2014;" horiz-adv-x="2223" d="M98 678q-16 2 -16 19l8 151q1 12 6 15.5t18 4.5l2008 4q19 0 19 -24l-10 -141q-2 -19 -16 -19z" />
<glyph unicode="&#x2018;" horiz-adv-x="512" d="M356 1729q-15 -103 -15 -165t5.5 -95t14 -61t18.5 -51l18 -41q12 -27 12 -45t-16.5 -34t-41.5 -27q-52 -23 -111 -23q-107 0 -107 159q0 185 106 405z" />
<glyph unicode="&#x2019;" horiz-adv-x="512" d="M156 1209q15 103 15 165t-5.5 95t-14 61t-18.5 51l-18 41q-12 27 -12 45t16.5 34t41.5 27q52 23 111 23q107 0 107 -159q0 -185 -106 -405z" />
<glyph unicode="&#x201a;" horiz-adv-x="512" d="M156 -291q15 103 15 165t-5.5 95t-14 61t-18.5 51l-18 41q-12 27 -12 45t16.5 34t41.5 27q52 23 111 23q107 0 107 -159q0 -185 -106 -405z" />
<glyph unicode="&#x201c;" horiz-adv-x="1024" d="M377 1729q-15 -103 -15 -165t5.5 -95t14 -61t18.5 -51l18 -41q12 -27 12 -45t-16.5 -34t-41.5 -27q-52 -23 -111 -23q-107 0 -107 159q0 185 106 405zM847 1729q-15 -103 -15 -165t5.5 -95t14 -61t18.5 -51l18 -41q12 -27 12 -45t-16.5 -34t-41.5 -27q-52 -23 -111 -23 q-107 0 -107 159q0 185 106 405z" />
<glyph unicode="&#x201d;" horiz-adv-x="1024" d="M177 1209q15 103 15 165t-5.5 95t-14 61t-18.5 51l-18 41q-12 27 -12 45t16.5 34t41.5 27q52 23 111 23q107 0 107 -159q0 -185 -106 -405zM647 1209q15 103 15 165t-5.5 95t-14 61t-18.5 51l-18 41q-12 27 -12 45t16.5 34t41.5 27q52 23 111 23q107 0 107 -159 q0 -185 -106 -405z" />
<glyph unicode="&#x201e;" horiz-adv-x="1020" d="M177 -291q15 103 15 165t-5.5 95t-14 61t-18.5 51l-18 41q-12 27 -12 45t16.5 34t41.5 27q52 23 111 23q107 0 107 -159q0 -185 -106 -405zM647 -291q15 103 15 165t-5.5 95t-14 61t-18.5 51l-18 41q-12 27 -12 45t16.5 34t41.5 27q52 23 111 23q107 0 107 -159 q0 -185 -106 -405z" />
<glyph unicode="&#x2020;" horiz-adv-x="856" d="M319 1520q2 16 19 16l171 2q12 -1 15.5 -6t4.5 -18l-8 -433l255 11q16 -2 16 -19l-8 -151q-2 -12 -6.5 -16t-17.5 -4l-239 -2l12 -1041q0 -20 -24 -22l-161 -10q-19 2 -19 16l2 1056l-254 -1q-14 0 -14 24v141q0 19 16 19l251 -4z" />
<glyph unicode="&#x2021;" horiz-adv-x="856" d="M76 898q-14 0 -14 24l10 141q1 19 18 19l239 -4l-11 430q2 16 19 18l171 12q12 -1 15.5 -6t4.5 -18l-8 -436l250 4q16 -2 16 -19l-3 -141q0 -20 -24 -20l-242 -2l-5 -389l263 11q16 -1 16 -19l2 -151q0 -20 -24 -20l-257 -2l10 -483q0 -20 -24 -20l-161 5q-19 0 -19 20 l14 477l-252 -1q-18 0 -18 24l5 131q1 19 19 19l247 3l-2 394z" />
<glyph unicode="&#x2022;" horiz-adv-x="686" d="M521.5 551q-22.5 -27 -59.5 -45q-75 -37 -180 -37q-70 0 -110 78q-30 61 -30 123.5t28 90.5t69 44q72 28 170 28q69 0 105 -78q30 -63 30 -120t-22.5 -84z" />
<glyph unicode="&#x2026;" horiz-adv-x="1536" d="M415.5 135q5.5 -30 5.5 -56t-17.5 -47.5t-46.5 -35.5q-60 -29 -116 -29t-77 17.5t-34 43.5q-25 50 -25 98.5t22 70.5t54 35q55 21 109.5 21t75 -17.5t32.5 -44t17.5 -56.5zM927.5 135q5.5 -30 5.5 -56t-17.5 -47.5t-46.5 -35.5q-60 -29 -116 -29t-77 17.5t-34 43.5 q-25 50 -25 98.5t22 70.5t54 35q55 21 109.5 21t75 -17.5t32.5 -44t17.5 -56.5zM1439.5 135q5.5 -30 5.5 -56t-17.5 -47.5t-46.5 -35.5q-60 -29 -116 -29t-77 17.5t-34 43.5q-25 50 -25 98.5t22 70.5t54 35q55 21 109.5 21t75 -17.5t32.5 -44t17.5 -56.5z" />
<glyph unicode="&#x202f;" horiz-adv-x="404" />
<glyph unicode="&#x2030;" horiz-adv-x="2050" d="M1247 1407q8 -6 8 -13.5t-5 -15.5l-473 -640l-488 -700q-6 -8 -14 -8t-16 5l-90 64q-8 5 -8 12.5t7 18.5l498 691l460 652q6 9 12.5 9t14.5 -5zM631.5 1330.5q17.5 -53.5 17.5 -119t-19.5 -121t-57.5 -94.5q-80 -84 -222 -84q-136 0 -212 87q-71 81 -71 207 q0 203 161 273q56 24 131.5 24t129.5 -21.5t89.5 -59.5t53 -91.5zM419.5 1348.5q-23.5 12.5 -59.5 12.5t-62 -14t-41 -37q-27 -40 -27 -86.5t7 -73t23 -48.5q34 -49 97 -49q95 0 125 100q8 29 8 59.5t-7.5 57t-23.5 46.5t-39.5 32.5zM1291.5 413.5q17.5 -53.5 17.5 -119 t-19.5 -121t-57.5 -95.5q-80 -83 -222 -83q-136 0 -212 87q-71 81 -71 207q0 203 161 273q56 24 131.5 24t129.5 -21.5t89.5 -59.5t53 -91.5zM1079.5 431.5q-23.5 12.5 -59.5 12.5t-62 -14t-41 -36q-27 -41 -27 -87.5t7 -73t23 -48.5q34 -49 97 -49q95 0 125 100 q8 29 8 59.5t-7.5 57t-23.5 46.5t-39.5 32.5zM1971.5 413.5q17.5 -53.5 17.5 -119t-19.5 -121t-57.5 -95.5q-80 -83 -222 -83q-136 0 -212 87q-71 81 -71 207q0 203 161 273q56 24 131.5 24t129.5 -21.5t89.5 -59.5t53 -91.5zM1759.5 431.5q-23.5 12.5 -59.5 12.5t-62 -14 t-41 -36q-27 -41 -27 -87.5t7 -73t23 -48.5q34 -49 97 -49q95 0 125 100q8 29 8 59.5t-7.5 57t-23.5 46.5t-39.5 32.5z" />
<glyph unicode="&#x2039;" horiz-adv-x="854" d="M95 506l-17 17q-8 9 -8 18l10 76q3 17 17 31l547 507q5 5 15.5 5t18.5 -8l68 -67q6 -6 6 -13t-4 -11l-415 -484l422 -473q6 -8 6 -15t-8 -15l-72 -70q-8 -8 -14.5 -8t-11.5 5z" />
<glyph unicode="&#x203a;" horiz-adv-x="852" d="M197 1q-5 -5 -11.5 -5t-14.5 8l-72 70q-8 8 -8 15t6 15l422 473l-415 484q-4 4 -4 11t6 13l68 67q8 8 18.5 8t15.5 -5l547 -507q14 -14 17 -31l10 -76q0 -9 -8 -18l-17 -17z" />
<glyph unicode="&#x2044;" horiz-adv-x="1194" d="M1136 1407q8 -6 8 -13.5t-5 -15.5l-473 -640l-488 -700q-8 -8 -15 -8t-15 5l-90 64q-8 5 -8 12.5t7 18.5l498 691l460 652q6 9 12.5 9t14.5 -5z" />
<glyph unicode="&#x205f;" horiz-adv-x="505" />
<glyph unicode="&#x20ac;" horiz-adv-x="1364" d="M860 842q0 -24 -14 -24l-372 10v-197l314 7q13 -1 18 -4.5t6 -15.5l8 -131q0 -17 -16 -19l-323 4q12 -170 68 -238q60 -74 200 -74q112 0 258 32l9 178q1 12 6 16t18 6l176 8q17 0 21 -23l-10 -392q0 -18 -23 -18l-186 44q-135 -55 -281.5 -55t-223.5 35t-127 101 q-90 121 -116 379l-163 -3q-16 0 -16 19v121q0 24 14 24l155 -1q-2 35 -2 73v115l-105 -7q-13 1 -18 4.5t-6 15.5l-8 131q0 17 16 19h130q41 421 291 520q83 34 219.5 34t302.5 -60l3 52q1 21 20 22l145 -10q40 -4 42 -39l-22 -446q-1 -23 -22 -26l-168 16q-17 2 -21 23 l13 242q-162 27 -253 27t-147 -19.5t-94 -61.5q-73 -80 -93 -274h361q16 0 16 -19v-121z" />
<glyph unicode="&#x2122;" horiz-adv-x="1881" d="M1078 942q8 0 8 -9l7 -105q0 -10 -11 -10l-237 -4q-10 0 -10 13l8 108q1 8 7 9l64 -6l52 475l-56 -5q-7 0 -8 11l-4 107q0 7 11 11l256 11q12 0 17 -14l120 -513l112 509q3 13 18 13l228 -1q11 0 11 -10l5 -113q0 -11 -10 -11h-50l71 -470l68 1q7 -1 8 -9l-9 -100 q-2 -11 -10 -11l-237 -1q-11 0 -11 10l3 99q0 9 8 9h31l-58 454l-121 -569q-1 -9 -11 -9l-102 -2q-9 0 -11 10l-172 570l-36 -450zM252 1312q0 -9 -12 -9l-112 -7q-8 0 -10 11l4 245q0 8 12 8l107 -9q10 -1 10 -11v-14l381 5l114 10q10 0 10 -11l-15 -229q0 -9 -9 -9l-111 3 q-9 0 -9 11l1 122l-103 8l8 -491l101 4q8 -1 8 -9l1 -105q0 -11 -9 -11l-333 -6q-12 0 -12 10l4 114q0 9 8 9l75 -5l-8 483l-102 -14z" />
<glyph unicode="&#x2202;" horiz-adv-x="1194" d="M847 917q1 17 1 33v34q0 216 -44 293q-48 85 -187 85q-61 0 -134.5 -12t-88 -12t-17.5 14l-11 132q0 19 22 24.5t59 10.5t79 9q94 9 180 9t157.5 -38.5t112.5 -110.5q73 -124 73 -400q0 -417 -113 -686q-83 -198 -228 -276q-74 -40 -174.5 -40t-176.5 33.5t-125 94.5 q-95 120 -95 340q0 250 139 391q124 126 300 126t271 -54zM583 780q-242 0 -242 -350q0 -174 109 -231q37 -19 97.5 -19t113.5 46t89 122q64 136 87 385q-128 47 -254 47z" />
<glyph unicode="&#x220f;" horiz-adv-x="1194" d="M1067 1512q16 -2 16 -19l-5 -151q-2 -20 -24 -20l-132 -2l12 -1329q0 -14 -24 -14h-171q-19 0 -19 21l12 1319l-267 -4l12 -1322q0 -14 -24 -14l-171 10q-19 2 -19 22l12 1301l-138 -2q-20 0 -20 24v151q0 19 19 19l679 -5z" />
<glyph unicode="&#x2211;" horiz-adv-x="1194" d="M1036 1338q-2 -19 -22 -19l-652 -7l342 -479q15 -21 17 -42l7 -91q-1 -21 -16 -41l-355 -473l674 14q16 -2 16 -19l-8 -161q-2 -20 -24 -20l-863 -4q-16 0 -19 24l-15 136q2 19 13 34l416 565l-409 539q-11 13 -11 24l18 151q2 12 6.5 16t17.5 4l836 24q19 0 20 -22z" />
<glyph unicode="&#x2212;" horiz-adv-x="1194" d="M1000 772q16 -2 16 -19l-18 -151q-2 -12 -6.5 -15.5t-17.5 -4.5l-783 -4q-14 0 -14 24l10 141q2 19 16 19z" />
<glyph unicode="&#x221a;" horiz-adv-x="1194" d="M477 516l162 -547l237 1512q3 17 19 17l173 -30q17 -3 17 -21l-334 -1726q-3 -20 -24 -21l-165 -8q-20 2 -27 23l-215 652l-118 -80q-10 -7 -23.5 -7t-21.5 17l-57 113q-4 8 -4 18t15 19l256 144q10 6 20 6t22 -12z" />
<glyph unicode="&#x221e;" horiz-adv-x="1529" d="M753 931q153 258 372 258q162 0 249 -118q83 -111 83 -311q0 -182 -82 -294q-88 -118 -247 -118q-188 0 -292 128q-33 40 -62 89q-130 -195 -339 -195q-176 0 -275 110q-93 103 -93 271q0 167 88 275q98 120 278 120q165 0 259 -121q31 -40 61 -94zM1268 758 q0 220 -156 220q-62 0 -121 -63.5t-133 -204.5q94 -157 243 -157q114 0 153 113q14 39 14 92zM252 764q0 -203 185 -203q68 0 106 36q65 61 136 196q-91 153 -244 153q-86 0 -134.5 -47t-48.5 -135z" />
<glyph unicode="&#x222b;" horiz-adv-x="1194" d="M718 -4q0 -300 -276 -300q-311 0 -311 71l27 128q5 23 27 23q11 0 29 -4l40 -7q77 -14 144 -14t97.5 42.5t30.5 140.5q0 176 -18 456q-32 498 -32 816q0 155 89 235q78 70 218 70q119 0 259 -53q19 -7 19 -30l-25 -121q-5 -23 -27 -23q-11 0 -41 7q-77 18 -150 18 q-150 0 -150 -171q0 -180 18 -470q32 -495 32 -814z" />
<glyph unicode="&#x2248;" horiz-adv-x="1194" d="M105 508q0 15 47.5 57t84.5 65q85 51 154.5 51t112 -18.5t84.5 -41.5q110 -59 181 -59q80 0 169 41l44 21q42 23 51 23q11 0 21 -19l33 -68q2 -5 2 -12q0 -9 -16 -26.5t-49 -45.5t-74 -54q-97 -59 -169 -59t-121 22l-97 46q-98 49 -166 49t-123 -24t-72 -32 q-35 -17 -43 -17q-14 0 -22 20zM105 904q0 15 47.5 57t84.5 65q85 51 154.5 51t112 -18.5t84.5 -41.5q110 -59 181 -59q80 0 169 41l44 21q42 23 51 23q11 0 21 -19l33 -68q2 -5 2 -12q0 -9 -16 -26.5t-49 -45.5t-74 -54q-97 -59 -169 -59t-121 22l-97 46q-98 49 -166 49 t-123 -24t-72 -32q-35 -17 -43 -17q-14 0 -22 20z" />
<glyph unicode="&#x2260;" horiz-adv-x="1194" d="M182 843q0 19 18 19l492 -6l117 265q10 16 17.5 16t10.5 -2l91 -37q15 -8 15 -16.5t-4 -12.5l-108 -215l164 -2q16 0 16 -19v-141q0 -24 -17 -24l-252 7l-71 -143l-36 -82l344 8q13 -1 18 -4.5t6 -15.5l8 -147q0 -7 -5 -15t-19 -8l-431 5l-124 -281q-8 -15 -15 -15t-13 4 l-94 36q-15 7 -15 16.5t2 12.5l117 229l-216 3q-16 0 -16 19v141q0 24 19 24l304 -9l63 122l46 104l-18 1l-382 -8q-22 0 -24 20z" />
<glyph unicode="&#x2264;" horiz-adv-x="1194" d="M1002 162q16 -2 16 -19l-18 -151q-2 -12 -6.5 -15.5t-17.5 -4.5l-783 -4q-14 0 -14 24l10 141q2 19 16 19zM862 1154q8 5 14.5 5t10.5 -7l84 -142q6 -11 6 -17.5t-6 -10.5l-538 -273l537 -283q6 -4 6 -10t-6 -15l-88 -137q-14 -18 -36 -2l-613 372q-15 9 -17 31l8 96 q2 21 25 35z" />
<glyph unicode="&#x2265;" horiz-adv-x="1194" d="M1012 162q16 -2 16 -19l-18 -151q-2 -12 -6.5 -15.5t-17.5 -4.5l-783 -4q-14 0 -14 24l10 141q2 19 16 19zM955 796q23 -14 25 -35l8 -96q-2 -22 -17 -31l-613 -372q-8 -6 -15 -6q-15 0 -21 8l-88 137q-6 9 -6 15t6 10l537 283l-538 273q-6 4 -6 10.5t6 17.5l84 142 q4 7 10.5 7t14.5 -5z" />
<glyph unicode="&#x25ca;" horiz-adv-x="1194" d="M1068 719q-2 -20 -11 -37l-389 -682q-12 -20 -24 -21l-106 4q-17 2 -25 17l-386 686q-10 18 -10 43l11 107q4 31 14 47l383 669q9 18 26 21l104 -4q16 -1 27 -21l387 -706q7 -13 7 -28zM593 182l303 582l-296 587l-300 -563z" />
<glyph unicode="&#x25fc;" horiz-adv-x="1135" d="M0 1135h1135v-1135h-1135v1135z" />
<glyph unicode="&#xfb00;" horiz-adv-x="1708" d="M449 1614q67 20 131.5 20t102.5 -2l1 27q0 17 19 17h157q18 0 21 -23l-16 -295q-2 -20 -15 -20l-148 -4q-25 1 -26 23l3 106q-38 4 -77 4t-69 -11t-50 -36q-40 -48 -40 -143t2 -179l295 4q14 -1 17.5 -6.5t4.5 -17.5l-10 -153q-2 -19 -22 -21l-272 7v-705l184 4 q16 0 16 -19l-18 -171q-2 -12 -6.5 -15.5t-17.5 -4.5l-483 6q-14 0 -14 24l10 151q2 19 16 19l100 2l9 707l-176 -11q-17 1 -20 17l-21 155q0 22 22 22l189 3q-9 87 -9 191.5t25 165.5t71.5 101.5t113.5 60.5zM1303 1614q67 20 131.5 20t102.5 -2l1 27q0 17 19 17h157 q18 0 21 -23l-16 -295q-2 -20 -15 -20l-148 -4q-25 1 -26 23l3 106q-38 4 -77 4t-69 -11t-50 -36q-40 -48 -40 -143t2 -179l295 4q14 -1 17.5 -6.5t4.5 -17.5l-10 -153q-2 -19 -22 -21l-272 7v-705l184 4q16 0 16 -19l-18 -171q-2 -12 -6.5 -15.5t-17.5 -4.5l-483 6 q-14 0 -14 24l10 151q2 19 16 19l100 2l9 707l-176 -11q-17 1 -20 17l-21 155q0 22 22 22l189 3q-9 87 -9 191.5t25 165.5t71.5 101.5t113.5 60.5z" />
<glyph unicode="&#xfb01;" horiz-adv-x="1537" d="M449 1614q67 20 131.5 20t102.5 -2l1 27q0 17 19 17h157q18 0 21 -23l-16 -295q-2 -20 -15 -20l-148 -4q-25 1 -26 23l3 106q-38 4 -77 4t-69 -11t-50 -36q-40 -48 -40 -143t2 -179l295 4q14 -1 17.5 -6.5t4.5 -17.5l-10 -153q-2 -19 -22 -21l-272 7v-705l184 4 q16 0 16 -19l-18 -171q-2 -12 -6.5 -15.5t-17.5 -4.5l-483 6q-14 0 -14 24l10 151q2 19 16 19l100 2l9 707l-176 -11q-17 1 -20 17l-21 155q0 22 22 22l189 3q-9 87 -9 191.5t25 165.5t71.5 101.5t113.5 60.5zM1004 -14q-14 0 -14 24v151q0 19 16 19h120l8 699l-162 17 q-18 2 -18 22l22 165q4 18 24 21l321 33q11 0 14 -5.5t4 -17.5l13 -182l-3 -752h114q16 0 16 -19l-18 -131q-2 -12 -6.5 -15.5t-17.5 -4.5zM1264 1342q-32 -5 -76.5 -5t-68 5t-37.5 18q-23 24 -23 85t6.5 87.5t24.5 41.5q31 26 101.5 26t94.5 -3.5t38 -16.5q24 -21 24 -84 t-7 -91t-26 -43t-51 -20z" />
<glyph unicode="&#xfb02;" horiz-adv-x="1537" d="M449 1614q67 20 131.5 20t102.5 -2l1 27q0 17 19 17h157q18 0 21 -23l-16 -295q-2 -20 -15 -20l-148 -4q-25 1 -26 23l3 106q-38 4 -77 4t-69 -11t-50 -36q-40 -48 -40 -143t2 -179l295 4q14 -1 17.5 -6.5t4.5 -17.5l-10 -153q-2 -19 -22 -21l-272 7v-705l184 4 q16 0 16 -19l-18 -171q-2 -12 -6.5 -15.5t-17.5 -4.5l-483 6q-14 0 -14 24l10 151q2 19 16 19l100 2l9 707l-176 -11q-17 1 -20 17l-21 155q0 22 22 22l189 3q-9 87 -9 191.5t25 165.5t71.5 101.5t113.5 60.5zM980 1356q-18 0 -18 22l6 196q0 12 6 15.5t18 5.5l325 -8 q11 0 14 -5.5t4 -17.5l-7 -159l15 -1196l136 11q14 0 16 -19l12 -181q-2 -12 -6.5 -15.5t-17.5 -4.5l-543 6q-14 0 -14 24v171q0 19 16 19l189 -12v1160z" />
<glyph horiz-adv-x="900" d="M730 1776q0 -261 -280 -261t-280 241q0 264 284 264q213 0 260 -138q16 -46 16 -106zM333 1767q0 -111 117 -111q94 0 116 75q7 22 7 57.5t-26 65.5t-78 30t-76.5 -10.5t-37.5 -27.5q-22 -27 -22 -79z" />
<glyph horiz-adv-x="900" d="M443 -540l-95 36q-14 5 -14 12t5 17.5t13 29.5t15 38q16 43 16 63q0 28 -35 53q-36 28 -36 50t14 47.5t36 45.5q48 47 91 47t67.5 -12.5t39.5 -32.5q28 -39 28 -89.5t-11 -88t-29 -72.5q-27 -56 -60 -100t-45 -44z" />
<glyph horiz-adv-x="900" d="M776 1971q16 -2 16 -19l-18 -171q-2 -12 -6.5 -16t-17.5 -4l-624 6q-19 0 -19 24l10 151q1 19 20 19z" />
<glyph horiz-adv-x="900" d="M505.5 1730q-33.5 -5 -91 -5t-83.5 28.5t-26 84.5t6.5 82.5t24.5 41.5q31 26 135 26q68 0 89 -19q34 -32 34 -90t-8 -86t-27.5 -43t-53 -20z" />
<glyph horiz-adv-x="900" d="M804 2006q24 0 24 -23q0 -142 -94 -240q-102 -105 -269 -105q-171 0 -281 91q-113 94 -113 255q0 23 24 23l143 13q19 0 21.5 -32t19 -64t43.5 -55q55 -48 136 -48q152 0 182 165q4 24 21 24z" />
<glyph horiz-adv-x="900" d="M887 1920q7 -4 7 -14.5t-9 -19.5l-276 -269q-4 -4 -11 -4t-15 4l-88 47q-9 4 -9 15.5t5 18.5l200 311q6 10 17.5 10t25.5 -9zM391 1913q8 -5 8 -13.5t-10 -20.5l-256 -258q-5 -5 -13 -5t-14 3l-91 47q-9 4 -9 15t5 19l189 309q7 11 19 11t26 -9z" />
<glyph horiz-adv-x="900" d="M735 1842q4 -8 4 -19.5t-15 -17.5l-494 -207q-8 -3 -15 -3t-11 10l-39 92q-4 10 -4 16t9 11l453 290q12 6 24 6t18 -14z" />
<glyph horiz-adv-x="900" d="M215 2006q6 14 18 14t24 -6l492 -276q9 -5 9 -11t-4 -16l-39 -92q-4 -10 -11.5 -10t-14.5 3l-533 193q-15 6 -15 17.5t4 19.5z" />
<glyph horiz-adv-x="900" d="M548 1643q-28 -24 -42 -25l-98 -9q-17 0 -46 25l-314 278q-7 7 -7 14t6 15l61 73q4 6 10 6t14 -4l331 -184l298 181q12 6 18 6t12 -8l60 -72q8 -11 8 -17q0 -5 -5 -9z" />
<glyph horiz-adv-x="900" d="M420 -374q83 0 83 69q0 29 -18.5 50t-46.5 21t-40 -1.5t-24 -2.5q-28 -4 -33 -4t-16.5 12.5t-24.5 28.5q-32 39 -32 54l46 180h119l-22 -145q41 9 88 9t80 -16t55 -43q45 -55 45 -158q0 -202 -247 -202q-120 0 -188 26q-21 8 -24 18l21 114q3 17 19 17q9 0 44 -9 q70 -18 116 -18z" />
<glyph horiz-adv-x="900" d="M588 -247q0 -128 -123 -280q-10 -13 -22 -13l-95 36q-14 5 -14 12t8 23l16 35q25 59 25 83.5t-11 36.5t-25 23q-35 27 -35 49.5t14 48t36 45.5q48 47 91 47t67.5 -12.5t39.5 -32.5q28 -39 28 -101z" />
<glyph horiz-adv-x="900" d="M38 1842q0 17 50.5 59.5t84.5 63.5q76 47 128 47q42 0 109.5 -37.5t106.5 -56t66.5 -18.5t52 6t47.5 15.5t44 20.5l38 20q33 19 44 19t18 -19l33 -78q2 -5 2 -12q0 -13 -47.5 -57.5t-82.5 -68.5q-80 -56 -128.5 -56t-88 17.5t-79.5 37.5q-106 53 -134 53t-47.5 -5 t-40 -13t-40.5 -17l-38 -17q-32 -15 -43 -15q-16 0 -23 20z" />
<glyph horiz-adv-x="900" d="M364 1985q29 23 45 25l95 10q16 0 46 -26l302 -251q7 -7 7 -14.5t-6 -14.5l-61 -73q-5 -6 -10.5 -6t-13.5 4l-320 159l-297 -154q-4 -2 -10 -2t-12 8l-62 76q-6 8 -6 13t5 9z" />
<glyph horiz-adv-x="900" d="M275 1730q-32 -5 -74.5 -5t-66 6t-37.5 21q-27 27 -27 84.5t6.5 84t24.5 41.5q31 26 100 26t92.5 -5t38.5 -19q27 -25 27 -84t-7 -87t-26 -43t-51 -20zM746 1730q-32 -5 -74.5 -5t-66 6t-37.5 21q-27 27 -27 84.5t6.5 84t24.5 41.5q31 26 100 26t92.5 -5t37.5 -19 q28 -25 28 -84t-7 -87t-26 -43t-51 -20z" />
<glyph horiz-adv-x="0" />
</font>
</defs>
</svg>
